<svg width="38" height="7" viewBox="0 0 38 7" fill="none" xmlns="http://www.w3.org/2000/svg">
<path fill-rule="evenodd" clip-rule="evenodd" d="M28.4391 4.01587C27.6252 4.01587 27.7951 3.42537 27.9406 3.31522C28.1287 3.17296 28.717 3.22896 29.0783 3.22896C29.0783 3.62025 28.9847 4.01587 28.4391 4.01587ZM27.8976 2.32183C28.01 1.8762 29.0598 1.76434 29.0783 2.52951H28.0129C27.3887 2.52951 26.853 2.94008 26.853 3.57871C26.853 4.87426 28.6267 5.06424 29.1493 4.34375C29.2272 4.3919 29.3953 4.67162 29.8357 4.67162H30.2382V3.88471C29.9118 3.88471 30.0015 3.5319 30.0015 3.05412C30.0015 2.69493 30.0312 2.31281 29.9336 2.04572C29.4958 0.846415 27.2917 0.930306 26.9716 2.15972C26.9543 2.22646 26.9444 2.32183 26.9444 2.32183C26.9444 2.32183 27.772 2.32183 27.8976 2.32183ZM19.2771 4.01587C18.4632 4.01587 18.633 3.42537 18.7786 3.31522C18.9667 3.17296 19.555 3.22896 19.9163 3.22896C19.9163 3.62025 19.8227 4.01587 19.2771 4.01587ZM18.7356 2.32183C18.848 1.8762 19.8978 1.76434 19.9163 2.52951H18.8509C18.2267 2.52951 17.691 2.94008 17.691 3.57871C17.691 4.87426 19.4647 5.06424 19.9873 4.34375C20.0651 4.3919 20.2334 4.67162 20.6738 4.67162H21.0762V3.88471C20.7497 3.88471 20.8395 3.5319 20.8395 3.05412C20.8395 2.69493 20.8691 2.31281 20.7716 2.04572C20.3338 0.846415 18.1297 0.930306 17.8096 2.15972C17.7923 2.22646 17.7823 2.32183 17.7823 2.32183C17.7823 2.32183 18.61 2.32183 18.7356 2.32183ZM2.64182 2.92771L3.32855 1.03848H3.35396L4.00261 2.92771H2.64182ZM4.23121 0.689753C4.09165 0.304383 3.93073 0 3.37942 0C2.82808 0 2.65688 0.303144 2.50993 0.689753L0.994933 4.67572H1.99958L2.34931 3.72809H4.28238L4.60666 4.67572H5.6749L4.23121 0.689753ZM5.78304 7H0.886841V6.05831H5.78304V7ZM7.19552 2.11518V3.42834C7.19552 3.69397 7.1449 3.92148 7.04375 4.10983C6.94261 4.29706 6.7956 4.44077 6.60153 4.53984C6.40747 4.63891 6.17457 4.68788 5.90407 4.68788H5.83469V3.89176C5.98641 3.89176 6.10402 3.84712 6.18751 3.75895C6.2722 3.67076 6.31339 3.50128 6.31339 3.33906L6.38735 1.34903H9.01818V4.65958H8.07373V2.11518H7.19552ZM9.7023 1.34903H10.6122V4.6879H9.7023V1.34903ZM10.6122 3.09881V2.35425H11.407C11.6525 2.35425 11.8697 2.40208 12.0576 2.49882C12.2455 2.59556 12.3923 2.7325 12.4957 2.90967C12.6002 3.08684 12.653 3.2912 12.653 3.52271C12.653 3.75423 12.6014 3.95749 12.498 4.13358C12.3947 4.30966 12.2491 4.44661 12.0612 4.54335C11.8733 4.64009 11.6548 4.6879 11.407 4.6879H10.6122V3.93317L11.3381 3.93323C11.4508 3.93323 11.54 3.89445 11.607 3.81937C11.6727 3.74307 11.7068 3.64256 11.7068 3.51783C11.7068 3.43426 11.6904 3.3616 11.6598 3.29741C11.6293 3.2332 11.5858 3.18479 11.5306 3.15089C11.4755 3.11575 11.4121 3.09881 11.3381 3.09881H10.6122ZM30.7464 1.34335V4.6879H31.6911V3.37631H32.9192V4.6879H33.8639V1.34335C33.549 1.34335 33.2341 1.34335 32.9192 1.34335V2.58937H31.6911V1.34335C31.3762 1.34335 31.0613 1.34335 30.7464 1.34335ZM34.5282 4.6879H35.4493V3.31074C35.4493 3.31074 36.5965 4.46628 36.8095 4.68788C36.815 4.69023 38 4.6879 38 4.6879C37.6385 4.31082 36.3467 2.96918 36.3467 2.96918C36.5901 2.60656 37.8583 1.34335 37.8583 1.34335C37.5273 1.34467 36.7083 1.34335 36.7083 1.34335L35.4493 2.65494V1.34335H34.5282V4.6879ZM22.7571 4.6879H24.8118C25.8189 4.6879 26.4886 4.17605 26.4886 3.24516C26.4886 2.32839 25.781 1.82427 24.7882 1.82427H23.7254V0.906156C24.5205 0.906156 25.3156 0.906156 26.1108 0.906156V0.0536243H22.7571V4.6879ZM23.7254 3.81351H24.9054C25.0194 3.81351 25.119 3.78882 25.2069 3.74041C25.2936 3.69205 25.3612 3.62431 25.4098 3.53604C25.4585 3.44789 25.4834 3.34578 25.4834 3.23073C25.4834 3.11243 25.4597 3.0092 25.4122 2.91995C25.3635 2.83064 25.2971 2.76181 25.2105 2.71345C25.1227 2.66506 25.0217 2.64144 24.9054 2.64144L23.7254 2.63748V3.81351ZM14.7062 1.26331C14.0892 1.27607 13.4213 1.67972 13.1505 2.1908C12.8706 2.71902 12.9106 3.50947 13.2664 3.99179C13.5866 4.4258 14.1355 4.71006 14.707 4.72214L14.7058 5.98385C15.0185 5.98385 15.3311 5.98385 15.6438 5.98385V4.72214C16.2102 4.72214 16.7648 4.4165 17.074 3.9829C17.629 3.20447 17.4701 1.95435 16.3474 1.43697C16.2009 1.36948 15.8547 1.2677 15.6438 1.26331V0.0451323H14.7062V1.26331ZM15.6438 2.05535C16.1245 2.16441 16.4794 2.54686 16.4794 3.00199C16.4794 3.45707 16.1245 3.83953 15.6438 3.94859V2.05535ZM14.7068 3.94518C14.2334 3.83184 13.8855 3.4525 13.8855 3.00199C13.8855 2.55143 14.2334 2.1721 14.7068 2.05876V3.94518Z" fill="#7C7783"/>
</svg>
