<svg width="17" height="11" viewBox="0 0 17 11" fill="none" xmlns="http://www.w3.org/2000/svg">
<path fill-rule="evenodd" clip-rule="evenodd" d="M1.69349 0H15.7622C16.0348 0 16.2824 0.119227 16.4617 0.311203C16.641 0.503179 16.7523 0.768375 16.7523 1.06032V9.93969C16.7523 10.2316 16.641 10.4968 16.4617 10.6888C16.2824 10.8808 16.0348 11 15.7622 11H1.69349C1.42088 11 1.17325 10.8808 0.993982 10.6888C0.814714 10.4968 0.703369 10.2316 0.703369 9.93969V1.06032C0.703369 0.768375 0.814714 0.503179 0.993982 0.311203C1.17325 0.119227 1.42088 0 1.69349 0ZM1.69349 0.353438H15.7622C16.1252 0.353438 16.4223 0.671533 16.4223 1.06032V9.93969C16.4223 10.3285 16.1252 10.6466 15.7622 10.6466H1.69349C1.33045 10.6466 1.03341 10.3285 1.03341 9.93969V1.06032C1.03341 0.671533 1.33045 0.353438 1.69349 0.353438Z" fill="#7C7783"/>
<path d="M7.33942 3.82407H7.99243C8.48394 3.82407 8.7648 4.10824 8.7648 4.60806C8.7648 5.10788 8.48394 5.39458 7.99009 5.39458H7.33942V3.82407Z" fill="#7C7783"/>
<path d="M10.5443 6.8225C10.2392 6.8225 10.0452 6.66336 10.0452 6.41949C10.0452 6.16793 10.232 6.02161 10.5892 5.99849L11.2255 5.95486V6.18074C11.2255 6.55554 10.9322 6.8225 10.5443 6.8225Z" fill="#7C7783"/>
<path fill-rule="evenodd" clip-rule="evenodd" d="M15.7622 0.353438H1.69349C1.33045 0.353438 1.03341 0.671533 1.03341 1.06032V9.93969C1.03341 10.3285 1.33045 10.6466 1.69349 10.6466H15.7622C16.1252 10.6466 16.4223 10.3285 16.4223 9.93969V1.06032C16.4223 0.671533 16.1252 0.353438 15.7622 0.353438ZM5.07502 3.69212C4.93459 3.87226 4.7099 4.01434 4.48522 3.99405C4.45712 3.75047 4.56715 3.4917 4.69584 3.33183C4.8363 3.14662 5.08204 3.0147 5.281 3.00454C5.3044 3.25828 5.21312 3.50692 5.07502 3.69212ZM6.77306 7.26194V3.30647H8.14226C8.84913 3.30647 9.34298 3.83421 9.34298 4.6055C9.34298 5.37682 8.83976 5.90962 8.12357 5.90962H7.33948V7.26194H6.77306ZM13.5409 7.41672C13.3101 8.1094 13.0459 8.33772 12.4844 8.33772C12.4415 8.33772 12.2988 8.33266 12.2655 8.3225V7.84806C12.3012 7.85313 12.3892 7.8582 12.4344 7.8582C12.689 7.8582 12.8318 7.744 12.9198 7.44717L12.9722 7.2721L11.9966 4.39237H12.5986L13.2767 6.72914H13.2886L13.9668 4.39237H14.5522L13.5409 7.41672ZM11.235 6.78657C11.0836 7.09972 10.7501 7.29738 10.3906 7.29738C9.85837 7.29738 9.48705 6.95339 9.48705 6.43489C9.48705 5.92149 9.84654 5.62632 10.5112 5.58267L11.2255 5.53646V5.31571C11.2255 4.98972 11.0292 4.81258 10.6791 4.81258C10.3906 4.81258 10.1801 4.97431 10.1375 5.22072H9.62188C9.63841 4.70222 10.0878 4.32487 10.6957 4.32487C11.3508 4.32487 11.7766 4.69707 11.7766 5.27464V7.26657H11.2468V6.78657H11.235ZM4.7542 4.16888C4.90007 4.1068 5.08067 4.02993 5.27864 4.04224C5.40501 4.0524 5.77016 4.09302 6.00421 4.46852C6.0034 4.46919 6.00183 4.4703 5.99958 4.47189L5.99723 4.47356C5.97903 4.48639 5.9303 4.52075 5.87218 4.57764C5.76822 4.67939 5.63409 4.8533 5.59034 5.10536C5.5806 5.1615 5.57533 5.22152 5.57589 5.28549C5.57616 5.32359 5.57821 5.36019 5.58181 5.39535C5.63595 5.92273 6.04201 6.12439 6.09843 6.15241C6.10234 6.15433 6.10456 6.15543 6.10483 6.15575L6.10344 6.16061C6.0915 6.20255 6.01267 6.47893 5.83332 6.76215C5.66718 7.02602 5.4963 7.28481 5.22481 7.28987C5.09707 7.29234 5.01103 7.25204 4.92145 7.21009L4.92137 7.21005C4.82709 7.16587 4.7289 7.11987 4.57414 7.11987C4.414 7.11987 4.31138 7.16704 4.21261 7.21244L4.21227 7.21259C4.12644 7.25209 4.04345 7.29025 3.92813 7.29493C3.66602 7.3051 3.46706 7.01587 3.30086 6.75199C2.96149 6.21919 2.70171 5.24997 3.05279 4.59538C3.22364 4.26809 3.53495 4.06256 3.86964 4.0575C4.01566 4.05461 4.15491 4.11458 4.27669 4.16704C4.36965 4.20707 4.45241 4.2427 4.52029 4.2427C4.58079 4.2427 4.66025 4.20887 4.75412 4.16892L4.7542 4.16888Z" fill="#7C7783"/>
</svg>
