<svg width="677" height="690" viewBox="0 0 677 690" fill="none" xmlns="http://www.w3.org/2000/svg">
<path fill-rule="evenodd" clip-rule="evenodd" d="M526.555 277.044C552.276 292.752 587.137 308.479 591.113 338.3C595.232 369.186 557.899 387.312 544.947 414.972C534.839 436.56 541.935 466.962 523.786 482.093C505.648 497.216 476.303 481.698 454.352 490.505C420.853 503.946 398.225 560.662 364.213 546.118C330.997 531.914 357.228 474.563 340.838 441.965C327.183 414.805 276.695 407.053 279.289 377.21C281.997 346.057 331.795 346.921 351.168 323.122C367.034 303.631 358.567 268.157 379.402 254.226C400.207 240.314 428.677 250.569 453.84 254.471C479.299 258.419 504.267 263.434 526.555 277.044Z" stroke="#7C7783"/>
<path opacity="0.95875" fill-rule="evenodd" clip-rule="evenodd" d="M523.471 280.057C548.666 296.645 583.005 313.577 585.956 343.485C589.013 374.46 551.032 391.232 537.12 418.384C526.261 439.575 532.313 470.173 513.632 484.634C494.961 499.088 466.134 482.56 443.866 490.575C409.883 502.806 385.287 558.619 351.756 542.898C319.009 527.545 347.233 471.226 331.957 438.107C319.23 410.514 268.979 400.99 272.603 371.293C276.386 340.293 326.185 342.917 346.39 319.846C362.938 300.952 355.688 265.243 377.016 252.074C398.313 238.924 426.447 250.167 451.49 254.952C476.829 259.793 501.638 265.682 523.471 280.057Z" stroke="#7C7783"/>
<path opacity="0.9175" fill-rule="evenodd" clip-rule="evenodd" d="M520.282 282.956C544.921 300.405 578.697 318.521 580.619 348.479C582.609 379.506 544.028 394.904 529.171 421.514C517.575 442.283 522.576 473.038 503.385 486.813C484.205 500.58 455.93 483.062 433.372 490.275C398.947 501.282 372.413 556.122 339.403 539.244C307.166 522.761 337.348 467.543 323.205 433.944C311.421 405.951 261.468 394.666 266.118 365.152C270.973 334.341 320.71 338.723 341.723 316.409C358.932 298.134 352.909 262.234 374.704 249.843C396.467 237.471 424.231 249.688 449.124 255.35C474.311 261.079 498.932 267.835 520.282 282.956Z" stroke="#7C7783"/>
<path opacity="0.87625" fill-rule="evenodd" clip-rule="evenodd" d="M516.992 285.737C541.044 304.026 574.216 323.304 575.106 353.275C576.028 384.316 536.893 398.321 521.109 424.357C508.791 444.678 512.734 475.555 493.057 488.625C473.391 501.688 445.703 483.203 422.883 489.604C388.058 499.373 359.617 553.175 327.169 535.16C295.481 517.566 327.585 463.517 314.591 429.478C303.765 401.119 254.171 388.088 259.841 358.792C265.761 328.21 315.377 334.342 337.172 312.812C355.021 295.18 350.232 259.132 372.467 247.535C394.67 235.955 422.029 249.132 446.742 255.664C471.747 262.274 496.15 269.888 516.992 285.737Z" stroke="#7C7783"/>
<path opacity="0.835" fill-rule="evenodd" clip-rule="evenodd" d="M513.604 288.396C537.039 307.503 569.567 327.919 569.425 357.867C569.277 388.885 529.635 401.479 512.945 426.91C499.919 446.758 502.8 477.718 482.661 490.068C462.532 502.412 435.464 482.981 412.41 488.563C377.227 497.083 346.914 549.781 315.068 530.65C283.968 511.968 317.954 459.152 306.126 424.716C296.271 396.026 247.096 381.264 253.78 352.222C260.757 321.905 310.192 329.781 332.742 309.062C351.21 292.093 347.661 255.941 370.309 245.151C392.924 234.378 419.846 248.499 444.348 255.894C469.14 263.376 493.296 271.839 513.604 288.396Z" stroke="#7C7783"/>
<path opacity="0.79375" fill-rule="evenodd" clip-rule="evenodd" d="M510.122 290.931C532.913 310.832 564.756 332.361 563.582 362.25C562.365 393.206 522.265 404.375 504.688 429.169C490.969 448.52 492.785 479.526 472.208 491.141C451.642 502.751 425.227 482.397 401.967 487.154C366.469 494.413 334.321 545.943 303.116 525.721C272.64 505.972 308.468 454.455 297.819 419.664C288.948 390.677 240.252 374.202 247.941 345.449C255.968 315.434 305.161 325.045 328.439 305.161C347.503 288.876 345.197 252.664 368.231 242.696C391.232 232.742 417.683 247.79 441.945 256.038C466.494 264.383 490.372 273.686 510.122 290.931Z" stroke="#7C7783"/>
<path opacity="0.7525" fill-rule="evenodd" clip-rule="evenodd" d="M506.551 293.338C528.67 314.01 559.791 336.626 557.585 366.419C555.3 397.275 514.791 407.006 496.349 431.133C481.955 449.964 482.703 480.977 461.713 491.843C440.734 502.704 415.006 481.453 391.568 485.378C355.798 491.369 321.855 541.668 291.327 520.379C261.514 499.588 299.139 449.432 289.684 414.327C281.806 385.079 233.649 366.912 242.334 338.483C251.4 308.807 300.292 320.14 324.269 301.116C343.906 285.535 342.847 249.308 366.238 240.172C389.596 231.049 415.544 247.006 439.536 256.097C463.813 265.296 487.385 275.426 506.551 293.338Z" stroke="#7C7783"/>
<path opacity="0.71125" fill-rule="evenodd" clip-rule="evenodd" d="M502.894 295.614C524.313 317.03 554.673 340.706 551.439 370.367C548.089 401.086 507.22 409.366 487.935 432.797C472.883 451.084 472.563 482.067 451.185 492.172C429.82 502.271 404.808 480.148 381.221 483.237C345.223 487.951 309.525 536.958 279.713 514.627C250.599 492.82 289.976 444.086 281.725 408.711C274.85 379.237 227.291 359.4 236.961 331.33C247.055 302.028 295.586 315.071 320.233 296.929C340.419 282.071 340.609 245.872 364.329 237.581C388.015 229.301 413.429 246.147 437.122 256.07C461.096 266.111 484.333 277.057 502.894 295.614Z" stroke="#7C7783"/>
<path opacity="0.67" fill-rule="evenodd" clip-rule="evenodd" d="M499.156 297.757C519.851 319.892 549.413 344.599 545.154 374.091C540.743 404.636 499.564 411.455 479.46 434.161C463.769 451.882 462.38 482.798 440.641 492.127C418.914 501.452 394.651 478.485 370.942 480.734C334.761 484.166 297.352 531.821 268.292 508.477C239.912 485.679 280.992 438.427 273.956 402.824C268.093 373.161 221.189 351.677 231.832 324.001C242.943 295.109 291.053 309.845 316.341 292.608C337.051 278.491 338.488 242.365 362.509 234.928C386.494 227.501 411.343 245.215 434.709 255.958C458.351 266.828 481.224 278.577 499.156 297.757Z" stroke="#7C7783"/>
<path opacity="0.62875" fill-rule="evenodd" clip-rule="evenodd" d="M495.343 299.764C515.287 322.59 544.015 348.298 538.737 377.586C533.271 407.919 491.832 413.269 470.932 435.223C454.621 452.357 452.166 483.167 430.092 491.71C408.031 500.25 384.544 476.466 360.744 477.872C324.422 480.018 285.348 526.263 257.075 501.933C229.464 478.173 272.198 432.46 266.385 396.673C261.541 366.857 215.349 343.753 226.953 316.503C239.067 288.057 286.698 304.468 312.595 288.157C333.804 274.799 336.488 238.789 360.779 232.215C385.035 225.65 409.288 244.211 432.297 255.761C455.579 267.448 478.061 279.984 495.343 299.764Z" stroke="#7C7783"/>
<path opacity="0.5875" fill-rule="evenodd" clip-rule="evenodd" d="M491.458 301.632C510.627 325.122 538.486 351.8 532.195 380.847C525.68 410.932 484.032 414.806 462.363 435.981C445.451 452.506 441.933 483.173 419.551 490.921C397.182 498.664 374.501 474.093 350.638 474.655C314.221 475.512 273.529 520.29 246.078 495.004C219.269 470.311 263.605 426.193 259.021 390.265C255.203 360.332 209.78 335.636 222.33 308.847C235.431 280.881 282.525 298.947 309 283.582C330.683 270.998 334.609 235.149 359.142 229.446C383.639 223.751 407.266 243.136 429.891 255.479C452.784 267.968 474.848 281.277 491.458 301.632Z" stroke="#7C7783"/>
<path opacity="0.54625" fill-rule="evenodd" clip-rule="evenodd" d="M487.507 303.359C505.877 327.485 532.833 355.099 525.538 383.872C517.981 413.671 476.174 416.065 453.763 436.434C436.271 452.332 431.693 482.818 409.031 489.76C386.382 496.698 364.534 471.369 340.638 471.086C304.169 470.653 261.909 513.91 235.312 487.7C209.339 462.103 255.222 419.633 251.874 383.609C249.085 353.595 204.486 327.337 217.968 301.041C232.041 273.589 278.54 293.288 305.561 278.887C327.69 267.094 332.855 231.449 357.599 226.624C382.307 221.806 405.28 241.991 427.494 255.112C449.97 268.389 471.588 282.454 487.507 303.359Z" stroke="#7C7783"/>
<path opacity="0.505" fill-rule="evenodd" clip-rule="evenodd" d="M483.493 304.944C501.043 329.675 527.064 358.193 518.772 386.655C510.184 416.132 468.269 417.043 445.142 436.583C427.091 451.832 421.46 482.102 398.545 488.229C375.643 494.353 354.655 468.298 330.754 467.169C294.278 465.448 250.501 507.131 224.793 480.027C199.686 453.558 247.06 412.789 244.953 376.712C243.197 346.654 199.476 318.866 213.872 293.095C228.9 266.191 274.748 287.499 302.282 274.08C324.831 263.091 331.228 227.693 356.153 223.753C381.041 219.818 403.333 240.779 425.107 254.662C447.139 268.709 468.286 283.513 483.493 304.944Z" stroke="#7C7783"/>
<path opacity="0.46375" fill-rule="evenodd" clip-rule="evenodd" d="M479.423 306.383C496.131 331.691 521.184 361.077 511.906 389.193C502.296 418.314 460.325 417.74 436.51 436.426C417.923 451.009 411.245 481.024 388.105 486.33C364.978 491.632 344.876 464.882 320.999 462.91C284.56 459.901 239.32 499.96 214.531 471.997C190.321 444.687 239.13 405.668 238.265 369.582C237.544 339.517 194.754 310.234 210.047 285.018C226.012 258.695 271.153 281.586 299.166 269.166C322.108 258.994 329.728 223.887 354.804 220.835C379.844 217.788 401.426 239.499 422.735 254.127C444.296 268.929 464.945 284.454 479.423 306.383Z" stroke="#7C7783"/>
<path opacity="0.4225" fill-rule="evenodd" clip-rule="evenodd" d="M475.3 307.676C491.146 333.529 515.201 363.747 504.948 391.485C494.329 420.212 452.352 418.155 427.879 435.964C408.778 449.863 401.061 479.588 377.724 484.065C354.4 488.54 335.208 461.127 311.385 458.314C275.028 454.022 228.38 492.408 204.54 463.618C181.257 435.502 231.44 398.28 231.818 362.23C232.133 332.193 190.328 301.45 206.499 276.821C223.381 251.11 267.76 275.557 296.218 264.15C319.524 254.808 328.359 220.035 353.556 217.876C378.715 215.72 399.562 238.155 420.38 253.51C441.443 269.047 461.57 285.274 475.3 307.676Z" stroke="#7C7783"/>
<path opacity="0.38125" fill-rule="evenodd" clip-rule="evenodd" d="M471.131 308.821C486.095 335.187 509.122 366.201 497.907 393.526C486.291 421.825 444.36 418.287 419.258 435.198C399.667 448.396 390.92 477.793 367.415 481.437C343.923 485.078 325.665 457.037 301.924 453.386C265.693 447.815 217.694 484.481 194.831 454.9C172.504 426.012 224 390.634 225.621 354.662C226.972 324.692 186.201 292.525 203.231 268.513C221.009 243.446 264.573 269.418 293.441 259.039C317.083 250.538 327.123 216.141 352.408 214.877C377.657 213.615 397.744 236.747 418.044 252.811C438.585 269.064 458.164 285.974 471.131 308.821Z" stroke="#7C7783"/>
<path opacity="0.34" fill-rule="evenodd" clip-rule="evenodd" d="M466.919 309.816C480.983 336.663 502.956 368.436 490.792 395.314C478.193 423.151 436.359 418.136 410.659 434.128C390.601 446.609 380.835 475.643 357.191 478.449C333.559 481.253 316.256 452.616 292.627 448.133C256.566 441.29 207.274 476.191 185.418 445.856C164.073 416.23 216.82 382.738 219.682 346.889C222.066 317.021 182.38 283.47 200.248 260.105C218.901 235.713 261.595 263.178 290.838 253.839C314.788 246.19 326.019 212.211 351.364 211.844C376.672 211.477 395.972 235.277 415.731 252.03C435.724 268.981 454.732 286.552 466.919 309.816Z" stroke="#7C7783"/>
<path opacity="0.29875" fill-rule="evenodd" clip-rule="evenodd" d="M462.67 310.66C475.818 337.956 496.708 370.448 483.61 396.847C470.045 424.188 428.358 417.702 402.091 432.756C381.591 444.505 370.819 473.141 347.063 475.105C323.32 477.068 306.994 447.871 283.505 442.56C247.659 434.454 197.134 467.548 176.31 436.494C155.973 406.168 209.907 374.602 214.006 338.92C217.422 309.191 178.868 274.297 197.553 251.606C217.057 227.919 258.831 256.844 288.414 248.556C312.641 241.769 325.05 208.249 350.423 208.779C375.759 209.308 394.251 233.748 413.444 251.169C432.865 268.796 451.278 287.008 462.67 310.66Z" stroke="#7C7783"/>
<path opacity="0.2575" fill-rule="evenodd" clip-rule="evenodd" d="M458.39 311.353C470.605 339.064 490.387 372.236 476.372 398.123C461.856 424.934 420.367 416.986 393.566 431.083C372.648 442.086 360.882 470.288 337.045 471.408C313.22 472.528 297.89 442.807 274.571 436.674C238.982 427.316 187.286 458.562 167.52 426.828C148.216 395.837 203.27 366.237 208.602 330.764C213.045 301.21 175.671 265.017 195.149 243.028C215.482 220.073 256.283 250.424 286.169 243.198C310.645 237.28 324.218 204.259 349.588 205.686C374.92 207.111 392.581 232.16 411.185 250.228C430.01 268.51 447.807 287.34 458.39 311.353Z" stroke="#7C7783"/>
<path opacity="0.21625" fill-rule="evenodd" clip-rule="evenodd" d="M454.084 311.893C465.35 339.986 484.001 373.797 469.085 399.141C453.636 425.39 412.396 415.988 385.093 429.112C363.783 439.354 351.038 467.089 327.147 467.364C303.27 467.639 288.956 437.43 265.833 430.483C230.546 419.883 177.741 449.243 159.057 416.868C140.811 385.251 196.918 357.652 203.476 322.433C208.94 293.09 172.791 255.64 193.039 234.38C214.175 212.187 253.955 243.925 284.109 237.769C308.803 232.728 323.522 200.248 348.858 202.569C374.157 204.888 390.965 230.516 408.957 249.21C427.163 268.124 444.321 287.549 454.084 311.893Z" stroke="#7C7783"/>
<path opacity="0.175" fill-rule="evenodd" clip-rule="evenodd" d="M449.756 312.279C460.061 340.72 477.558 375.129 461.758 399.9C445.395 425.554 404.455 414.71 376.683 426.844C355.007 436.314 341.298 463.548 317.384 462.977C293.482 462.407 280.201 431.746 257.304 423.995C222.361 412.165 168.512 439.605 150.933 406.627C133.765 374.422 190.858 348.858 198.634 313.935C205.113 284.839 170.233 246.178 191.226 225.673C213.14 204.268 251.85 237.356 282.234 232.278C307.117 228.119 322.965 196.219 348.236 199.433C373.47 202.641 389.404 228.818 406.763 248.114C424.328 267.638 440.827 287.635 449.756 312.279Z" stroke="#7C7783"/>
<path opacity="0.13375" fill-rule="evenodd" clip-rule="evenodd" d="M445.412 312.512C454.743 341.265 471.064 376.231 454.401 400.397C437.144 425.426 396.553 413.154 368.346 424.284C346.331 432.97 331.675 459.669 307.766 458.253C283.869 456.838 271.637 425.764 248.993 417.216C214.437 404.172 159.61 429.657 143.157 396.118C127.089 363.364 185.097 339.866 194.082 305.282C201.568 276.467 168 236.643 189.712 216.918C212.378 196.327 249.97 230.724 280.547 226.73C305.589 223.46 322.545 192.178 347.721 196.28C372.859 200.375 387.901 227.068 404.606 246.943C421.508 267.053 437.327 287.597 445.412 312.512Z" stroke="#7C7783"/>
<path opacity="0.0925" fill-rule="evenodd" clip-rule="evenodd" d="M441.058 312.591C449.403 341.621 464.529 377.101 447.023 400.634C428.892 425.007 388.7 411.321 360.092 421.433C337.764 429.324 322.179 455.456 298.304 453.197C274.442 450.94 263.274 419.489 240.911 410.156C206.784 395.913 151.045 419.412 135.739 385.352C120.79 352.089 179.643 330.686 189.826 296.483C198.309 267.985 166.094 227.047 188.499 208.126C211.888 188.374 248.317 224.038 279.05 221.133C304.22 218.754 322.265 188.129 347.314 193.114C372.327 198.091 386.458 225.267 402.487 245.697C418.706 266.368 433.827 287.435 441.058 312.591Z" stroke="#7C7783"/>
<path opacity="0.05125" fill-rule="evenodd" clip-rule="evenodd" d="M436.698 312.515C444.047 341.788 457.959 377.738 439.632 400.609C420.65 424.296 380.905 409.214 351.931 418.295C329.318 425.382 312.823 450.915 289.012 447.816C265.213 444.718 255.122 412.93 233.068 402.823C199.411 387.399 142.829 408.883 128.687 374.343C114.876 340.612 174.502 321.331 185.87 287.549C195.341 259.404 164.518 217.4 187.589 199.306C211.672 180.418 246.894 217.306 277.746 215.493C303.013 214.009 322.125 184.078 347.017 189.94C371.873 195.793 385.075 223.419 400.41 244.379C415.926 265.586 430.33 287.149 436.698 312.515Z" stroke="#7C7783"/>
<path opacity="0.01" fill-rule="evenodd" clip-rule="evenodd" d="M432.34 312.287C438.684 341.767 451.365 378.143 432.238 400.324C412.428 423.297 373.18 406.836 343.875 414.875C321.004 421.15 303.619 446.053 279.9 442.117C256.194 438.183 247.193 406.095 225.474 395.227C192.328 378.64 134.971 398.084 122.012 363.107C109.355 328.949 169.682 311.811 182.221 278.493C192.668 250.734 163.274 207.717 186.983 190.472C211.732 172.47 245.704 210.536 276.636 209.819C301.969 209.231 322.125 180.03 346.83 186.762C371.499 193.484 383.757 221.527 398.379 242.991C413.173 264.709 426.842 286.742 432.34 312.287Z" stroke="#7C7783"/>
</svg>
