<svg width="598" height="632" viewBox="0 0 598 632" fill="none" xmlns="http://www.w3.org/2000/svg">
<path fill-rule="evenodd" clip-rule="evenodd" d="M98.4994 323.59C78.6772 300.888 50.1428 275.425 55.2985 245.784C60.6382 215.086 101.69 208.999 122.345 186.5C138.466 168.94 140.82 137.81 162.673 128.823C184.514 119.84 207.849 143.449 231.431 141.634C267.42 138.866 306.024 91.5538 334.105 115.634C361.527 139.151 319.295 185.988 325.147 222.002C330.023 252.008 375.858 274.554 364.428 302.242C352.496 331.147 305.252 315.379 279.63 332.267C258.646 346.099 256.078 382.479 232.023 389.516C208.002 396.543 183.921 378.217 161.089 366.944C137.987 355.538 115.676 343.262 98.4994 323.59Z" stroke="#7C7783"/>
<path opacity="0.95875" fill-rule="evenodd" clip-rule="evenodd" d="M102.345 321.642C83.2892 298.257 55.6134 271.801 61.7734 242.386C68.1532 211.921 109.416 207.32 130.836 185.594C147.553 168.638 150.962 137.635 173.122 129.445C195.269 121.261 217.809 145.678 241.455 144.715C277.542 143.245 317.753 97.3856 345.021 122.444C371.651 146.916 327.828 192.17 332.461 228.347C336.322 258.487 381.399 282.652 369.03 309.893C356.118 338.329 309.402 320.882 283.205 336.826C261.75 349.883 257.95 386.122 233.653 392.284C209.392 398.437 185.928 379.269 163.475 367.19C140.757 354.968 118.858 341.905 102.345 321.642Z" stroke="#7C7783"/>
<path opacity="0.9175" fill-rule="evenodd" clip-rule="evenodd" d="M106.257 319.833C87.9902 295.794 61.2067 268.378 68.3635 239.224C75.7756 209.029 117.2 205.919 139.357 184.993C156.651 168.662 161.11 137.823 183.55 130.442C205.978 123.065 227.693 148.261 251.375 148.15C287.516 147.981 329.285 103.63 355.708 129.637C381.513 155.034 336.152 198.65 339.561 234.944C342.401 265.184 386.665 290.938 373.373 317.697C359.496 345.63 313.366 326.526 286.625 341.505C264.725 353.773 259.698 389.827 235.189 395.106C210.716 400.377 187.898 380.391 165.852 367.52C143.544 354.497 122.085 340.664 106.257 319.833Z" stroke="#7C7783"/>
<path opacity="0.87625" fill-rule="evenodd" clip-rule="evenodd" d="M110.23 318.168C92.7751 293.504 66.9166 265.16 75.0614 236.303C83.4969 206.416 125.031 204.801 147.901 184.7C165.749 169.013 171.253 138.376 193.946 131.813C216.626 125.253 237.491 151.196 261.18 151.937C297.331 153.069 340.607 110.281 366.153 137.204C391.101 163.496 344.257 205.42 346.438 241.789C348.255 272.09 391.652 299.403 377.452 325.647C362.628 353.044 317.138 332.304 289.887 346.302C267.569 357.765 261.32 393.589 236.63 397.979C211.975 402.363 189.831 381.583 168.218 367.935C146.349 354.127 125.355 339.54 110.23 318.168Z" stroke="#7C7783"/>
<path opacity="0.835" fill-rule="evenodd" clip-rule="evenodd" d="M114.26 316.648C97.6382 291.389 72.7361 262.153 81.8591 233.627C91.3076 204.084 132.902 203.966 156.455 184.715C174.837 169.691 181.379 139.294 204.296 133.556C227.202 127.821 247.191 154.48 270.857 156.073C306.975 158.504 351.705 117.331 376.343 145.136C400.404 172.291 352.134 212.474 353.084 248.872C353.875 279.197 396.353 308.035 381.262 333.733C365.509 360.559 320.716 338.211 292.987 351.209C270.278 361.854 262.816 397.405 237.974 400.901C213.168 404.391 191.724 382.842 170.57 368.435C149.166 353.858 128.663 338.535 114.26 316.648Z" stroke="#7C7783"/>
<path opacity="0.79375" fill-rule="evenodd" clip-rule="evenodd" d="M118.342 315.275C102.574 289.451 78.6582 259.358 88.7482 231.2C99.1983 202.036 140.802 203.415 165.009 185.038C183.902 170.696 191.475 140.574 214.589 135.669C237.692 130.766 256.78 158.109 280.396 160.551C316.436 164.279 362.566 124.771 386.265 153.426C409.41 181.409 359.774 219.801 359.491 256.184C359.255 286.498 400.762 316.826 384.799 341.946C368.136 368.169 324.094 344.239 295.922 356.221C272.849 366.035 264.182 401.269 239.218 403.866C214.291 406.46 193.575 384.167 172.906 369.019C151.992 353.691 132.006 337.651 118.342 315.275Z" stroke="#7C7783"/>
<path opacity="0.7525" fill-rule="evenodd" clip-rule="evenodd" d="M122.471 314.05C107.574 287.694 84.6749 256.781 95.7196 229.023C107.158 200.274 148.721 203.149 173.553 185.668C192.934 172.024 201.527 142.216 224.811 138.149C248.082 134.084 266.248 162.077 289.784 165.366C325.702 170.386 373.176 132.591 395.907 162.06C418.107 190.839 367.165 227.393 365.65 263.717C364.388 293.981 404.874 325.762 388.058 350.274C370.504 375.862 327.267 350.379 298.686 361.332C275.278 370.302 265.417 405.177 240.362 406.872C215.344 408.565 195.38 385.557 175.221 369.685C154.824 353.626 135.379 336.888 122.471 314.05Z" stroke="#7C7783"/>
<path opacity="0.71125" fill-rule="evenodd" clip-rule="evenodd" d="M126.643 312.976C112.637 286.119 90.7812 254.424 102.767 227.101C115.181 198.803 156.651 203.169 182.079 186.605C201.924 173.677 211.528 144.218 234.952 140.995C258.364 137.773 275.584 166.382 299.011 170.513C334.764 176.819 383.523 140.783 405.26 171.031C426.488 200.57 374.302 235.241 371.557 271.462C369.27 301.64 408.685 334.835 391.037 358.709C372.614 383.632 330.235 356.627 301.279 366.536C277.565 374.652 266.521 409.125 241.406 409.916C216.327 410.707 197.14 387.011 177.516 370.435C157.66 353.663 138.779 336.248 126.643 312.976Z" stroke="#7C7783"/>
<path opacity="0.67" fill-rule="evenodd" clip-rule="evenodd" d="M130.851 312.054C117.752 284.729 96.9673 252.29 109.88 225.435C123.253 197.621 164.581 203.474 190.573 187.847C210.858 175.651 221.46 146.577 244.997 144.201C268.521 141.826 284.774 171.016 308.065 175.985C343.609 183.569 393.594 149.336 414.309 180.325C434.54 210.589 381.173 243.336 377.202 279.409C373.892 309.464 412.188 344.033 393.73 367.24C374.461 391.466 332.99 362.972 303.695 371.826C279.704 379.077 267.491 413.107 242.346 412.994C217.237 412.88 198.85 388.526 179.785 371.266C160.494 353.802 142.2 335.731 130.851 312.054Z" stroke="#7C7783"/>
<path opacity="0.62875" fill-rule="evenodd" clip-rule="evenodd" d="M135.09 311.284C122.916 283.524 103.226 250.381 117.05 224.026C131.367 196.732 172.502 204.064 199.026 189.393C219.727 177.944 231.315 149.291 254.935 147.765C278.542 146.239 293.809 175.975 316.934 181.776C352.226 190.628 403.376 158.241 423.045 189.933C442.254 220.884 387.771 251.666 382.578 287.549C378.25 317.444 415.38 353.345 396.134 375.856C376.042 399.356 335.531 369.408 305.933 377.196C281.693 383.574 268.327 417.119 243.182 416.1C218.074 415.084 200.509 390.101 182.026 372.178C163.324 354.043 145.64 335.338 135.09 311.284Z" stroke="#7C7783"/>
<path opacity="0.5875" fill-rule="evenodd" clip-rule="evenodd" d="M139.357 310.668C128.12 282.507 109.551 248.7 124.269 222.878C139.512 196.135 180.403 204.938 207.427 191.242C228.519 180.553 241.078 152.355 264.753 151.681C288.415 151.007 302.677 181.252 325.608 187.877C360.605 197.988 412.859 167.485 431.457 199.843C449.62 231.443 394.088 260.224 387.679 295.871C382.339 325.57 418.258 362.759 398.247 384.547C377.357 407.292 337.855 375.927 307.989 382.639C283.53 388.136 269.026 421.155 243.913 419.233C218.836 417.314 202.115 391.733 184.236 373.169C166.146 354.385 149.093 335.069 139.357 310.668Z" stroke="#7C7783"/>
<path opacity="0.54625" fill-rule="evenodd" clip-rule="evenodd" d="M143.644 310.206C133.36 281.679 115.933 247.248 131.527 221.991C147.677 195.833 188.276 206.095 215.767 193.39C237.223 183.474 250.739 155.766 274.44 155.945C298.127 156.124 311.367 186.842 334.077 194.283C368.736 205.64 422.029 177.058 439.534 210.042C456.629 242.253 400.116 268.996 392.499 304.365C386.152 333.832 420.817 372.263 400.065 393.303C378.403 415.266 339.958 382.521 309.861 388.149C285.212 392.759 269.589 425.211 244.538 422.388C219.523 419.569 203.665 393.42 186.413 374.238C168.957 354.829 152.556 334.925 143.644 310.206Z" stroke="#7C7783"/>
<path opacity="0.505" fill-rule="evenodd" clip-rule="evenodd" d="M147.948 309.899C138.629 281.04 122.365 246.029 138.817 221.367C155.855 195.825 196.111 207.534 224.036 195.836C245.83 186.705 260.286 159.521 283.983 160.552C307.668 161.583 319.869 192.736 342.33 200.985C376.609 213.573 430.876 186.948 447.266 220.517C463.273 253.301 405.848 277.974 397.032 313.021C389.687 342.221 423.054 381.848 401.588 402.112C379.179 423.265 341.838 389.181 311.547 393.719C286.739 397.435 270.015 429.282 245.056 425.561C220.133 421.846 205.159 395.161 188.554 375.384C171.753 355.373 156.024 334.905 147.948 309.899Z" stroke="#7C7783"/>
<path opacity="0.46375" fill-rule="evenodd" clip-rule="evenodd" d="M152.263 309.747C143.92 280.592 128.84 245.042 146.128 221.006C164.033 196.111 203.898 209.253 232.222 198.575C254.329 190.242 269.707 163.614 293.372 165.497C317.025 167.379 328.173 198.929 350.357 207.975C384.214 221.78 439.39 197.143 454.645 231.257C469.544 264.573 411.276 287.147 401.272 321.829C392.938 350.725 424.967 391.499 402.812 410.964C379.684 431.283 343.493 395.9 313.044 399.342C288.107 402.161 270.303 433.362 245.467 428.748C220.667 424.141 206.594 396.954 190.657 376.606C174.532 356.016 159.493 335.011 152.263 309.747Z" stroke="#7C7783"/>
<path opacity="0.4225" fill-rule="evenodd" clip-rule="evenodd" d="M156.584 309.751C149.226 280.335 135.348 244.29 153.453 220.908C172.203 196.691 211.628 211.25 240.317 201.606C262.709 194.079 278.99 168.041 302.595 170.773C326.187 173.503 336.268 205.412 358.149 215.244C391.542 230.249 447.559 207.631 461.662 242.248C475.434 276.055 416.394 296.502 405.215 330.777C395.901 359.335 426.554 401.207 403.737 419.848C379.918 439.307 344.92 402.67 314.351 405.011C289.316 406.929 270.452 437.448 245.769 431.946C221.122 426.453 207.969 398.796 192.719 377.901C177.288 356.759 162.959 335.241 156.584 309.751Z" stroke="#7C7783"/>
<path opacity="0.38125" fill-rule="evenodd" clip-rule="evenodd" d="M160.905 309.91C154.543 280.269 141.883 243.773 160.781 221.074C180.354 197.564 219.291 213.523 248.311 204.924C270.96 198.213 288.125 172.796 311.64 176.373C335.142 179.949 344.144 212.178 365.695 222.784C398.585 238.971 455.375 218.399 468.307 253.477C480.936 287.734 421.196 306.029 408.855 339.856C398.573 368.04 427.812 410.959 404.361 428.754C379.881 447.33 346.118 409.482 315.466 410.72C290.363 411.734 270.464 441.533 245.964 435.151C221.5 428.778 209.281 400.685 194.737 379.269C180.02 357.601 166.418 335.595 160.905 309.91Z" stroke="#7C7783"/>
<path opacity="0.34" fill-rule="evenodd" clip-rule="evenodd" d="M165.221 310.225C159.862 280.394 148.436 243.492 168.105 221.503C188.477 198.73 226.878 216.068 256.193 208.525C279.072 202.638 297.1 177.873 320.497 182.292C343.881 186.709 351.793 219.218 372.987 230.585C405.333 247.934 462.826 229.433 474.572 264.93C486.043 299.595 425.677 315.715 412.189 349.053C400.951 376.829 428.74 420.743 404.684 437.669C379.571 455.34 347.086 416.328 316.388 416.461C291.248 416.571 270.337 445.614 246.05 438.358C221.799 431.113 210.53 402.618 196.709 380.708C182.724 358.539 169.865 336.073 165.221 310.225Z" stroke="#7C7783"/>
<path opacity="0.29875" fill-rule="evenodd" clip-rule="evenodd" d="M169.527 310.694C165.177 280.711 155 243.447 175.416 222.196C196.561 200.186 234.38 218.883 263.954 212.405C287.035 207.349 305.904 183.266 329.154 188.521C352.392 193.774 359.204 226.524 380.016 238.639C411.778 257.128 469.905 240.721 480.451 276.593C490.75 311.624 429.83 325.55 415.211 358.358C403.031 385.692 429.337 430.547 404.705 446.585C378.991 463.328 347.823 423.2 317.116 422.228C291.969 421.432 270.072 449.684 246.028 441.564C222.019 433.456 211.713 404.594 198.632 382.216C185.396 359.573 173.296 336.675 169.527 310.694Z" stroke="#7C7783"/>
<path opacity="0.2575" fill-rule="evenodd" clip-rule="evenodd" d="M173.818 311.318C170.482 281.218 161.566 243.639 182.704 223.151C204.597 201.931 241.787 221.964 271.584 216.559C294.84 212.341 314.526 188.969 337.601 195.054C360.664 201.135 366.368 234.086 386.773 246.934C417.913 266.541 476.603 252.249 485.935 288.451C495.049 323.807 433.65 335.522 417.919 367.759C404.812 394.618 429.602 440.359 404.424 455.49C378.139 471.284 348.326 430.089 317.649 428.013C292.525 426.314 269.669 453.739 245.897 444.765C222.159 435.804 212.83 406.61 200.504 383.791C188.034 360.703 176.708 337.4 173.818 311.318Z" stroke="#7C7783"/>
<path opacity="0.21625" fill-rule="evenodd" clip-rule="evenodd" d="M178.088 312.095C175.771 281.916 168.126 244.066 189.961 224.366C212.574 203.963 249.092 225.307 279.075 220.982C302.476 217.606 322.957 194.974 345.829 201.881C368.689 208.785 373.278 241.897 393.25 255.462C423.73 276.163 482.911 264.002 491.019 300.492C498.937 336.127 437.133 345.617 420.308 377.245C406.291 403.596 429.535 450.168 403.841 464.372C377.019 479.2 348.597 436.986 317.986 433.81C292.916 431.208 269.129 457.774 245.657 447.957C222.22 438.154 213.878 408.663 202.324 385.431C190.633 361.925 180.095 338.246 178.088 312.095Z" stroke="#7C7783"/>
<path opacity="0.175" fill-rule="evenodd" clip-rule="evenodd" d="M182.332 313.025C181.037 282.803 174.672 244.729 197.177 225.841C220.484 206.28 256.283 228.909 286.417 225.669C309.936 223.14 331.185 201.275 353.826 208.996C376.455 216.713 379.923 249.945 399.439 264.211C429.222 285.981 488.822 275.966 495.695 312.698C502.408 348.571 440.275 355.824 422.377 386.804C407.465 412.615 429.136 459.961 402.958 473.221C375.63 487.064 348.634 443.884 318.126 439.611C293.142 436.11 268.452 461.785 245.31 451.136C222.202 440.503 214.857 410.751 204.088 387.135C193.192 363.24 183.454 339.213 182.332 313.025Z" stroke="#7C7783"/>
<path opacity="0.13375" fill-rule="evenodd" clip-rule="evenodd" d="M186.545 314.107C186.274 283.879 181.197 245.627 204.344 227.574C228.317 208.878 263.354 232.765 293.602 230.613C317.209 228.934 339.201 207.863 361.583 216.389C383.954 224.909 386.297 258.222 405.332 273.171C434.382 295.984 494.329 288.127 499.959 325.057C505.458 361.123 443.072 366.131 424.122 396.425C408.335 421.665 428.405 469.727 401.774 482.027C373.974 494.868 348.437 450.775 318.071 445.409C293.201 441.014 267.639 465.766 244.855 454.298C222.104 442.847 215.765 412.871 205.795 388.9C195.706 364.644 186.781 340.3 186.545 314.107Z" stroke="#7C7783"/>
<path opacity="0.0925" fill-rule="evenodd" clip-rule="evenodd" d="M190.723 315.338C191.474 285.141 187.693 246.758 211.454 229.563C236.063 211.754 270.295 236.87 300.619 235.81C324.286 234.982 346.995 214.731 369.091 224.051C391.176 233.365 392.392 266.718 410.923 282.331C439.204 306.159 499.425 300.47 503.805 337.553C508.083 373.769 445.52 376.524 425.542 406.096C408.898 430.734 427.344 479.453 400.293 490.779C372.055 502.601 348.007 457.649 317.818 451.197C293.095 445.914 266.691 469.712 244.292 457.44C221.926 445.186 216.602 415.022 207.442 390.724C198.174 366.138 190.071 341.505 190.723 315.338Z" stroke="#7C7783"/>
<path opacity="0.05125" fill-rule="evenodd" clip-rule="evenodd" d="M194.859 316.719C196.633 286.589 194.15 248.121 218.497 231.804C243.712 214.905 277.099 241.219 307.462 241.252C331.16 241.277 354.557 221.871 376.341 231.973C398.113 242.069 398.2 275.421 416.205 291.68C443.682 316.493 504.103 312.979 507.228 350.17C510.28 386.491 447.616 386.991 426.635 415.804C409.154 439.81 425.952 489.128 398.515 499.465C369.873 510.255 347.344 464.498 317.37 456.969C292.823 450.802 265.61 473.618 243.624 460.557C221.67 447.514 217.366 417.2 209.028 392.604C200.591 367.718 193.321 342.827 194.859 316.719Z" stroke="#7C7783"/>
<path opacity="0.01" fill-rule="evenodd" clip-rule="evenodd" d="M198.948 318.245C201.742 288.22 200.562 249.714 225.464 234.295C251.254 218.326 283.754 245.806 314.121 246.931C337.821 247.81 361.878 229.271 383.322 240.143C404.755 251.01 403.713 284.32 421.169 301.205C447.81 326.974 508.358 325.639 510.224 362.893C512.047 399.274 449.357 397.519 427.398 425.538C409.102 448.883 424.233 498.739 396.442 508.074C367.431 517.82 346.449 471.313 316.726 462.715C292.384 455.674 264.395 477.48 242.848 463.645C221.333 449.83 218.056 419.401 210.549 394.538C202.954 369.382 196.526 344.262 198.948 318.245Z" stroke="#7C7783"/>
</svg>
