<svg width="35" height="7" viewBox="0 0 35 7" fill="none" xmlns="http://www.w3.org/2000/svg">
<path fill-rule="evenodd" clip-rule="evenodd" d="M10.3904 5.13174L10.1147 5.54867L9.59114 6.31053C9.57264 6.33645 9.55601 6.3573 9.54167 6.37306C9.52713 6.38881 9.51163 6.40135 9.4952 6.4107C9.47859 6.41984 9.45953 6.42594 9.43782 6.42864C9.41611 6.43152 9.38986 6.43289 9.35889 6.43289H9.23503C9.15442 6.43289 9.1008 6.41577 9.07399 6.38137C9.04717 6.34714 9.03357 6.30036 9.03357 6.24102V4.53668C9.03357 4.50141 9.0553 4.48381 9.09872 4.48381H9.43007C9.45895 4.48381 9.4771 4.48754 9.48427 4.49498C9.49161 4.50244 9.4952 4.51634 9.4952 4.53668V5.78783H9.51373L9.77712 5.3985L10.3127 4.60905C10.3314 4.58294 10.3479 4.56175 10.3624 4.54497C10.3769 4.52836 10.3922 4.51531 10.4089 4.50617C10.4253 4.49685 10.444 4.49076 10.4646 4.48803C10.4853 4.48533 10.511 4.48381 10.542 4.48381H10.669C10.7455 4.48381 10.7982 4.49819 10.8271 4.52703C10.856 4.55565 10.8703 4.60616 10.8703 4.67855V6.38004C10.8703 6.41528 10.8486 6.43291 10.8054 6.43291H10.474C10.4449 6.43291 10.4264 6.42919 10.4181 6.42172C10.41 6.41425 10.4058 6.40054 10.4058 6.38002V5.13174H10.3904ZM11.753 6.37731C11.753 6.40138 11.7485 6.41662 11.7392 6.42306C11.7298 6.42967 11.7107 6.43289 11.6818 6.43289H11.3722C11.3267 6.43289 11.304 6.41425 11.304 6.37731V5.02599C11.304 4.99073 11.3267 4.97327 11.3722 4.97327H11.6818C11.7107 4.97327 11.7298 4.97649 11.7392 4.98292C11.7484 4.98936 11.753 5.00378 11.753 5.02599V5.5014H12.3322V5.02599C12.3322 4.99073 12.3549 4.97327 12.401 4.97327H12.7127C12.7416 4.97327 12.7606 4.97649 12.7689 4.98292C12.7773 4.98936 12.7814 5.00378 12.7814 5.02599V6.37731C12.7814 6.40138 12.7773 6.41662 12.7689 6.42306C12.7606 6.42967 12.7416 6.43289 12.7127 6.43289H12.401C12.3549 6.43289 12.3322 6.41425 12.3322 6.37731V5.81851H11.753V6.37731ZM13.9614 5.30122V6.37731C13.9614 6.40138 13.9567 6.41662 13.9475 6.42306C13.9382 6.42967 13.9191 6.43289 13.8903 6.43289H13.5837C13.5361 6.43289 13.5123 6.41425 13.5123 6.37731V5.30122H13.0725C13.0312 5.30122 13.0106 5.28088 13.0106 5.24005V5.03717C13.0106 5.01124 13.0142 4.99412 13.0214 4.98565C13.0285 4.97733 13.0457 4.97327 13.0725 4.97327H14.4104C14.4354 4.97327 14.4518 4.97733 14.4601 4.98565C14.4684 4.99412 14.4725 5.01124 14.4725 5.03717V5.24005C14.4725 5.28088 14.4518 5.30122 14.4104 5.30122H13.9614ZM15.318 4.937C15.5595 4.937 15.7408 4.99124 15.8616 5.0997C15.9824 5.20818 16.0429 5.36345 16.0429 5.56546C16.0429 5.66171 16.0221 5.72767 15.9808 5.76273C15.9396 5.798 15.8828 5.81563 15.8104 5.81563H15.0176C15.0197 5.87495 15.0305 5.92409 15.0501 5.96307C15.0697 6.00189 15.096 6.0334 15.129 6.05747C15.1621 6.08154 15.2008 6.09833 15.2452 6.10765C15.2895 6.11679 15.3377 6.12154 15.3892 6.12154C15.4491 6.12154 15.51 6.11493 15.572 6.10205C15.6339 6.089 15.6917 6.07238 15.7455 6.05188C15.7702 6.0446 15.7872 6.04223 15.7965 6.04494C15.8057 6.04782 15.8146 6.05662 15.8229 6.07137L15.922 6.27153C15.9303 6.28832 15.9318 6.30121 15.9265 6.31053C15.9215 6.31985 15.9107 6.32898 15.8941 6.3383C15.8178 6.38289 15.7289 6.41477 15.6277 6.43426C15.5267 6.45375 15.4326 6.46339 15.346 6.46339C15.0754 6.46339 14.8751 6.40323 14.745 6.28272C14.6149 6.16222 14.55 5.97139 14.55 5.71003C14.55 5.58767 14.5679 5.47868 14.6041 5.38327C14.6402 5.28784 14.692 5.20664 14.759 5.14004C14.826 5.07326 14.9066 5.02275 15.0004 4.98851C15.0945 4.95428 15.2004 4.937 15.318 4.937ZM15.3273 5.27071C15.2427 5.27071 15.1734 5.29748 15.1198 5.35139C15.0662 5.40512 15.0352 5.4736 15.0269 5.55698H15.6061C15.6061 5.5163 15.6014 5.47834 15.5922 5.44309C15.5828 5.40785 15.5678 5.37768 15.5472 5.35276C15.5267 5.32768 15.4987 5.30784 15.4636 5.29294C15.4285 5.27818 15.383 5.27071 15.3273 5.27071ZM16.8202 6.95271C16.8202 6.97322 16.8166 6.9861 16.8094 6.99168C16.802 6.9973 16.7841 7 16.7556 7H16.4356C16.4129 7 16.3969 6.9973 16.3865 6.99168C16.3763 6.9861 16.371 6.97322 16.371 6.95271V5.14004C16.371 5.1197 16.3746 5.10343 16.382 5.09141C16.3891 5.07939 16.4061 5.06683 16.4331 5.0538C16.532 5.01312 16.6431 4.98428 16.766 4.96768C16.8889 4.95089 17.006 4.94261 17.1175 4.94261C17.2641 4.94261 17.3875 4.96261 17.4876 5.00243C17.5879 5.04226 17.6683 5.09599 17.7293 5.16362C17.7901 5.23141 17.8341 5.31141 17.8609 5.40412C17.8877 5.49682 17.9011 5.59598 17.9011 5.70156C17.9011 5.80546 17.8867 5.90326 17.8577 5.99494C17.8288 6.08682 17.7838 6.16681 17.724 6.23544C17.6641 6.3041 17.5879 6.35831 17.4959 6.39816C17.4034 6.43798 17.2956 6.45799 17.1712 6.45799C17.1092 6.45799 17.0514 6.45563 16.9988 6.45086C16.9461 6.44628 16.8862 6.43748 16.8202 6.42461V6.95271H16.8202ZM17.4304 5.69325C17.4304 5.61733 17.4221 5.55343 17.4055 5.5014C17.3891 5.44953 17.3643 5.40785 17.3322 5.37631C17.3003 5.34477 17.2605 5.32259 17.214 5.30972C17.167 5.29667 17.1149 5.29023 17.0566 5.29023C17.0277 5.29023 16.9901 5.29293 16.9431 5.29852C16.8966 5.3041 16.8553 5.31139 16.8202 5.32073V6.07969C16.8744 6.09274 16.9223 6.10105 16.9648 6.10476C17.0077 6.10849 17.0452 6.11035 17.0788 6.11035C17.1825 6.11035 17.2667 6.07884 17.3322 6.01579C17.3978 5.95275 17.4304 5.84529 17.4304 5.69325ZM18.6909 6.37731C18.6909 6.40138 18.6864 6.41662 18.6769 6.42306C18.6677 6.42967 18.6486 6.43289 18.6197 6.43289H18.3101C18.2646 6.43289 18.2419 6.41425 18.2419 6.37731V5.02599C18.2419 4.99073 18.2646 4.97327 18.3101 4.97327H18.6197C18.6486 4.97327 18.6677 4.97649 18.6769 4.98292C18.6864 4.98936 18.6909 5.00378 18.6909 5.02599V5.5014H19.2701V5.02599C19.2701 4.99073 19.2928 4.97327 19.3389 4.97327H19.6506C19.6795 4.97327 19.6985 4.97649 19.7068 4.98292C19.7152 4.98936 19.7193 5.00378 19.7193 5.02599V6.37731C19.7193 6.40138 19.7152 6.41662 19.7068 6.42306C19.6985 6.42967 19.6795 6.43289 19.6506 6.43289H19.3389C19.2928 6.43289 19.2701 6.41425 19.2701 6.37731V5.81851H18.6909V6.37731ZM20.825 4.937C21.0666 4.937 21.2477 4.99124 21.3685 5.0997C21.4894 5.20818 21.5498 5.36345 21.5498 5.56546C21.5498 5.66171 21.529 5.72767 21.4879 5.76273C21.4465 5.798 21.3897 5.81563 21.3174 5.81563H20.5246C20.5266 5.87495 20.5374 5.92409 20.557 5.96307C20.5767 6.00189 20.6029 6.0334 20.636 6.05747C20.669 6.08154 20.7077 6.09833 20.7521 6.10765C20.7966 6.11679 20.8446 6.12154 20.8962 6.12154C20.956 6.12154 21.017 6.11493 21.0789 6.10205C21.1408 6.089 21.1986 6.07238 21.2524 6.05188C21.2772 6.0446 21.2941 6.04223 21.3034 6.04494C21.3128 6.04782 21.3215 6.05662 21.3298 6.07137L21.429 6.27153C21.4373 6.28832 21.4388 6.30121 21.4337 6.31053C21.4284 6.31985 21.4176 6.32898 21.401 6.3383C21.3247 6.38289 21.2358 6.41477 21.1346 6.43426C21.0336 6.45375 20.9396 6.46339 20.8529 6.46339C20.5824 6.46339 20.382 6.40323 20.2519 6.28272C20.1218 6.16222 20.0569 5.97139 20.0569 5.71003C20.0569 5.58767 20.0748 5.47868 20.1111 5.38327C20.1471 5.28784 20.1989 5.20664 20.2659 5.14004C20.3329 5.07326 20.4136 5.02275 20.5076 4.98851C20.6014 4.95428 20.7073 4.937 20.825 4.937H20.825ZM20.8342 5.27071C20.7496 5.27071 20.6805 5.29748 20.6267 5.35139C20.5731 5.40512 20.5421 5.4736 20.5338 5.55698H21.1131C21.1131 5.5163 21.1084 5.47834 21.0991 5.44309C21.0897 5.40785 21.0748 5.37768 21.0542 5.35276C21.0336 5.32768 21.0056 5.30784 20.9705 5.29294C20.9354 5.27818 20.8899 5.27071 20.8342 5.27071ZM22.6585 5.30122V6.37731C22.6585 6.40138 22.6539 6.41662 22.6447 6.42306C22.6352 6.42967 22.6162 6.43289 22.5873 6.43289H22.2807C22.2331 6.43289 22.2095 6.41425 22.2095 6.37731V5.30122H21.7695C21.7284 5.30122 21.7076 5.28088 21.7076 5.24005V5.03717C21.7076 5.01124 21.7112 4.99412 21.7186 4.98565C21.7258 4.97733 21.7427 4.97327 21.7695 4.97327H23.1076C23.1324 4.97327 23.149 4.97733 23.1573 4.98565C23.1654 4.99412 23.1696 5.01124 23.1696 5.03717V5.24005C23.1696 5.28088 23.149 5.30122 23.1076 5.30122H22.6585ZM25.2138 6.38002C25.2138 6.40054 25.2096 6.41425 25.2013 6.42172C25.1932 6.42916 25.1745 6.43289 25.1456 6.43289H24.808C24.7646 6.43289 24.7431 6.41529 24.7431 6.38002V4.85361H23.9067V6.38002C23.9067 6.40054 23.9025 6.41425 23.8944 6.42172C23.8861 6.42919 23.8676 6.43291 23.8385 6.43291H23.4979C23.4545 6.43291 23.433 6.41528 23.433 6.38004V4.67294C23.433 4.60804 23.4479 4.56024 23.4777 4.52973C23.5077 4.49923 23.5589 4.48381 23.631 4.48381H25.0156C25.0899 4.48381 25.1415 4.49923 25.1703 4.52973C25.1994 4.56024 25.2138 4.60804 25.2138 4.67294V6.38004V6.38002ZM27.0257 6.25206C27.0257 6.27629 27.022 6.29663 27.0148 6.31342C27.0076 6.33002 26.9895 6.34578 26.9606 6.36053C26.9132 6.38105 26.8626 6.39765 26.8079 6.4107C26.7531 6.42357 26.6974 6.43374 26.6412 6.44121C26.5843 6.44867 26.5269 6.45426 26.4692 6.45799C26.4119 6.46155 26.3572 6.46339 26.3055 6.46339C26.1658 6.46339 26.0494 6.45137 25.9577 6.4273C25.8663 6.40323 25.7925 6.37036 25.7368 6.32868C25.6814 6.28698 25.6422 6.23783 25.6195 6.18122C25.5969 6.12479 25.5856 6.06394 25.5856 5.99919C25.5856 5.92682 25.5989 5.86053 25.6258 5.80037C25.6526 5.74005 25.6928 5.68784 25.7466 5.64325C25.8002 5.59869 25.8678 5.56394 25.9494 5.53902C26.0309 5.51395 26.1274 5.5014 26.239 5.5014H26.5796V5.45699C26.5796 5.43107 26.5766 5.40597 26.5704 5.3819C26.5641 5.35783 26.5513 5.33701 26.5317 5.31937C26.512 5.30174 26.4846 5.28734 26.4495 5.27632C26.4146 5.26512 26.368 5.25954 26.3102 5.25954C26.2792 5.25954 26.2441 5.26091 26.2048 5.26379C26.1657 5.2665 26.1265 5.27022 26.0872 5.2748C26.0479 5.27954 26.0098 5.28498 25.9726 5.29157C25.9354 5.298 25.9024 5.30495 25.8735 5.31241C25.8467 5.318 25.828 5.318 25.8178 5.31241C25.8074 5.30683 25.8002 5.29478 25.7961 5.27632L25.7466 5.08157C25.7404 5.06124 25.7398 5.04685 25.7449 5.03853C25.7502 5.03024 25.7609 5.02329 25.7775 5.01768C25.8704 4.98802 25.9681 4.96668 26.0702 4.95378C26.1723 4.94075 26.2741 4.93429 26.3753 4.93429C26.5998 4.93429 26.7644 4.97734 26.8687 5.06363C26.9735 5.14972 27.0257 5.27717 27.0257 5.44582V6.25206ZM26.5766 5.77123H26.3319C26.303 5.77123 26.2721 5.77307 26.239 5.77663C26.206 5.78036 26.1756 5.78919 26.1476 5.80309C26.1197 5.817 26.0964 5.83697 26.0779 5.86292C26.0593 5.88884 26.05 5.92409 26.05 5.9685C26.05 6.03342 26.0744 6.07884 26.1229 6.10479C26.1714 6.13071 26.2369 6.14377 26.3194 6.14377C26.3319 6.14377 26.3483 6.14325 26.3691 6.1424C26.3897 6.1414 26.412 6.13951 26.4358 6.13681C26.4593 6.13393 26.4837 6.1302 26.5084 6.12562C26.5332 6.12106 26.556 6.11495 26.5766 6.10767V5.77123ZM27.8805 6.95271C27.8805 6.97322 27.8769 6.9861 27.8697 6.99168C27.8623 6.9973 27.8444 7 27.8159 7H27.4959C27.4732 7 27.4572 6.9973 27.447 6.99168C27.4366 6.9861 27.4315 6.97322 27.4315 6.95271V5.14004C27.4315 5.1197 27.4351 5.10343 27.4423 5.09141C27.4494 5.07939 27.4664 5.06683 27.4934 5.0538C27.5923 5.01312 27.7034 4.98428 27.8263 4.96768C27.9492 4.95089 28.0663 4.94261 28.1779 4.94261C28.3244 4.94261 28.4479 4.96261 28.5479 5.00243C28.6482 5.04226 28.7286 5.09599 28.7896 5.16362C28.8504 5.23141 28.8944 5.31141 28.9212 5.40412C28.948 5.49682 28.9614 5.59598 28.9614 5.70156C28.9614 5.80546 28.947 5.90326 28.9181 5.99494C28.8893 6.08682 28.8443 6.16681 28.7845 6.23544C28.7244 6.3041 28.6482 6.35831 28.5562 6.39816C28.4639 6.43798 28.3559 6.45799 28.2315 6.45799C28.1695 6.45799 28.1118 6.45563 28.0591 6.45086C28.0064 6.44628 27.9465 6.43748 27.8805 6.42461V6.95271ZM28.4907 5.69325C28.4907 5.61733 28.4824 5.55343 28.466 5.5014C28.4494 5.44953 28.4246 5.40785 28.3925 5.37631C28.3606 5.34477 28.3208 5.32259 28.2744 5.30972C28.2273 5.29667 28.1752 5.29023 28.1169 5.29023C28.088 5.29023 28.0504 5.29293 28.0034 5.29852C27.9569 5.3041 27.9156 5.31139 27.8805 5.32073V6.07969C27.9346 6.09274 27.9826 6.10105 28.0251 6.10476C28.0679 6.10849 28.1055 6.11035 28.1392 6.11035C28.243 6.11035 28.327 6.07884 28.3925 6.01579C28.4582 5.95275 28.4907 5.84529 28.4907 5.69325H28.4907ZM30.8043 5.69613C30.8043 5.94069 30.7392 6.12986 30.6091 6.26324C30.4792 6.39679 30.281 6.46339 30.0146 6.46339C29.7461 6.46339 29.5499 6.39679 29.4261 6.26324C29.3022 6.12986 29.2403 5.94257 29.2403 5.70156C29.2403 5.58308 29.2582 5.47597 29.2945 5.38053C29.3305 5.28495 29.3822 5.20497 29.4493 5.14004C29.5163 5.07514 29.5979 5.02512 29.694 4.98987C29.7901 4.95463 29.8988 4.937 30.0208 4.937C30.281 4.937 30.4766 5.0043 30.6076 5.1387C30.7388 5.27293 30.8043 5.45885 30.8043 5.69613ZM30.3367 5.70444C30.3367 5.6414 30.3316 5.58393 30.3212 5.53206C30.3108 5.48021 30.2932 5.43563 30.2685 5.3985C30.2438 5.36156 30.2117 5.33224 30.1724 5.31106C30.1333 5.28969 30.0848 5.27903 30.0268 5.27903C29.9175 5.27903 29.8365 5.31664 29.7838 5.39156C29.7312 5.46665 29.7047 5.56815 29.7047 5.69613C29.7047 5.83509 29.7291 5.94069 29.7776 6.01306C29.8261 6.08527 29.9062 6.12154 30.0176 6.12154C30.0753 6.12154 30.1244 6.11086 30.1647 6.08949C30.2051 6.06815 30.2381 6.0385 30.2638 6.00053C30.2897 5.96256 30.3083 5.91847 30.3197 5.86848C30.331 5.81849 30.3367 5.76376 30.3367 5.70442V5.70444ZM32.4026 4.97327C32.4748 4.97327 32.5238 4.98666 32.5497 5.01343C32.5756 5.04039 32.5884 5.08343 32.5884 5.14277V6.38002C32.5884 6.40223 32.5837 6.41662 32.5744 6.42306C32.5652 6.42967 32.5461 6.43289 32.5172 6.43289H32.2044C32.1755 6.43289 32.1562 6.42864 32.147 6.42035C32.1377 6.41204 32.133 6.39765 32.133 6.37731V5.30122H31.7522L31.7427 5.4458C31.7325 5.60716 31.7191 5.74612 31.7025 5.86292C31.6861 5.97969 31.6582 6.07935 31.6189 6.16189C31.5798 6.24427 31.5239 6.31156 31.4518 6.3634C31.3795 6.41528 31.2834 6.45799 31.1636 6.4912C31.1348 6.50052 31.114 6.50189 31.1017 6.49545C31.0893 6.48902 31.0789 6.47645 31.0708 6.45799L30.9871 6.26883C30.9767 6.24476 30.9731 6.22766 30.9762 6.21731C30.9794 6.20714 30.9943 6.19561 31.0211 6.18274C31.0768 6.16036 31.1218 6.13545 31.1559 6.10765C31.1899 6.07969 31.2179 6.03986 31.2396 5.98799C31.2613 5.93614 31.2783 5.86715 31.2906 5.78088C31.303 5.69479 31.3143 5.58123 31.3247 5.44021L31.3464 5.13719C31.3506 5.07617 31.3664 5.03346 31.3944 5.00939C31.4223 4.98532 31.4703 4.97327 31.5385 4.97327H32.4026H32.4026ZM33.1861 6.43289C33.1057 6.43289 33.053 6.41848 33.0281 6.38985C33.0034 6.36104 32.9911 6.32171 32.9911 6.27153V5.02596C32.9911 4.99072 33.0138 4.97327 33.0591 4.97327H33.3689C33.3978 4.97327 33.4169 4.97649 33.4261 4.98292C33.4356 4.98936 33.4401 5.00377 33.4401 5.02596V5.4292H33.8241C33.975 5.4292 34.0941 5.44816 34.1819 5.48613C34.2697 5.52411 34.3362 5.57004 34.3817 5.62376C34.4272 5.67749 34.4555 5.73274 34.4668 5.78917C34.4782 5.84578 34.4838 5.89256 34.4838 5.92968C34.4838 6.00189 34.4683 6.06867 34.4374 6.12984C34.4064 6.19103 34.3636 6.24373 34.309 6.28831C34.2542 6.33272 34.1896 6.36797 34.1153 6.39391C34.0411 6.41984 33.9605 6.43289 33.8738 6.43289H33.1861ZM34.0224 5.92409C34.0224 5.87222 34.0045 5.82817 33.9682 5.79205C33.9321 5.75581 33.8779 5.73783 33.8056 5.73783H33.4401V6.11596H33.8024C33.8459 6.11596 33.8819 6.10934 33.911 6.09644C33.9399 6.08342 33.9625 6.0673 33.979 6.04781C33.9956 6.02832 34.0069 6.00747 34.0131 5.98528C34.0194 5.96307 34.0224 5.94257 34.0224 5.92409ZM11.4388 2.58775C11.4492 2.88874 11.1843 3.10605 10.8492 3.10605H9.96799V2.09133H10.8552C11.1682 2.09133 11.4284 2.2869 11.4388 2.58775ZM33.28 0.722014V3.74432C33.28 3.79637 33.2286 3.83161 33.1705 3.83161H32.4655C32.4096 3.83161 32.3562 3.795 32.3562 3.74432V0.722014H31.2501C31.1937 0.722014 31.1529 0.6739 31.1529 0.623725V0.10543C31.1529 0.0532217 31.1922 0.00729193 31.2501 0.00729193C32.3014 0.00729193 33.3529 0.00729193 34.4041 0.00729193C34.4621 0.00729193 34.5016 0.0532217 34.5016 0.10543V0.623725C34.5016 0.6739 34.4606 0.722014 34.4041 0.722014H33.28ZM15.6243 3.70618V3.204C15.6243 3.16672 15.5929 3.11145 15.5212 3.11145H13.8703C13.7695 3.11145 13.5701 3.04874 13.5701 2.81893V2.0913H15.325C15.3985 2.0913 15.4296 2.03521 15.4296 2.00215V1.49098C15.4296 1.43743 15.3881 1.39846 15.3143 1.39846H13.5701V0.990655C13.5701 0.81727 13.7304 0.722014 13.8703 0.722014H15.5163C15.5933 0.722014 15.6243 0.668804 15.6243 0.629648V0.0998389C15.6243 0.047476 15.5805 0.00765235 15.5087 0.00729193L13.7948 1.12677e-05C13.1509 -0.00269183 12.6462 0.48136 12.6462 1.0166V2.82773C12.6462 3.38315 13.1688 3.83161 13.7706 3.83161H15.5195C15.5814 3.83161 15.6228 3.79075 15.6243 3.73924C15.6244 3.72992 15.6243 3.7172 15.6243 3.70618ZM22.6167 1.79675V1.76945C22.7474 1.69861 22.8567 1.60572 22.9428 1.49217C23.0299 1.37846 23.0939 1.24387 23.1333 1.08931L23.4127 0.115446C23.4232 0.0722222 23.3907 0.00729193 23.3112 0.00729193H22.6469C22.6247 0.00644239 22.6015 0.0100192 22.5771 0.0191582C22.5529 0.0272933 22.5358 0.049155 22.5256 0.0837289L22.252 1.00203C22.2195 1.11388 22.1761 1.20304 22.1223 1.26846C22.0686 1.3349 22.009 1.38387 21.9431 1.41574C21.8783 1.44761 21.8115 1.46846 21.7446 1.47845C21.6767 1.48759 21.6129 1.49216 21.5532 1.49116H21.0731V0.0981394C21.0731 0.039495 21.0179 0.00729193 20.9717 0.00729193H20.2587C20.1983 0.00729193 20.1492 0.0464486 20.1492 0.0945895V3.74432C20.1492 3.795 20.2026 3.83161 20.2587 3.83161H20.9638C21.0219 3.83161 21.0731 3.79637 21.0731 3.74432V2.12403H21.5653C21.7061 2.12217 21.8256 2.13403 21.9229 2.15944C22.0201 2.18403 22.1011 2.22944 22.1661 2.29589C22.2297 2.36233 22.2835 2.45774 22.3249 2.58231L22.6992 3.76602C22.7198 3.81467 22.7572 3.83161 22.7961 3.83161H23.5015C23.5906 3.83535 23.6169 3.75839 23.6072 3.72263L23.2306 2.45689C23.2071 2.37505 23.1809 2.30047 23.1535 2.23403C23.1252 2.16674 23.0897 2.10675 23.0461 2.05318C23.0036 1.99945 22.9468 1.95131 22.8781 1.9086C22.8091 1.86674 22.7219 1.82947 22.6167 1.79675ZM25.1747 2.35876L25.4056 1.66759L25.6367 0.889298H25.6732L25.898 1.66759L26.1289 2.35876H25.1747ZM26.3476 3.03502L26.5847 3.74432C26.6049 3.8094 26.6438 3.83161 26.6895 3.83161H27.4583C27.5303 3.83128 27.5771 3.77721 27.5593 3.71262L26.299 0.306433C26.2394 0.140514 26.1508 0.00729193 25.936 0.00729193L25.3903 0.00847856C25.2817 0.00237728 25.1868 0.0354295 25.1129 0.122727C25.0754 0.167135 25.0431 0.227296 25.0167 0.306433L23.7573 3.70822C23.7292 3.78399 23.8 3.83161 23.8561 3.83161H24.5952C24.6188 3.83161 24.6693 3.83449 24.7006 3.77518C24.7074 3.76195 24.7146 3.7433 24.7189 3.72788L24.9559 3.03502H26.3476ZM30.1331 1.22286C30.1328 1.48964 29.8962 1.72404 29.5752 1.72371L28.7471 1.72285V0.722014H29.5371C29.8952 0.712025 30.1335 0.955924 30.1332 1.22286H30.1331ZM28.7471 3.71702V2.43843H29.757C30.4556 2.43843 31.11 1.92556 31.0991 1.20201C31.0991 1.02847 31.0502 0.865072 30.9792 0.722014C30.8117 0.385259 30.5058 0.160188 30.1447 0.0612031C29.9968 0.0208625 29.8356 0.00847615 29.677 0.00729193H28.135C27.9711 0.00729193 27.8338 0.108823 27.8267 0.269336C27.8255 0.291707 27.8229 0.315261 27.8233 0.34V3.73924C27.8233 3.79211 27.8673 3.83128 27.9279 3.83161H28.6453C28.6825 3.83161 28.7182 3.81161 28.7348 3.78247C28.745 3.76432 28.7471 3.74331 28.7471 3.71702ZM9.34435 3.83161H10.9404C11.7294 3.85635 12.3734 3.36518 12.3989 2.63146C12.4 2.56859 12.404 2.49368 12.3847 2.4113C12.245 1.81098 11.7166 1.39843 11.0433 1.39843H9.96799V0.716584H11.8034C11.8727 0.717948 11.9144 0.673388 11.9127 0.612864V0.127282C11.9142 0.0608632 11.8867 0.00577305 11.8034 0.00729193H9.36646C9.11722 0.00729193 9.04414 0.171175 9.04414 0.276596V3.56261C9.04414 3.71041 9.17406 3.83161 9.34435 3.83161ZM16.6319 0.372884L16.5772 1.20201C16.5589 1.48488 16.5387 1.72945 16.5175 1.93862C16.4839 2.28369 16.445 3.11145 15.9469 3.11145C15.9411 3.11145 15.9343 3.11163 15.9273 3.11145C15.8824 3.11112 15.8253 3.14535 15.8253 3.20078V3.70618C15.8253 3.71687 15.8253 3.72382 15.8253 3.73314C15.8253 3.79161 15.8693 3.83161 15.9284 3.83161C15.9371 3.83161 15.9643 3.83161 15.9728 3.83161C16.3481 3.83027 16.6774 3.79467 16.961 3.40975C17.0501 3.28891 17.1283 3.15331 17.184 2.9996C17.2407 2.84603 17.2852 2.67316 17.3177 2.48317C17.3502 2.29318 17.3764 2.08402 17.3977 1.85487C17.4179 1.62676 17.4382 1.37846 17.4583 1.10931L17.4827 0.727444H18.6679V3.7394C18.6679 3.79024 18.7167 3.83635 18.7772 3.83161H19.4816C19.5547 3.83161 19.5917 3.78635 19.5917 3.73347V0.276777C19.5922 0.133384 19.4586 0.00729193 19.2701 0.00729193H16.9386C16.7594 0.00729193 16.6531 0.147985 16.6453 0.264579C16.6433 0.297814 16.6344 0.333393 16.632 0.372884H16.6319ZM5.2716 4.80429H4.41349C4.38874 4.80429 4.36834 4.78617 4.36834 4.76395V4.57329L3.72263 5.15293C3.70508 5.16869 3.67638 5.16869 3.65882 5.15293L3.05199 4.60838C3.03461 4.5926 3.03461 4.56685 3.05199 4.55107L3.20228 4.41633H2.28883C2.26411 4.41633 2.24388 4.39802 2.24388 4.37583V3.6055C2.24388 3.58331 2.26411 3.565 2.28883 3.565H2.50125L1.85552 2.98536C1.83797 2.96958 1.83797 2.94384 1.85552 2.92806L2.46236 2.38331C2.47971 2.36774 2.50841 2.36774 2.52596 2.38331L2.67628 2.51824V1.69843C2.67628 1.67606 2.69645 1.65791 2.7212 1.65791H3.57933C3.60408 1.65791 3.62445 1.67606 3.62445 1.69843V1.88911L4.27019 1.30928C4.28774 1.29353 4.31645 1.29353 4.334 1.30928L4.94083 1.85403C4.95819 1.86978 4.95819 1.89537 4.94083 1.91113L4.79052 2.04605H5.70379C5.72871 2.04605 5.74891 2.06417 5.74891 2.08657V2.85687C5.74891 2.87909 5.72871 2.89721 5.70379 2.89721H5.49157L6.13728 3.47686C6.15486 3.49262 6.15486 3.51839 6.13728 3.53414L5.53049 4.07887C5.51311 4.09463 5.48439 4.09463 5.46684 4.07887L5.31654 3.94396V4.76395C5.31654 4.78614 5.29634 4.80429 5.27162 4.80429H5.2716ZM1.19999 0.000524132H6.79285C7.23427 0.000524132 7.59526 0.324589 7.59526 0.720837V5.74139C7.59526 6.13764 7.23427 6.46187 6.79285 6.46187H1.19999C0.758548 6.46187 0.397583 6.13766 0.397583 5.74139V0.720837C0.397583 0.324589 0.758548 0.000524132 1.19999 0.000524132ZM5.16117 2.6579L4.82583 2.89721H4.41349C4.38874 2.89721 4.36834 2.87909 4.36834 2.8569V2.08657L4.31984 2.46843L4.0283 2.73029C4.01075 2.74605 3.98205 2.74605 3.96449 2.73029L3.62445 2.42505L3.35768 2.18555L3.62445 2.48655V2.85672C3.62445 2.87909 3.60408 2.89723 3.57933 2.89723H2.7212L3.14696 2.9408L3.43849 3.20248C3.45605 3.21823 3.45605 3.24398 3.43849 3.25976L2.83166 3.8045L3.16699 3.565H3.57933C3.60408 3.565 3.62445 3.58331 3.62445 3.6055V4.37583L3.67298 3.9938L3.96449 3.73196C3.98205 3.71618 4.01075 3.71618 4.0283 3.73196L4.63514 4.27667L4.36834 3.97567V3.6055C4.36834 3.58331 4.38874 3.565 4.41349 3.565H5.27142H5.2716L4.84604 3.52145L4.55433 3.25976C4.53678 3.24398 4.53678 3.21824 4.55433 3.20246L4.89437 2.89721L5.16117 2.6579Z" fill="#7C7783"/>
</svg>
