<svg width="15" height="15" viewBox="0 0 15 15" fill="none" xmlns="http://www.w3.org/2000/svg">
<path fill-rule="evenodd" clip-rule="evenodd" d="M10.9878 4.25893L9.20443 5.95923C9.15265 6.00848 9.15265 6.08906 9.20443 6.13828L10.079 6.97212L11.3054 7.0955H8.7834C8.71041 7.0955 8.65062 7.15251 8.65062 7.22209V8.35146L9.4451 9.31476L7.66178 7.61449C7.61019 7.56529 7.52577 7.56529 7.47419 7.61449L6.62343 8.42563L6.46509 9.63069V7.22609C6.46509 7.15648 6.40527 7.09948 6.33228 7.09948H5.05843L4.11891 7.83062L5.90222 6.1303C5.95383 6.0811 5.95383 6.00047 5.90222 5.95128L5.00938 5.09996L3.79949 4.9902H6.32169C6.39465 4.9902 6.45432 4.93336 6.45432 4.8636V3.71526L5.66803 2.77353L7.45151 4.47399C7.50312 4.52318 7.5877 4.52318 7.63925 4.47399L8.51588 3.638L8.64548 2.45884V4.86346C8.64548 4.93304 8.7051 4.99008 8.77808 4.99008H10.0338L10.9878 4.25893ZM11.8869 8.69585C11.9385 8.74507 12.0229 8.74507 12.0747 8.69585L13.858 6.99558C13.9096 6.9462 13.9096 6.86575 13.858 6.81651L11.1755 4.25893L12.5719 4.99008C12.6449 4.99008 12.7045 4.93304 12.7045 4.86346V2.45884C12.7045 2.38926 12.6449 2.33239 12.5719 2.33239H8.77808L10.3218 1.91625C10.3733 1.86703 10.3733 1.78655 10.3218 1.73735L8.53825 0.0368959C8.48663 -0.0122986 8.40223 -0.0122986 8.35062 0.0368959L5.64375 2.62713L5.64311 2.62787H5.64296L5.64423 2.6256L5.64856 2.61823L6.45432 1.24657C6.45432 1.17699 6.39465 1.12008 6.32169 1.12008H3.79949C3.7265 1.12008 3.66686 1.17699 3.66686 1.24657V4.8636L3.21979 3.3937C3.16801 3.34447 3.08361 3.34447 3.03203 3.3937L1.24868 5.094C1.19693 5.14319 1.19693 5.22383 1.24868 5.27302L3.93115 7.83062L2.53864 7.09948C2.46565 7.09948 2.40599 7.15648 2.40599 7.22609V9.63069C2.40599 9.70029 2.46565 9.75714 2.53864 9.75714H6.33228L4.79154 10.1721C4.73993 10.2213 4.73993 10.3019 4.79154 10.3511L6.57502 12.0514C6.62663 12.1006 6.71105 12.1006 6.76263 12.0514L9.43418 9.50423L8.65062 10.8391C8.65062 10.9087 8.71041 10.9657 8.7834 10.9657H11.3054C11.3784 10.9657 11.4382 10.9087 11.4382 10.8391V7.22209L11.8869 8.69585ZM4.7147 12.9469L4.68455 13.4391C4.67451 13.6069 4.66335 13.752 4.65157 13.8762C4.63309 14.081 4.61171 14.5722 4.33687 14.5722C4.33366 14.5722 4.32987 14.5722 4.32601 14.5722C4.30132 14.5719 4.26989 14.5923 4.26989 14.6251V14.9251C4.26989 14.9314 4.26989 14.9356 4.26989 14.9411C4.26989 14.9758 4.29397 14.9995 4.32665 14.9995C4.33143 14.9995 4.34643 14.9995 4.35122 14.9995C4.55814 14.9987 4.73986 14.9776 4.89626 14.7491C4.94537 14.6776 4.98842 14.597 5.01916 14.5057C5.05041 14.4146 5.07496 14.3121 5.09299 14.1994C5.11085 14.0866 5.12538 13.9624 5.13713 13.8265C5.14833 13.691 5.15946 13.5438 5.17062 13.384L5.18405 13.1574H5.83766V14.9448C5.83766 14.975 5.86477 15.0024 5.89807 14.9995H6.28658C6.32708 14.9995 6.34731 14.9727 6.34731 14.9413V12.89C6.34765 12.805 6.27401 12.73 6.17005 12.73H4.88383C4.78499 12.73 4.72645 12.8134 4.72215 12.8827C4.72091 12.9024 4.71594 12.9235 4.7147 12.9469ZM0.694709 14.9995H1.57502C2.01024 15.0143 2.36559 14.7227 2.3798 14.2873C2.38027 14.25 2.38249 14.2055 2.3718 14.1567C2.29482 13.8005 2.00324 13.5555 1.63178 13.5555H1.03872V13.1509H2.05105C2.08947 13.1518 2.11244 13.1253 2.11146 13.0895V12.8012C2.11227 12.7618 2.09712 12.7291 2.05105 12.73H0.70697C0.569379 12.73 0.529053 12.8273 0.529053 12.89V14.84C0.529053 14.9277 0.600769 14.9995 0.694709 14.9995ZM11.3978 14.9316V14.1727H11.9548C12.3401 14.1727 12.7012 13.8684 12.695 13.4391C12.695 13.336 12.6682 13.2391 12.629 13.1541C12.5365 12.9543 12.3679 12.8206 12.1686 12.762C12.0871 12.738 11.9982 12.7307 11.9107 12.73H11.0601C10.9696 12.73 10.8939 12.7903 10.8899 12.8856C10.8894 12.8987 10.8879 12.9127 10.8881 12.9275V14.9447C10.8881 14.9761 10.9124 14.9994 10.9458 14.9995H11.3415C11.3621 14.9995 11.3817 14.9876 11.3909 14.9704C11.3965 14.9596 11.3978 14.9471 11.3978 14.9316ZM12.1622 13.4514C12.162 13.6097 12.0317 13.7487 11.8545 13.7485L11.3978 13.7481V13.1541H11.8335C12.031 13.1483 12.1625 13.293 12.1622 13.4514ZM10.0741 14.5269L10.2048 14.9478C10.216 14.9864 10.2374 14.9995 10.2626 14.9995H10.6868C10.7265 14.9994 10.7523 14.9673 10.7426 14.929L10.0473 12.9077C10.0145 12.8091 9.96554 12.73 9.84693 12.73L9.54596 12.7307C9.48617 12.727 9.43371 12.7467 9.39307 12.7986C9.37234 12.8248 9.35447 12.8607 9.33998 12.9077L8.64519 14.9264C8.62975 14.9713 8.66882 14.9995 8.69973 14.9995H9.10753C9.12047 14.9995 9.14834 15.0013 9.16558 14.9661C9.16941 14.9582 9.17321 14.9471 9.17562 14.938L9.30634 14.5269H10.0741ZM9.42717 14.1255L9.55453 13.7153L9.68191 13.2534H9.70199L9.82606 13.7153L9.95343 14.1255H9.42717ZM8.01596 13.792V13.7758C8.08802 13.7336 8.14844 13.6787 8.19597 13.6112C8.24395 13.5438 8.27917 13.4639 8.301 13.3721L8.45519 12.7942C8.46092 12.7685 8.44292 12.73 8.39904 12.73H8.03271C8.02044 12.7295 8.00767 12.7317 7.99414 12.7371C7.9809 12.7418 7.97132 12.7549 7.96575 12.7754L7.81493 13.3204C7.79693 13.3866 7.773 13.4396 7.74338 13.4784C7.71371 13.5179 7.6807 13.547 7.6445 13.5658C7.60864 13.5847 7.57186 13.5972 7.53501 13.6031C7.49755 13.6085 7.46234 13.6112 7.42932 13.6106H7.16454V12.784C7.16454 12.7491 7.13406 12.73 7.10858 12.73H6.71525C6.68195 12.73 6.65503 12.7532 6.65503 12.7819V14.9478C6.65503 14.9778 6.68434 14.9995 6.71525 14.9995H7.10427C7.1363 14.9995 7.16454 14.9785 7.16454 14.9478V13.9861H7.43602C7.51368 13.985 7.57965 13.9921 7.63334 14.0072C7.68692 14.0218 7.73156 14.0488 7.76745 14.0882C7.80266 14.1276 7.83217 14.1843 7.85512 14.2582L8.06156 14.9607C8.07289 14.9895 8.09346 14.9995 8.11497 14.9995H8.50412C8.55323 15.0018 8.56772 14.9561 8.56246 14.9348L8.35457 14.1836C8.34183 14.1352 8.32715 14.0908 8.31218 14.0516C8.29652 14.0115 8.27695 13.976 8.25301 13.9441C8.22944 13.9122 8.1982 13.8837 8.16026 13.8584C8.12215 13.8335 8.07416 13.8114 8.01596 13.792ZM4.15877 14.9251V14.627C4.15877 14.6049 4.14156 14.5722 4.10204 14.5722H3.19125C3.13578 14.5722 3.02579 14.535 3.02579 14.3986V13.9669H3.99378C4.03425 13.9669 4.0515 13.9335 4.0515 13.9138V13.6105C4.0515 13.5787 4.0287 13.5555 3.98789 13.5555H3.02579V13.3135C3.02579 13.2106 3.11407 13.1541 3.19125 13.1541H4.09931C4.14173 13.1541 4.15877 13.1226 4.15877 13.0993V12.7849C4.15877 12.7538 4.1347 12.7301 4.09518 12.73L3.14961 12.7256C2.79444 12.7241 2.51607 13.0114 2.51607 13.329V14.4038C2.51607 14.7335 2.80449 14.9995 3.1364 14.9995H4.10109C4.13521 14.9995 4.15799 14.9753 4.15877 14.9447C4.15894 14.9391 4.15877 14.9317 4.15877 14.9251ZM13.8982 13.1541V14.9478C13.8982 14.9785 13.8698 14.9995 13.8377 14.9995H13.4489C13.418 14.9995 13.3885 14.9778 13.3885 14.9478V13.1541H12.7784C12.7473 13.1541 12.7248 13.1256 12.7248 13.0959V12.7883C12.7248 12.7574 12.7465 12.73 12.7784 12.73C13.3584 12.73 13.9383 12.73 14.5183 12.73C14.5502 12.73 14.5719 12.7574 14.5719 12.7883V13.0959C14.5719 13.1256 14.5494 13.1541 14.5183 13.1541H13.8982ZM1.85004 14.2614C1.85578 14.44 1.70975 14.569 1.52479 14.569H1.03872V13.9667H1.52813C1.7008 13.9667 1.8443 14.0828 1.85004 14.2614Z" fill="#7C7783"/>
</svg>
