<svg width="555" height="572" viewBox="0 0 555 572" fill="none" xmlns="http://www.w3.org/2000/svg">
<g filter="url(#filter0_f_229_140)">
<path fill-rule="evenodd" clip-rule="evenodd" d="M273.873 200.571C256.032 197.462 238.182 207.284 224.767 224.163C210.553 242.048 200.768 266.582 200.069 293.431C199.346 321.203 204.172 353.584 221.022 367.983C236.87 381.527 255.343 356.477 273.873 356.501C292.441 356.525 310.583 380.824 326.821 368.12C344.924 353.957 357.767 322.264 354.488 293.431C351.354 265.886 327.497 257.043 312.178 239.398C299.518 224.815 290.094 203.399 273.873 200.571Z" fill="url(#paint0_linear_229_140)"/>
<path fill-rule="evenodd" clip-rule="evenodd" d="M273.873 200.571C256.032 197.462 238.182 207.284 224.767 224.163C210.553 242.048 200.768 266.582 200.069 293.431C199.346 321.203 204.172 353.584 221.022 367.983C236.87 381.527 255.343 356.477 273.873 356.501C292.441 356.525 310.583 380.824 326.821 368.12C344.924 353.957 357.767 322.264 354.488 293.431C351.354 265.886 327.497 257.043 312.178 239.398C299.518 224.815 290.094 203.399 273.873 200.571Z" fill="url(#paint1_linear_229_140)" fill-opacity="0.2"/>
</g>
<defs>
<filter id="filter0_f_229_140" x="0" y="0" width="555" height="572" filterUnits="userSpaceOnUse" color-interpolation-filters="sRGB">
<feFlood flood-opacity="0" result="BackgroundImageFix"/>
<feBlend mode="normal" in="SourceGraphic" in2="BackgroundImageFix" result="shape"/>
<feGaussianBlur stdDeviation="100" result="effect1_foregroundBlur_229_140"/>
</filter>
<linearGradient id="paint0_linear_229_140" x1="303.422" y1="185.352" x2="213.697" y2="406.706" gradientUnits="userSpaceOnUse">
<stop stop-color="#3A36BE"/>
<stop offset="1" stop-color="#553783"/>
</linearGradient>
<linearGradient id="paint1_linear_229_140" x1="235.527" y1="235.895" x2="368.733" y2="423.552" gradientUnits="userSpaceOnUse">
<stop stop-color="#BA3AE7"/>
<stop offset="1" stop-color="#332B8E"/>
</linearGradient>
</defs>
</svg>
