<svg width="2287" height="1729" viewBox="0 0 2287 1729" fill="none" xmlns="http://www.w3.org/2000/svg">
<path d="M1919.91 494.064C2140.71 306.234 1940.72 283.966 1813.13 296.311C1445.96 363.689 1420.88 543.299 1600.47 552.683C1780.07 562.067 1296.45 780.492 1387.16 890.702C1492.34 1018.49 1643.91 728.851 1919.91 494.064Z" stroke="#7C7783" stroke-opacity="0.39" stroke-width="3"/>
<path opacity="0.95875" d="M1908.47 495.527C2135.44 308.846 1943.36 279.67 1818.95 288.417C1458.7 346.413 1421.81 530.72 1595.05 545.984C1768.29 561.248 1284.68 771.271 1364.78 887.668C1457.66 1022.63 1624.75 728.878 1908.47 495.527Z" stroke="#7C7783" stroke-opacity="0.39" stroke-width="3"/>
<path opacity="0.9175" d="M1897.29 496.679C2130.16 311.375 1946.22 275.325 1825.14 280.463C1472.24 329.007 1423.59 517.786 1590.27 538.912C1756.94 560.038 1273.94 761.402 1343.33 883.844C1423.79 1025.82 1606.19 728.31 1897.29 496.679Z" stroke="#7C7783" stroke-opacity="0.39" stroke-width="3"/>
<path opacity="0.87625" d="M1886.38 497.518C2124.87 313.815 1949.29 270.937 1831.69 272.46C1486.58 311.491 1426.23 504.513 1586.13 531.475C1746.04 558.437 1264.23 750.898 1322.83 879.236C1390.77 1028.05 1588.27 727.145 1886.38 497.518Z" stroke="#7C7783" stroke-opacity="0.39" stroke-width="3"/>
<path opacity="0.835" d="M1875.76 498.042C2119.57 316.166 1952.57 266.51 1838.6 264.417C1501.7 293.889 1429.71 490.917 1582.65 523.683C1735.59 556.448 1255.56 739.771 1303.29 873.848C1358.65 1029.32 1570.99 725.387 1875.76 498.042Z" stroke="#7C7783" stroke-opacity="0.39" stroke-width="3"/>
<path opacity="0.79375" d="M1865.44 498.251C2114.28 318.423 1956.06 262.051 1845.85 256.343C1517.56 276.22 1434.04 477.015 1579.83 515.544C1725.62 554.073 1247.95 728.034 1284.76 867.687C1327.45 1029.62 1554.38 723.037 1865.44 498.251Z" stroke="#7C7783" stroke-opacity="0.39" stroke-width="3"/>
<path opacity="0.7525" d="M1855.43 498.146C2109 320.584 1959.75 257.564 1853.44 248.249C1534.17 258.506 1439.2 462.824 1577.67 507.069C1716.13 551.315 1241.4 715.702 1267.25 860.761C1297.22 1028.96 1538.47 720.098 1855.43 498.146Z" stroke="#7C7783" stroke-opacity="0.39" stroke-width="3"/>
<path opacity="0.71125" d="M1845.75 497.725C2103.73 322.647 1963.64 253.056 1861.35 240.145C1551.49 240.77 1445.2 448.361 1576.17 498.269C1707.13 548.177 1235.93 702.79 1250.78 853.079C1267.99 1027.34 1523.26 716.574 1845.75 497.725Z" stroke="#7C7783" stroke-opacity="0.39" stroke-width="3"/>
<path opacity="0.67" d="M1836.4 496.99C2098.49 324.608 1967.72 248.531 1869.58 232.04C1569.51 223.032 1452.02 433.644 1575.33 489.153C1698.64 544.663 1231.53 689.314 1235.37 844.649C1239.81 1024.77 1508.79 712.468 1836.4 496.99Z" stroke="#7C7783" stroke-opacity="0.39" stroke-width="3"/>
<path opacity="0.62875" d="M1827.4 495.942C2093.27 326.466 1971.99 243.995 1878.12 223.945C1588.2 205.314 1459.66 418.69 1575.16 479.734C1690.67 540.777 1228.22 675.29 1221.03 835.482C1212.7 1021.23 1495.06 707.787 1827.4 495.942Z" stroke="#7C7783" stroke-opacity="0.39" stroke-width="3"/>
<path opacity="0.5875" d="M1818.76 494.581C2088.09 328.218 1976.45 239.454 1886.96 215.868C1607.54 187.638 1468.1 403.518 1575.66 470.021C1683.22 536.525 1226.01 660.735 1207.8 825.589C1186.7 1016.74 1482.1 702.535 1818.76 494.581Z" stroke="#7C7783" stroke-opacity="0.39" stroke-width="3"/>
<path opacity="0.54625" d="M1810.49 492.909C2082.95 329.861 1981.08 234.913 1896.08 207.819C1627.5 170.025 1477.35 388.146 1576.83 460.028C1676.31 531.91 1224.88 645.666 1195.69 814.981C1161.84 1011.31 1469.91 696.718 1810.49 492.909Z" stroke="#7C7783" stroke-opacity="0.39" stroke-width="3"/>
<path opacity="0.505" d="M1802.6 490.929C2077.86 331.395 1985.88 230.378 1905.48 199.811C1648.07 152.497 1487.37 372.593 1578.65 449.766C1669.94 526.939 1224.84 630.104 1184.7 803.673C1138.14 1004.93 1458.52 690.345 1802.6 490.929Z" stroke="#7C7783" stroke-opacity="0.39" stroke-width="3"/>
<path opacity="0.46375" d="M1795.1 488.643C2072.82 332.818 1990.85 225.855 1915.14 191.851C1669.22 135.076 1498.17 356.879 1581.14 439.25C1664.11 521.62 1225.9 614.066 1174.85 791.679C1115.65 997.628 1447.94 683.424 1795.1 488.643Z" stroke="#7C7783" stroke-opacity="0.39" stroke-width="3"/>
<path opacity="0.4225" d="M1787.99 486.053C2067.84 334.126 1995.98 221.347 1925.06 183.948C1690.92 117.782 1509.73 341.021 1584.29 428.488C1658.85 515.955 1228.05 597.571 1166.15 779.01C1094.38 989.397 1438.18 675.961 1787.99 486.053Z" stroke="#7C7783" stroke-opacity="0.39" stroke-width="3"/>
<path opacity="0.38125" d="M1781.3 483.163C2062.93 335.321 2001.26 216.863 1935.21 176.114C1713.14 100.636 1522.04 325.041 1588.1 417.498C1654.15 509.955 1231.29 580.641 1158.62 765.686C1074.37 980.253 1429.26 667.967 1781.3 483.163Z" stroke="#7C7783" stroke-opacity="0.39" stroke-width="3"/>
<path opacity="0.34" d="M1775.02 479.976C2058.09 336.397 2006.69 212.405 1945.6 168.356C1735.87 83.6593 1535.08 308.955 1592.55 406.29C1650.03 503.624 1235.61 563.294 1152.27 751.72C1055.63 970.206 1421.17 659.45 1775.02 479.976Z" stroke="#7C7783" stroke-opacity="0.39" stroke-width="3"/>
<path opacity="0.29875" d="M1769.16 476.497C2053.33 337.356 2012.25 207.981 1956.19 160.686C1759.06 66.8728 1548.83 292.786 1597.65 394.879C1646.47 496.973 1241.02 545.553 1147.1 737.13C1038.19 959.27 1413.95 650.422 1769.16 476.497Z" stroke="#7C7783" stroke-opacity="0.39" stroke-width="3"/>
<path opacity="0.2575" d="M1763.73 472.728C2048.65 338.196 2017.96 203.596 1966.99 153.112C1782.69 50.2968 1563.28 276.551 1603.39 383.279C1643.5 490.008 1247.5 527.44 1143.11 721.934C1022.07 947.457 1407.58 640.894 1763.73 472.728Z" stroke="#7C7783" stroke-opacity="0.39" stroke-width="3"/>
<path opacity="0.21625" d="M1758.74 468.677C2044.06 338.916 2023.79 199.254 1977.98 145.644C1806.74 33.9519 1578.41 260.272 1609.76 371.505C1641.11 482.738 1255.04 508.977 1140.32 706.151C1007.29 934.782 1402.08 630.877 1758.74 468.677Z" stroke="#7C7783" stroke-opacity="0.39" stroke-width="3"/>
<path opacity="0.175" d="M1754.19 464.345C2039.57 339.515 2029.74 194.962 1989.15 138.289C1831.18 17.8567 1594.21 243.967 1616.76 359.569C1639.3 475.171 1263.64 490.184 1138.72 689.798C993.871 921.259 1397.47 620.383 1754.19 464.345Z" stroke="#7C7783" stroke-opacity="0.39" stroke-width="3"/>
<path opacity="0.13375" d="M1750.09 459.74C2035.18 339.992 2035.8 190.724 2000.47 131.058C1855.96 2.03207 1610.65 227.658 1624.37 347.488C1638.09 467.317 1273.28 471.087 1138.32 672.898C981.825 906.906 1393.73 609.425 1750.09 459.74Z" stroke="#7C7783" stroke-opacity="0.39" stroke-width="3"/>
<path opacity="0.0925" d="M1746.44 454.867C2030.89 340.347 2041.97 186.545 2011.95 123.96C1881.07 -13.5031 1627.71 211.363 1632.58 335.274C1637.46 459.186 1283.96 451.707 1139.12 655.469C971.168 891.74 1390.88 598.017 1746.44 454.867Z" stroke="#7C7783" stroke-opacity="0.39" stroke-width="3"/>
<path opacity="0.05125" d="M1743.25 449.732C2026.71 340.579 2048.23 182.432 2023.55 117.002C1906.48 -28.7298 1645.37 195.102 1641.4 322.945C1637.43 450.788 1295.66 432.07 1141.12 637.535C961.914 875.779 1388.93 586.172 1743.25 449.732Z" stroke="#7C7783" stroke-opacity="0.39" stroke-width="3"/>
<path opacity="0.01" d="M1740.53 444.34C2022.65 340.688 2054.58 178.388 2035.28 110.194C1932.15 -43.6296 1663.61 178.895 1650.8 310.514C1637.98 442.132 1308.37 412.197 1144.31 619.115C954.073 859.044 1387.86 573.905 1740.53 444.34Z" stroke="#7C7783" stroke-opacity="0.39" stroke-width="3"/>
<path d="M369.28 1229.66C168.848 1439.09 370.063 1440.79 495.725 1415.46C854.08 1310.88 860.661 1129.65 681.049 1138.68C501.436 1147.71 960.182 880.977 858.677 780.622C740.978 664.255 619.82 967.88 369.28 1229.66Z" stroke="#7C7783" stroke-opacity="0.39" stroke-width="3"/>
<path opacity="0.95875" d="M380.513 1227.03C173.819 1435.95 367.877 1445.33 490.742 1423.9C843.175 1329.37 861.021 1142.26 687.129 1144.79C513.237 1147.32 972.829 888.947 881.247 781.351C775.053 656.59 638.88 965.893 380.513 1227.03Z" stroke="#7C7783" stroke-opacity="0.39" stroke-width="3"/>
<path opacity="0.9175" d="M391.519 1224.75C178.815 1432.89 365.478 1449.94 485.398 1432.45C831.479 1348.07 860.569 1155.31 692.609 1151.34C524.649 1147.37 984.527 897.665 902.979 782.961C808.419 649.958 657.398 964.561 391.519 1224.75Z" stroke="#7C7783" stroke-opacity="0.39" stroke-width="3"/>
<path opacity="0.87625" d="M402.284 1222.8C183.829 1429.92 362.871 1454.62 479.699 1441.08C819.007 1366.96 859.305 1168.78 697.481 1158.31C535.658 1147.84 995.263 907.121 923.847 785.449C841.037 644.365 675.352 963.886 402.284 1222.8Z" stroke="#7C7783" stroke-opacity="0.39" stroke-width="3"/>
<path opacity="0.835" d="M412.795 1221.19C188.857 1427.04 360.059 1459.36 473.652 1449.79C805.773 1386.02 857.23 1182.66 701.741 1165.71C546.251 1148.75 1005.02 917.304 943.827 788.811C872.868 639.819 692.719 963.868 412.795 1221.19Z" stroke="#7C7783" stroke-opacity="0.39" stroke-width="3"/>
<path opacity="0.79375" d="M423.041 1219.92C193.89 1424.26 357.044 1464.15 467.265 1458.56C791.795 1405.22 854.348 1196.93 705.382 1173.52C556.415 1150.1 1013.79 928.201 962.893 793.044C903.871 636.325 709.479 964.508 423.041 1219.92Z" stroke="#7C7783" stroke-opacity="0.39" stroke-width="3"/>
<path opacity="0.7525" d="M433.008 1219.01C198.924 1421.57 353.831 1468.99 460.545 1467.39C777.088 1424.54 850.662 1211.58 708.4 1181.72C566.138 1151.87 1021.57 939.799 981.023 798.143C934.01 633.887 725.611 965.804 433.008 1219.01Z" stroke="#7C7783" stroke-opacity="0.39" stroke-width="3"/>
<path opacity="0.71125" d="M442.683 1218.43C203.953 1418.98 350.424 1473.88 453.501 1476.26C761.671 1443.95 846.175 1226.58 710.792 1190.33C575.408 1154.07 1028.33 952.083 998.194 804.101C963.247 632.509 741.096 967.755 442.683 1218.43Z" stroke="#7C7783" stroke-opacity="0.39" stroke-width="3"/>
<path opacity="0.67" d="M452.056 1218.21C208.969 1416.49 346.826 1478.8 446.14 1485.16C745.563 1463.44 840.895 1241.92 712.554 1199.31C584.213 1156.7 1034.08 965.039 1014.39 810.91C991.547 632.192 755.915 970.359 452.056 1218.21Z" stroke="#7C7783" stroke-opacity="0.39" stroke-width="3"/>
<path opacity="0.62875" d="M461.116 1218.33C213.968 1414.11 343.043 1483.74 438.474 1494.09C728.784 1482.97 834.827 1257.57 713.685 1208.66C592.544 1159.75 1038.81 978.651 1029.58 818.564C1018.88 632.936 770.05 973.612 461.116 1218.33Z" stroke="#7C7783" stroke-opacity="0.39" stroke-width="3"/>
<path opacity="0.5875" d="M469.849 1218.8C218.942 1411.84 339.077 1488.72 430.508 1503.03C711.352 1502.54 827.977 1273.53 714.183 1218.37C600.388 1163.22 1042.5 992.903 1043.75 827.052C1045.2 634.741 783.482 977.511 469.849 1218.8Z" stroke="#7C7783" stroke-opacity="0.39" stroke-width="3"/>
<path opacity="0.54625" d="M478.246 1219.62C223.886 1409.68 334.936 1493.71 422.255 1511.97C693.291 1522.1 820.356 1289.77 714.047 1228.43C607.738 1167.1 1045.17 1007.78 1056.89 836.365C1070.49 637.605 796.196 982.051 478.246 1219.62Z" stroke="#7C7783" stroke-opacity="0.39" stroke-width="3"/>
<path opacity="0.505" d="M486.298 1220.78C228.794 1407.63 330.623 1498.71 413.725 1520.9C674.621 1541.64 811.972 1306.26 713.278 1238.83C614.584 1171.39 1046.79 1023.25 1068.98 846.49C1094.71 641.523 808.178 987.226 486.298 1220.78Z" stroke="#7C7783" stroke-opacity="0.39" stroke-width="3"/>
<path opacity="0.46375" d="M493.995 1222.29C233.661 1405.7 326.144 1503.72 404.928 1529.8C655.368 1561.13 802.836 1323 711.878 1249.54C620.919 1176.09 1047.38 1039.32 1080 857.414C1117.83 646.491 819.412 993.029 493.995 1222.29Z" stroke="#7C7783" stroke-opacity="0.39" stroke-width="3"/>
<path opacity="0.4225" d="M501.324 1224.14C238.478 1403.89 321.503 1508.73 395.872 1538.68C635.55 1580.55 792.957 1339.96 709.844 1260.57C626.732 1181.19 1046.93 1055.95 1089.95 869.127C1139.83 652.504 829.882 999.455 501.324 1224.14Z" stroke="#7C7783" stroke-opacity="0.39" stroke-width="3"/>
<path opacity="0.38125" d="M508.282 1226.33C243.243 1402.2 316.709 1513.73 386.573 1547.51C615.197 1599.88 782.35 1357.11 707.185 1271.89C632.02 1186.68 1045.44 1073.12 1098.8 881.612C1160.67 659.553 839.58 1006.49 508.282 1226.33Z" stroke="#7C7783" stroke-opacity="0.39" stroke-width="3"/>
<path opacity="0.34" d="M514.855 1228.86C247.946 1400.63 311.764 1518.72 377.037 1556.29C594.329 1619.09 771.025 1374.45 703.899 1283.5C636.773 1192.55 1042.91 1090.82 1106.55 894.855C1180.34 667.631 848.49 1014.14 514.855 1228.86Z" stroke="#7C7783" stroke-opacity="0.39" stroke-width="3"/>
<path opacity="0.29875" d="M521.038 1231.72C252.585 1399.19 306.677 1523.69 367.279 1565C572.975 1638.16 758.998 1391.94 699.993 1295.37C640.987 1198.8 1039.35 1109.02 1113.19 908.839C1198.81 676.727 856.604 1022.38 521.038 1231.72Z" stroke="#7C7783" stroke-opacity="0.39" stroke-width="3"/>
<path opacity="0.2575" d="M526.823 1234.91C257.153 1397.88 301.452 1528.63 357.311 1573.64C551.159 1657.07 746.283 1409.56 695.47 1307.5C644.658 1205.43 1034.76 1127.7 1118.71 923.548C1216.05 686.829 863.911 1031.21 526.823 1234.91Z" stroke="#7C7783" stroke-opacity="0.39" stroke-width="3"/>
<path opacity="0.21625" d="M532.203 1238.43C261.644 1396.69 296.098 1533.55 347.144 1582.19C528.908 1675.79 732.896 1427.3 690.338 1319.86C647.779 1212.42 1029.14 1146.83 1123.1 938.963C1232.05 697.927 870.402 1040.61 532.203 1238.43Z" stroke="#7C7783" stroke-opacity="0.39" stroke-width="3"/>
<path opacity="0.175" d="M537.171 1242.28C266.053 1395.64 290.618 1538.43 336.79 1590.65C506.249 1694.3 718.852 1445.14 684.6 1332.45C650.348 1219.76 1022.51 1166.41 1126.36 955.066C1246.78 710.007 876.068 1050.58 537.171 1242.28Z" stroke="#7C7783" stroke-opacity="0.39" stroke-width="3"/>
<path opacity="0.13375" d="M541.721 1246.44C270.374 1394.71 285.021 1543.26 326.263 1599C483.21 1712.57 704.168 1463.04 678.265 1345.25C652.361 1227.45 1014.87 1186.39 1128.49 971.837C1260.23 723.052 880.904 1061.1 541.721 1246.44Z" stroke="#7C7783" stroke-opacity="0.39" stroke-width="3"/>
<path opacity="0.0925" d="M545.847 1250.91C274.602 1393.92 279.314 1548.05 315.575 1607.24C459.819 1730.59 688.864 1481 671.34 1358.23C653.816 1235.47 1006.23 1206.76 1129.47 989.256C1272.38 737.049 884.904 1072.15 545.847 1250.91Z" stroke="#7C7783" stroke-opacity="0.39" stroke-width="3"/>
<path opacity="0.05125" d="M549.546 1255.69C278.733 1393.26 273.503 1552.78 304.739 1615.34C436.105 1748.34 672.957 1498.98 663.834 1371.4C654.711 1243.82 996.594 1227.49 1129.32 1007.3C1283.22 751.979 888.062 1083.74 549.546 1255.69Z" stroke="#7C7783" stroke-opacity="0.39" stroke-width="3"/>
<path opacity="0.01" d="M552.811 1260.78C282.76 1392.74 267.595 1557.45 293.768 1623.32C412.095 1765.79 656.466 1516.97 655.755 1384.73C655.044 1252.49 985.985 1248.56 1128.03 1025.95C1292.73 767.826 890.374 1095.83 552.811 1260.78Z" stroke="#7C7783" stroke-opacity="0.39" stroke-width="3"/>
</svg>
