<svg width="82" height="51" viewBox="0 0 82 51" fill="none" xmlns="http://www.w3.org/2000/svg">
<g filter="url(#filter0_d_229_250)">
<path d="M41 27.4375C45.2108 27.4375 48.9308 28.445 51.9533 29.7625C54.7433 31.0025 56.5 33.7925 56.5 36.815V41H25.5V36.8408C25.5 33.7925 27.2567 31.0025 30.0467 29.7883C33.0692 28.445 36.7892 27.4375 41 27.4375ZM20.3333 28.0833C23.175 28.0833 25.5 25.7583 25.5 22.9167C25.5 20.075 23.175 17.75 20.3333 17.75C17.4917 17.75 15.1667 20.075 15.1667 22.9167C15.1667 25.7583 17.4917 28.0833 20.3333 28.0833ZM23.2525 30.925C22.2967 30.77 21.3408 30.6667 20.3333 30.6667C17.7758 30.6667 15.3475 31.2092 13.1517 32.165C12.2158 32.565 11.4181 33.2313 10.8577 34.081C10.2974 34.9307 9.99911 35.9263 10 36.9442V41H21.625V36.8408C21.625 34.6967 22.2192 32.6817 23.2525 30.925ZM61.6667 28.0833C64.5083 28.0833 66.8333 25.7583 66.8333 22.9167C66.8333 20.075 64.5083 17.75 61.6667 17.75C58.825 17.75 56.5 20.075 56.5 22.9167C56.5 25.7583 58.825 28.0833 61.6667 28.0833ZM72 36.9442C72 34.8517 70.76 32.9917 68.8483 32.165C66.5831 31.1766 64.1382 30.6665 61.6667 30.6667C60.6592 30.6667 59.7033 30.77 58.7475 30.925C59.7808 32.6817 60.375 34.6967 60.375 36.8408V41H72V36.9442ZM41 10C45.2883 10 48.75 13.4617 48.75 17.75C48.75 22.0383 45.2883 25.5 41 25.5C36.7117 25.5 33.25 22.0383 33.25 17.75C33.25 13.4617 36.7117 10 41 10Z" fill="#D2B5F8"/>
</g>
<defs>
<filter id="filter0_d_229_250" x="0" y="0" width="82" height="51" filterUnits="userSpaceOnUse" color-interpolation-filters="sRGB">
<feFlood flood-opacity="0" result="BackgroundImageFix"/>
<feColorMatrix in="SourceAlpha" type="matrix" values="0 0 0 0 0 0 0 0 0 0 0 0 0 0 0 0 0 0 127 0" result="hardAlpha"/>
<feOffset/>
<feGaussianBlur stdDeviation="5"/>
<feComposite in2="hardAlpha" operator="out"/>
<feColorMatrix type="matrix" values="0 0 0 0 0.79079 0 0 0 0 0.682938 0 0 0 0 0.929167 0 0 0 0.91 0"/>
<feBlend mode="normal" in2="BackgroundImageFix" result="effect1_dropShadow_229_250"/>
<feBlend mode="normal" in="SourceGraphic" in2="effect1_dropShadow_229_250" result="shape"/>
</filter>
</defs>
</svg>
