<svg width="62" height="51" viewBox="0 0 62 51" fill="none" xmlns="http://www.w3.org/2000/svg">
<g filter="url(#filter0_d_229_245)">
<path d="M20.498 38.9333C20.494 39.6374 20.6148 40.3368 20.855 41H18.3976C17.8405 41 17.3062 40.7823 16.9123 40.3947C16.5184 40.0071 16.2971 39.4814 16.2971 38.9333V36.8667H20.498M26.7992 38.9333C26.7992 39.4814 27.0205 40.0071 27.4144 40.3947C27.8083 40.7823 28.3425 41 28.8996 41H33.1004C33.6575 41 34.1917 40.7823 34.5856 40.3947C34.9795 40.0071 35.2008 39.4814 35.2008 38.9333V36.8667H26.7992M14.1967 32.7333C14.1967 33.2814 14.418 33.8071 14.8119 34.1947C15.2058 34.5823 15.7401 34.8 16.2971 34.8H20.498V30.4187C17.7996 27.7343 16.2895 24.1089 16.2971 20.3333C16.2849 18.1864 16.7736 16.0653 17.7254 14.1333C15.94 14.2752 14.2475 14.9747 12.8947 16.1299C11.542 17.2851 10.5998 18.8354 10.2058 20.5547C9.81178 22.2739 9.9865 24.0721 10.7045 25.6867C11.4224 27.3013 12.646 28.6479 14.1967 29.53M41.502 38.9333C41.506 39.6374 41.3852 40.3368 41.145 41H43.6025C44.1595 41 44.6938 40.7823 45.0877 40.3947C45.4816 40.0071 45.7029 39.4814 45.7029 38.9333V36.8667H41.502M41.502 20.3333C41.502 21.9375 41.1224 23.5197 40.3933 24.9545C39.6642 26.3894 38.6055 27.6375 37.3012 28.6V32.7333C37.3012 33.2814 37.0799 33.8071 36.686 34.1947C36.2921 34.5823 35.7579 34.8 35.2008 34.8H26.7992C26.2421 34.8 25.7079 34.5823 25.314 34.1947C24.9201 33.8071 24.6988 33.2814 24.6988 32.7333V28.6C23.2667 27.5432 22.1329 26.1437 21.4051 24.5344C20.6773 22.9252 20.3796 21.1596 20.5404 19.4053C20.7012 17.6511 21.315 15.9664 22.3236 14.5112C23.3323 13.056 24.7022 11.8786 26.3033 11.0909C27.9045 10.3032 29.6837 9.93127 31.472 10.0104C33.2604 10.0896 34.9985 10.6173 36.5212 11.5433C38.044 12.4693 39.301 13.7629 40.1727 15.3014C41.0444 16.8398 41.502 18.5719 41.502 20.3333ZM37.3012 20.3333C37.3045 19.1959 36.9897 18.0796 36.3913 17.1064C35.7929 16.1333 34.934 15.3409 33.9085 14.8159C32.883 14.2909 31.7306 14.0536 30.5772 14.1299C29.4238 14.2062 28.314 14.5933 27.3692 15.2486C26.4245 15.904 25.6811 16.8024 25.2205 17.8457C24.76 18.8889 24.5999 20.0367 24.7579 21.1634C24.9159 22.2901 25.3859 23.3524 26.1164 24.2339C26.8469 25.1154 27.8097 25.7822 28.8996 26.1613V30.6667H33.1004V26.1613C34.3261 25.735 35.3878 24.946 36.1398 23.9026C36.8919 22.8592 37.2976 21.6125 37.3012 20.3333ZM44.2746 14.1333C45.2264 16.0653 45.7151 18.1864 45.7029 20.3333C45.7105 24.1089 44.2004 27.7343 41.502 30.4187V34.8H45.7029C46.2599 34.8 46.7942 34.5823 47.1881 34.1947C47.582 33.8071 47.8033 33.2814 47.8033 32.7333V29.53C49.354 28.6479 50.5776 27.3013 51.2955 25.6867C52.0135 24.0721 52.1882 22.2739 51.7942 20.5547C51.4002 18.8354 50.458 17.2851 49.1053 16.1299C47.7525 14.9747 46.06 14.2752 44.2746 14.1333Z" fill="#D2B5F8"/>
</g>
<defs>
<filter id="filter0_d_229_245" x="0" y="0" width="62" height="51" filterUnits="userSpaceOnUse" color-interpolation-filters="sRGB">
<feFlood flood-opacity="0" result="BackgroundImageFix"/>
<feColorMatrix in="SourceAlpha" type="matrix" values="0 0 0 0 0 0 0 0 0 0 0 0 0 0 0 0 0 0 127 0" result="hardAlpha"/>
<feOffset/>
<feGaussianBlur stdDeviation="5"/>
<feComposite in2="hardAlpha" operator="out"/>
<feColorMatrix type="matrix" values="0 0 0 0 0.79079 0 0 0 0 0.682938 0 0 0 0 0.929167 0 0 0 0.91 0"/>
<feBlend mode="normal" in2="BackgroundImageFix" result="effect1_dropShadow_229_245"/>
<feBlend mode="normal" in="SourceGraphic" in2="effect1_dropShadow_229_245" result="shape"/>
</filter>
</defs>
</svg>
