<svg width="58" height="51" viewBox="0 0 58 51" fill="none" xmlns="http://www.w3.org/2000/svg">
<g filter="url(#filter0_d_229_256)">
<path d="M29.2019 11.7116L23.4544 18.0414C22.4984 19.091 22.3144 20.9802 23.0388 22.3285C23.8047 23.7656 25.295 24.0482 26.3222 22.9583L32.2181 16.7254C32.6338 16.2894 33.2275 16.3863 33.5541 16.9514C33.8806 17.5166 33.8034 18.324 33.3878 18.768L32.1469 20.076L42.6681 33.2522H45.15C46.7234 33.2522 48 31.5164 48 29.3769V19.0425C48 16.903 46.7234 15.1672 45.15 15.1672H40.3584L40.1269 14.9653L35.8162 11.2111C34.9078 10.4198 33.845 10 32.7644 10C31.47 10 30.2113 10.6055 29.2019 11.7116ZM30.5556 21.7553L27.4859 25.0009C25.6156 26.987 22.9022 26.4703 21.5009 23.8545C20.1828 21.392 20.5153 17.9526 22.255 16.0391L27.195 10.6055C26.5063 10.2099 25.7641 10.0081 25.01 10.0081C23.8938 10 22.8072 10.4521 21.875 11.2918L17.6 15.1672H12.85C11.2766 15.1672 10 16.903 10 19.0425V29.3769C10 31.5164 11.2766 33.2522 12.85 33.2522H19.2744L24.7013 39.9857C25.865 41.4309 27.6641 41.3179 28.7269 39.7354C29.0534 39.2429 29.2731 38.6697 29.3859 38.0722L30.3953 39.3317C31.5531 40.7769 33.3581 40.672 34.4209 39.0976C34.6881 38.702 34.8841 38.2418 35.0088 37.7654C36.1606 38.815 37.7281 38.597 38.6959 37.1599C39.7587 35.5855 39.6816 33.1311 38.5237 31.6859L30.5556 21.7553Z" fill="#D2B5F8"/>
</g>
<defs>
<filter id="filter0_d_229_256" x="0" y="0" width="58" height="51" filterUnits="userSpaceOnUse" color-interpolation-filters="sRGB">
<feFlood flood-opacity="0" result="BackgroundImageFix"/>
<feColorMatrix in="SourceAlpha" type="matrix" values="0 0 0 0 0 0 0 0 0 0 0 0 0 0 0 0 0 0 127 0" result="hardAlpha"/>
<feOffset/>
<feGaussianBlur stdDeviation="5"/>
<feComposite in2="hardAlpha" operator="out"/>
<feColorMatrix type="matrix" values="0 0 0 0 0.79079 0 0 0 0 0.682938 0 0 0 0 0.929167 0 0 0 0.91 0"/>
<feBlend mode="normal" in2="BackgroundImageFix" result="effect1_dropShadow_229_256"/>
<feBlend mode="normal" in="SourceGraphic" in2="effect1_dropShadow_229_256" result="shape"/>
</filter>
</defs>
</svg>
