<svg width="47" height="51" viewBox="0 0 47 51" fill="none" xmlns="http://www.w3.org/2000/svg">
<g filter="url(#filter0_d_229_276)">
<path d="M16.6331 35.3286C17.1602 35.6198 17.8331 35.7072 18.4649 35.5223L22.8185 34.2639C23.2603 34.136 23.7397 34.136 24.1815 34.2639L28.5351 35.5223C29.1669 35.7058 29.8398 35.6198 30.3669 35.3286V41L23.5 39.0221L16.6331 41V35.3286ZM22.9455 31.8768L19.4056 32.9006C19.0093 33.0151 18.5774 33.0028 18.191 32.866C17.8047 32.7292 17.4906 32.4774 17.3078 32.1578L15.5825 29.1503C15.424 28.8724 15.1655 28.6444 14.8443 28.4992L11.4109 26.9554C11.0575 26.796 10.7809 26.5368 10.6289 26.2227C10.4769 25.9087 10.459 25.5594 10.5783 25.2353L11.7971 21.9248C11.9011 21.6422 11.9011 21.3394 11.7971 21.0567L10.5783 17.7462C10.4587 17.4217 10.4766 17.072 10.629 16.7576C10.7814 16.4432 11.0586 16.1839 11.4126 16.0247L14.8443 14.4808C15.1652 14.3361 15.4237 14.1086 15.5825 13.8312L17.3078 10.8193C17.4909 10.5 17.8051 10.2485 18.1914 10.112C18.5777 9.97545 19.0095 9.96336 19.4056 10.078L22.9455 11.1018C23.305 11.2059 23.695 11.2059 24.0545 11.1018L27.5944 10.078C27.9907 9.96346 28.4226 9.97577 28.809 10.1126C29.1953 10.2494 29.5094 10.5012 29.6922 10.8207L31.4175 13.8298C31.576 14.1077 31.8345 14.3357 32.1557 14.4808L35.5891 16.0247C35.9425 16.1841 36.2191 16.4432 36.3711 16.7573C36.5231 17.0714 36.541 17.4207 36.4217 17.7447L35.2029 21.0553C35.0989 21.3379 35.0989 21.6407 35.2029 21.9233L36.4217 25.2338C36.5413 25.5583 36.5234 25.908 36.371 26.2224C36.2186 26.5369 35.9414 26.7961 35.5874 26.9554L32.1557 28.4992C31.8348 28.644 31.5763 28.8714 31.4175 29.1488L29.6922 32.1593C29.5091 32.4786 29.1949 32.7301 28.8086 32.8666C28.4223 33.0031 27.9905 33.0152 27.5944 32.9006L24.0545 31.8768C23.695 31.7727 23.305 31.7727 22.9455 31.8768ZM23.5 17.1199C23.0447 17.1199 22.608 17.2734 22.2861 17.5465C21.9641 17.8197 21.7833 18.1901 21.7833 18.5764V24.4022C21.7833 24.7885 21.9641 25.1589 22.2861 25.4321C22.608 25.7052 23.0447 25.8587 23.5 25.8587C23.9553 25.8587 24.392 25.7052 24.7139 25.4321C25.0359 25.1589 25.2167 24.7885 25.2167 24.4022V18.5764C25.2167 18.1901 25.0359 17.8197 24.7139 17.5465C24.392 17.2734 23.9553 17.1199 23.5 17.1199Z" fill="#D2B5F8"/>
</g>
<defs>
<filter id="filter0_d_229_276" x="0.5" y="0" width="46" height="51" filterUnits="userSpaceOnUse" color-interpolation-filters="sRGB">
<feFlood flood-opacity="0" result="BackgroundImageFix"/>
<feColorMatrix in="SourceAlpha" type="matrix" values="0 0 0 0 0 0 0 0 0 0 0 0 0 0 0 0 0 0 127 0" result="hardAlpha"/>
<feOffset/>
<feGaussianBlur stdDeviation="5"/>
<feComposite in2="hardAlpha" operator="out"/>
<feColorMatrix type="matrix" values="0 0 0 0 0.79079 0 0 0 0 0.682938 0 0 0 0 0.929167 0 0 0 0.91 0"/>
<feBlend mode="normal" in2="BackgroundImageFix" result="effect1_dropShadow_229_276"/>
<feBlend mode="normal" in="SourceGraphic" in2="effect1_dropShadow_229_276" result="shape"/>
</filter>
</defs>
</svg>
