<svg width="68" height="51" viewBox="0 0 68 51" fill="none" xmlns="http://www.w3.org/2000/svg">
<g filter="url(#filter0_d_229_262)">
<path d="M57.8081 11.6009C57.5646 10.97 57.0987 10.4686 56.5124 10.2066C56.224 10.0743 55.9142 10.0041 55.6007 10H43.6042C42.9678 10 42.3576 10.272 41.9076 10.7563C41.4577 11.2405 41.2049 11.8973 41.2049 12.5821C41.2049 13.2669 41.4577 13.9237 41.9076 14.4079C42.3576 14.8921 42.9678 15.1642 43.6042 15.1642H49.8184L36.4063 29.598L28.5125 21.0771C28.2895 20.8351 28.0241 20.643 27.7318 20.512C27.4394 20.3809 27.1258 20.3134 26.809 20.3134C26.4923 20.3134 26.1787 20.3809 25.8863 20.512C25.5939 20.643 25.3286 20.8351 25.1055 21.0771L10.7097 36.5697C10.4848 36.8097 10.3063 37.0953 10.1845 37.4099C10.0627 37.7246 10 38.0621 10 38.4029C10 38.7438 10.0627 39.0813 10.1845 39.396C10.3063 39.7106 10.4848 39.9962 10.7097 40.2362C10.9328 40.4782 11.1981 40.6703 11.4905 40.8014C11.7829 40.9325 12.0965 41 12.4132 41C12.73 41 13.0436 40.9325 13.3359 40.8014C13.6283 40.6703 13.8937 40.4782 14.1167 40.2362L26.809 26.5512L34.7028 35.0721C34.9258 35.3141 35.1912 35.5062 35.4835 35.6372C35.7759 35.7683 36.0895 35.8358 36.4063 35.8358C36.723 35.8358 37.0366 35.7683 37.329 35.6372C37.6214 35.5062 37.8867 35.3141 38.1098 35.0721L53.2014 18.8049V25.4925C53.2014 26.1773 53.4542 26.8341 53.9041 27.3183C54.3541 27.8026 54.9644 28.0746 55.6007 28.0746C56.237 28.0746 56.8473 27.8026 57.2973 27.3183C57.7472 26.8341 58 26.1773 58 25.4925V12.5821C57.9962 12.2447 57.931 11.9113 57.8081 11.6009Z" fill="#D2B5F8"/>
</g>
<defs>
<filter id="filter0_d_229_262" x="0" y="0" width="68" height="51" filterUnits="userSpaceOnUse" color-interpolation-filters="sRGB">
<feFlood flood-opacity="0" result="BackgroundImageFix"/>
<feColorMatrix in="SourceAlpha" type="matrix" values="0 0 0 0 0 0 0 0 0 0 0 0 0 0 0 0 0 0 127 0" result="hardAlpha"/>
<feOffset/>
<feGaussianBlur stdDeviation="5"/>
<feComposite in2="hardAlpha" operator="out"/>
<feColorMatrix type="matrix" values="0 0 0 0 0.79079 0 0 0 0 0.682938 0 0 0 0 0.929167 0 0 0 0.91 0"/>
<feBlend mode="normal" in2="BackgroundImageFix" result="effect1_dropShadow_229_262"/>
<feBlend mode="normal" in="SourceGraphic" in2="effect1_dropShadow_229_262" result="shape"/>
</filter>
</defs>
</svg>
