<svg width="56" height="51" viewBox="0 0 56 51" fill="none" xmlns="http://www.w3.org/2000/svg">
<g filter="url(#filter0_d_229_288)">
<path d="M30.4545 30.6667L29.1864 27.6958L26.3636 26.3611L29.1864 25.0264L30.4545 22.0556L31.7227 25.0264L34.5455 26.3611L31.7227 27.6958L30.4545 30.6667ZM25.5455 22.0556L23.7455 17.9222L19.8182 16.0278L23.7455 14.1333L25.5455 10L27.3455 14.1333L31.2727 16.0278L27.3455 17.9222L25.5455 22.0556ZM10 41V34.1111C10 33.1352 10.3207 32.3171 10.9622 31.6569C11.6025 30.9968 12.3727 30.6667 13.2727 30.6667H18.6318C19.1773 30.6667 19.6955 30.8102 20.1864 31.0972C20.6773 31.3843 21.0727 31.7718 21.3727 32.2597C22.1636 33.3792 23.1389 34.2546 24.2985 34.8861C25.4571 35.5176 26.6909 35.8333 28 35.8333C29.3364 35.8333 30.5844 35.5176 31.744 34.8861C32.9025 34.2546 33.8636 33.3792 34.6273 32.2597C34.9818 31.7718 35.3975 31.3843 35.8742 31.0972C36.352 30.8102 36.85 30.6667 37.3682 30.6667H42.7273C43.6545 30.6667 44.4318 30.9968 45.0591 31.6569C45.6864 32.3171 46 33.1352 46 34.1111V41H34.5455V37.0819C33.5909 37.7995 32.5616 38.3449 31.4576 38.7181C30.3525 39.0912 29.2 39.2778 28 39.2778C26.8273 39.2778 25.6818 39.0843 24.5636 38.6974C23.4455 38.3093 22.4091 37.7565 21.4545 37.0389V41H10ZM14.9091 28.9444C13.5455 28.9444 12.3864 28.4421 11.4318 27.4375C10.4773 26.4329 10 25.213 10 23.7778C10 22.3139 10.4773 21.0865 11.4318 20.0957C12.3864 19.106 13.5455 18.6111 14.9091 18.6111C16.3 18.6111 17.4662 19.106 18.4076 20.0957C19.348 21.0865 19.8182 22.3139 19.8182 23.7778C19.8182 25.213 19.348 26.4329 18.4076 27.4375C17.4662 28.4421 16.3 28.9444 14.9091 28.9444ZM41.0909 28.9444C39.7273 28.9444 38.5682 28.4421 37.6136 27.4375C36.6591 26.4329 36.1818 25.213 36.1818 23.7778C36.1818 22.3139 36.6591 21.0865 37.6136 20.0957C38.5682 19.106 39.7273 18.6111 41.0909 18.6111C42.4818 18.6111 43.648 19.106 44.5895 20.0957C45.5298 21.0865 46 22.3139 46 23.7778C46 25.213 45.5298 26.4329 44.5895 27.4375C43.648 28.4421 42.4818 28.9444 41.0909 28.9444Z" fill="#D2B5F8"/>
</g>
<defs>
<filter id="filter0_d_229_288" x="0" y="0" width="56" height="51" filterUnits="userSpaceOnUse" color-interpolation-filters="sRGB">
<feFlood flood-opacity="0" result="BackgroundImageFix"/>
<feColorMatrix in="SourceAlpha" type="matrix" values="0 0 0 0 0 0 0 0 0 0 0 0 0 0 0 0 0 0 127 0" result="hardAlpha"/>
<feOffset/>
<feGaussianBlur stdDeviation="5"/>
<feComposite in2="hardAlpha" operator="out"/>
<feColorMatrix type="matrix" values="0 0 0 0 0.79079 0 0 0 0 0.682938 0 0 0 0 0.929167 0 0 0 0.91 0"/>
<feBlend mode="normal" in2="BackgroundImageFix" result="effect1_dropShadow_229_288"/>
<feBlend mode="normal" in="SourceGraphic" in2="effect1_dropShadow_229_288" result="shape"/>
</filter>
</defs>
</svg>
