<svg width="32" height="31" viewBox="0 0 32 31" fill="none" xmlns="http://www.w3.org/2000/svg">
<path d="M16 0C7.4375 0 0.5 6.9375 0.5 15.5C0.5 24.0625 7.4375 31 16 31C24.5625 31 31.5 24.0625 31.5 15.5C31.5 6.9375 24.5625 0 16 0ZM21 10.5C22.1063 10.5 23 11.3938 23 12.5C23 13.6062 22.1063 14.5 21 14.5C19.8937 14.5 19 13.6062 19 12.5C19 11.3938 19.8937 10.5 21 10.5ZM11 10.5C12.1062 10.5 13 11.3938 13 12.5C13 13.6062 12.1062 14.5 11 14.5C9.89375 14.5 9 13.6062 9 12.5C9 11.3938 9.89375 10.5 11 10.5ZM21.6375 24.1375C20.2375 22.4625 18.1812 21.5 16 21.5C13.8188 21.5 11.7625 22.4625 10.3625 24.1375C9.51875 25.1562 7.98125 23.875 8.825 22.8563C10.6062 20.725 13.225 19.5 16 19.5C18.775 19.5 21.3938 20.725 23.1688 22.8625C24.0188 23.875 22.4813 25.1562 21.6375 24.1375Z" fill="#D2B5F8"/>
</svg>
