<svg width="51" height="51" viewBox="0 0 51 51" fill="none" xmlns="http://www.w3.org/2000/svg">
<g filter="url(#filter0_d_229_284)">
<path d="M39.45 37.9H37.9V14.65C37.9 14.2389 37.7367 13.8447 37.446 13.554C37.1553 13.2633 36.7611 13.1 36.35 13.1C35.9389 13.1 35.5447 13.2633 35.254 13.554C34.9633 13.8447 34.8 14.2389 34.8 14.65V37.9H31.7V20.85C31.7 20.4389 31.5367 20.0447 31.246 19.754C30.9553 19.4633 30.5611 19.3 30.15 19.3C29.7389 19.3 29.3447 19.4633 29.054 19.754C28.7633 20.0447 28.6 20.4389 28.6 20.85V37.9H25.5V27.05C25.5 26.6389 25.3367 26.2447 25.046 25.954C24.7553 25.6633 24.3611 25.5 23.95 25.5C23.5389 25.5 23.1447 25.6633 22.854 25.954C22.5633 26.2447 22.4 26.6389 22.4 27.05V37.9H19.3V33.25C19.3 32.8389 19.1367 32.4447 18.846 32.154C18.5553 31.8633 18.1611 31.7 17.75 31.7C17.3389 31.7 16.9447 31.8633 16.654 32.154C16.3633 32.4447 16.2 32.8389 16.2 33.25V37.9H13.1V11.55C13.1 11.1389 12.9367 10.7447 12.646 10.454C12.3553 10.1633 11.9611 10 11.55 10C11.1389 10 10.7447 10.1633 10.454 10.454C10.1633 10.7447 10 11.1389 10 11.55V39.45C10 39.8611 10.1633 40.2553 10.454 40.546C10.7447 40.8367 11.1389 41 11.55 41H39.45C39.8611 41 40.2553 40.8367 40.546 40.546C40.8367 40.2553 41 39.8611 41 39.45C41 39.0389 40.8367 38.6447 40.546 38.354C40.2553 38.0633 39.8611 37.9 39.45 37.9Z" fill="#D2B5F8"/>
</g>
<defs>
<filter id="filter0_d_229_284" x="0" y="0" width="51" height="51" filterUnits="userSpaceOnUse" color-interpolation-filters="sRGB">
<feFlood flood-opacity="0" result="BackgroundImageFix"/>
<feColorMatrix in="SourceAlpha" type="matrix" values="0 0 0 0 0 0 0 0 0 0 0 0 0 0 0 0 0 0 127 0" result="hardAlpha"/>
<feOffset/>
<feGaussianBlur stdDeviation="5"/>
<feComposite in2="hardAlpha" operator="out"/>
<feColorMatrix type="matrix" values="0 0 0 0 0.79079 0 0 0 0 0.682938 0 0 0 0 0.929167 0 0 0 0.91 0"/>
<feBlend mode="normal" in2="BackgroundImageFix" result="effect1_dropShadow_229_284"/>
<feBlend mode="normal" in="SourceGraphic" in2="effect1_dropShadow_229_284" result="shape"/>
</filter>
</defs>
</svg>
