<svg width="53" height="64" viewBox="0 0 53 64" fill="none" xmlns="http://www.w3.org/2000/svg">
<path fill-rule="evenodd" clip-rule="evenodd" d="M34.6266 11.4211C34.6266 11.4211 34.0867 11.928 33.6676 12.133C32.6454 12.633 31.9886 12.5694 30.7523 12.1154C29.6902 11.7252 29.7373 11.0784 29.4421 9.73184C29.0529 7.95646 29.6244 8.7352 30.2214 9.12953C31.368 9.88675 34.6266 11.4211 34.6266 11.4211ZM47.6743 6.24905C47.707 6.21646 48.3756 6.21509 48.0239 6.48195C47.8465 6.61656 47.5765 6.34658 47.6743 6.24905ZM46.6706 6.08222C47.1223 6.11968 47.1257 6.16045 47.507 6.24905C47.3273 6.36275 47.5037 6.34426 47.1578 6.40125C47.0061 6.42627 46.8256 6.41588 46.6706 6.41588V6.08222ZM45.4997 5.91535C46.0613 5.65629 46.0146 5.77023 46.3361 6.24905L45.4997 5.91535ZM45.4997 5.91535H44.8305C44.9804 5.46464 44.7407 5.70066 45.0868 5.71731C45.7901 5.75108 45.3145 5.78703 45.4997 5.91535ZM43.9942 5.5817H44.6633C44.3505 5.7796 45.0368 5.76929 44.3287 5.71929C43.9718 5.69408 44.1792 5.69881 43.9942 5.5817ZM44.1615 5.41483C43.2884 5.41483 42.6092 5.15719 41.8061 5.09452L34.5798 4.2936C32.956 4.08359 31.1169 4.10095 29.5816 3.93985L24.5899 3.41275C25.1194 3.41275 25.3887 3.30642 25.7395 3.31578C32.971 3.50805 35.7831 3.67449 43.0083 5.06335L43.8181 5.25676C44.1914 5.39146 43.9737 5.29601 44.1615 5.41483ZM12.8804 2.24482C12.6303 2.60382 12.856 2.46453 12.3786 2.57852C12.6355 2.20978 12.406 2.37116 12.8804 2.24482ZM16.3933 4.74744C16.7599 4.20137 17.3751 3.95219 17.5642 3.24587C15.3239 2.17373 15.8156 3.4609 14.3859 3.57957C14.4158 3.55365 14.4645 3.47603 14.4777 3.50441L15.5569 2.4117C14.7275 2.01476 14.0713 1.84013 13.0477 2.078C13.2116 1.68215 13.4234 1.81544 12.7631 1.54631C12.7631 1.54631 7.7727 1.08481 8.90868 1.08481C10.0447 1.08481 10.9221 0.967831 12.2035 1.08481C15.116 1.35069 17.546 2.33223 19.3581 3.29199L19.5715 3.41275C17.7409 3.83811 17.1267 4.55214 16.3933 4.74744ZM10.3713 14.5911C10.3713 14.5911 9.24394 15.7072 8.57974 16.4747C7.17034 18.1035 5.40574 20.9837 5.40574 20.9837C3.04809 24.9285 0.38688 30.1418 0 34.7788C0.627372 33.9949 1.00379 33.5569 1.77287 32.5428L4.40122 28.9912C4.40122 28.9912 4.97884 28.2288 5.27765 27.6964C5.73244 26.4861 5.76924 25.4763 6.35658 24.6015C7.12038 25.1117 6.85007 25.4295 7.36025 25.4357C8.09879 25.4446 7.89515 24.4133 8.15165 23.7224C8.24106 23.4816 8.36392 23.0999 8.36392 23.0999C8.36392 23.0999 8.64903 23.3028 9.03301 24.101C9.81816 23.6866 12.6471 21.2885 14.3743 20.252C15.0304 19.8583 15.7545 19.5224 16.3933 19.0957C16.3933 14.6665 17.3969 13.7568 17.3969 13.7568C17.3969 13.7568 17.4412 13.8113 17.448 13.8727L17.6127 14.3758C17.8559 15.4068 18.2087 18.2972 19.4043 19.0957C19.4043 18.3741 19.3078 18.1769 19.3384 17.6778C19.3996 16.6762 19.5823 15.6851 20.0652 14.9166C20.3119 14.5242 20.529 14.178 20.9098 13.9237C20.9314 14.8941 21.8022 19.2686 23.1733 19.5417C24.6604 19.8379 21.7585 17.007 23.7054 14.0426C23.9031 13.7416 23.777 13.9219 23.9208 13.7568C24.064 14.3701 24.4107 15.0496 24.6132 15.7357C24.7961 16.3555 24.9322 17.2449 25.0917 17.9279C26.4852 17.8969 28.672 15.7525 29.6082 15.2584C29.6082 15.9121 29.6324 16.2364 29.5126 16.8403C29.3729 17.5445 29.2358 17.6525 29.441 18.0947C30.3367 18.4638 32.1024 16.6035 32.8785 16.0175C35.2417 14.2328 41.9877 13.0903 41.9877 13.0903C41.9877 13.0903 45.1373 12.7558 47.3397 12.7558C46.8192 13.531 44.3149 16.2657 43.2805 16.1432C42.417 16.041 41.9667 15.7815 40.9886 15.7525C39.0986 15.6964 38.6469 15.7697 36.9522 16.2867C36.2235 16.509 35.3416 16.9504 34.6937 17.3504C34.0648 17.7387 33.2884 18.4284 33.2884 18.4284C33.2884 18.4284 37.5796 17.3504 40.7339 18.5101C43.0045 19.1236 42.1375 19.9101 45.9523 16.7109C45.9523 16.7109 50.0341 12.54 50.7589 11.3277C51.4838 10.1154 52.5727 8.52108 52.6926 7.08322C48.3051 4.76773 39.2751 3.0071 34.2967 2.57388C31.1322 2.29851 26.4488 2.27529 23.207 2.70094C20.1069 3.10804 17.6655 0.573026 13.9904 0.205396C11.5287 -0.040851 10.1195 -0.0653281 7.69103 0.405782C5.41744 0.846838 2.1746 2.57852 2.1746 2.57852C2.1746 2.57852 3.57032 3.40965 4.41678 4.01269C6.89801 5.7804 9.10742 7.66733 10.0367 9.41901L7.50442 12.2322C4.62108 15.8284 3.58668 18.9876 2.50917 23.6004L3.45054 22.1686C3.45054 22.1686 4.93146 20.0229 6.02168 18.7617C7.56026 16.9818 10.3713 14.5911 10.3713 14.5911Z" fill="#7C7783"/>
<path d="M25.259 23.2668C21.8378 23.2431 19.6323 23.3601 16.6436 24.8512C13.2597 26.5395 10.3712 32.6099 10.3712 32.6099C10.3712 32.6099 11.1334 31.5464 11.6811 30.9132C13.3486 28.9857 16.7278 26.7705 16.7278 26.7705C16.7278 26.7705 16.2287 27.2911 15.9309 27.644C14.9258 28.8349 14.4338 29.5897 13.7776 31.0021C13.5672 31.455 13.4572 31.7135 13.2896 32.1838C12.6576 33.958 12.356 36.4592 12.5458 36.9478C12.7356 37.4364 12.9501 37.3652 13.0477 36.9478C13.1452 36.5303 13.1241 36.6319 13.2134 36.4457C13.3149 36.2339 13.383 36.1378 13.5495 35.9467C13.6121 36.6967 13.8635 37.6984 14.0189 38.3149C14.2438 39.2068 14.3426 39.8438 14.6304 40.7081C15.837 44.3314 17.2568 45.6506 19.1411 48.055C20.6147 49.9353 21.6272 50.8839 22.7689 53.2792C23.0693 53.9093 23.3937 54.4085 23.833 55.0844L23.8868 55.1673C25.3733 57.4555 28.4358 60.4738 28.4358 60.4738C28.5126 60.5384 28.5501 60.5742 28.7075 60.7034C29.0516 60.9859 29.2242 61.0894 29.5561 61.3585C30.17 61.8564 30.6439 62.2233 31.2784 62.6439C31.6156 62.8675 31.7996 62.9841 32.2305 63.208C32.757 63.4815 33.6899 63.9674 33.6899 63.9674L31.4939 60.9273C30.8561 60.0825 30.3064 59.1045 29.8452 58.067C29.5874 57.4871 29.3486 57.0712 29.1392 56.6023C28.2817 54.6816 28.1823 55.5772 25.4014 53.323L23.0426 51.1709C22.2388 50.3691 21.5456 49.7666 20.8617 48.8414C18.618 45.8062 18.8598 46.3605 17.2297 43.2877C17.9081 43.1301 18.9024 42.2867 18.9024 42.2867C18.9024 42.2867 17.6688 41.6035 16.9319 40.9152C14.7967 38.9207 14.1634 36.5622 14.8486 33.7432C15.4139 31.4177 17.0854 29.1607 18.9971 27.866C21.4198 26.2251 23.7306 25.5654 26.7881 25.7443C27.8689 25.8075 28.9985 25.6693 30.0644 25.815C31.6372 26.0301 34.8152 25.904 36.1863 25.323C37.1353 24.9208 37.5032 24.5889 38.2751 24.0695C39.2911 23.3858 41.6523 20.5974 41.6523 20.5974C41.6523 20.5974 37.6045 23.3701 34.6157 23.7679C32.8687 24.0004 31.8644 23.7183 30.1056 23.605C29.1968 23.5464 28.6893 23.4851 27.7809 23.421C26.7966 23.3516 26.2457 23.2736 25.259 23.2668Z" fill="#7C7783"/>
<path fill-rule="evenodd" clip-rule="evenodd" d="M22.4153 46.7914C22.4153 48.6347 22.3899 49.4265 23.9493 50.4334C24.7263 50.9351 25.8894 51.6297 27.0991 51.6297C26.9738 51.0934 26.9378 50.8836 26.8833 50.175C26.8443 49.6694 26.894 49.4521 26.8265 48.9094C26.6222 47.2653 26.3506 48.3349 25.4263 46.9582C26.24 46.9582 26.243 46.8998 26.7645 46.6245C26.6143 46.0636 26.0709 45.418 25.7608 44.9561C26.4743 43.8935 26.6735 44.5933 26.7731 42.7958C26.8884 40.7186 27.1616 39.8633 27.2693 38.4523L28.1028 34.2783C28.1028 34.2783 27.3825 34.8806 26.955 35.3025C23.5179 38.6945 22.4153 42.0878 22.4153 46.7914Z" fill="#7C7783"/>
<path fill-rule="evenodd" clip-rule="evenodd" d="M36.7024 26.6052L38.734 28.4137C39.2979 28.2012 38.9831 28.254 39.3463 27.9987C39.6471 27.7871 39.777 27.7316 40.165 27.5994C40.6376 28.1702 40.4396 28.1523 40.7815 28.7114C41.1501 28.4669 41.186 28.3829 41.7466 28.2793C41.9639 30.4346 43.2329 30.3646 46.2394 32.1177C47.1612 32.6552 47.9607 33.0153 48.8996 33.5351C50.9507 34.6705 50.6223 34.1261 50.6223 34.1261C50.6223 34.1261 48.3349 30.668 47.6869 29.792C45.8121 27.2577 42.6701 24.0438 42.6701 24.0438L41.6879 23.0578C41.6879 23.0578 40.9431 24.098 39.5748 25.1376C38.991 25.5811 37.5764 26.4437 36.7024 26.6052Z" fill="#7C7783"/>
<path fill-rule="evenodd" clip-rule="evenodd" d="M5.52017 34.1115C6.1049 34.8709 8.58718 39.3578 9.70215 39.4504C8.77768 37.7078 7.08913 34.0592 6.58976 32.0437L6.1049 30.0246C5.85887 29.2749 5.77182 29.2393 5.77182 29.2393C5.77182 29.2393 5.78166 28.8858 4.87142 30.1244C3.59032 31.8676 3.8181 31.9626 4.45462 34.0064C4.97523 35.6778 5.92261 37.6433 6.7749 39.2C7.0271 39.6606 7.2047 39.8822 7.4752 40.3368C9.08698 43.0452 8.32213 40.9459 9.01504 44.3067C9.41539 46.2483 9.67256 47.2197 10.7281 48.5119C11.0782 48.9405 11.5422 49.294 11.5422 49.294C11.8157 48.1229 12.2097 46.9062 12.7132 45.9572C12.7132 45.9572 14.2238 46.8812 15.3122 47.0531C15.6658 47.1089 16.226 47.1251 16.226 47.1251C16.226 47.1251 12.2107 45.0364 10.2744 42.5501C9.41121 41.4417 8.67857 40.7696 7.9997 39.48C7.6943 38.8998 7.36276 38.4444 7.07101 37.7368C6.84162 37.1804 5.56574 34.658 5.52017 34.1115Z" fill="#7C7783"/>
</svg>
