<svg width="1068" height="895" viewBox="0 0 1068 895" fill="none" xmlns="http://www.w3.org/2000/svg">
<path fill-rule="evenodd" clip-rule="evenodd" d="M550.029 202.794C512.078 168.342 469.602 121.894 419.602 115.36C367.818 108.594 356.972 156.798 318.777 172.578C288.966 184.895 236.499 174.243 221.044 197.397C205.598 220.538 245.026 259.738 241.629 288.162C236.444 331.539 156.196 358.74 196.349 404.023C235.563 448.246 315.063 416.343 375.639 439.292C426.108 458.411 463.419 525.02 510.222 522.93C559.08 520.747 533.205 455.347 562.022 430.967C585.623 411.001 646.937 423.677 659.138 396.944C671.321 370.249 640.803 332.428 622.146 299.23C603.269 265.639 582.915 232.648 550.029 202.794Z" stroke="#7C7783" stroke-opacity="0.39"/>
<path opacity="0.95875" fill-rule="evenodd" clip-rule="evenodd" d="M546.691 206.709C507.579 172.908 463.418 127.09 413.784 121.9C362.378 116.524 354.031 165.636 317.127 182.701C288.325 196.02 236.056 186.729 221.942 210.612C207.835 234.481 248.635 273.047 246.671 301.921C243.673 345.986 165.848 375.811 207.661 420.515C248.494 464.172 325.351 429.608 386.218 451.117C436.93 469.038 476.98 535.414 523.041 531.965C571.124 528.364 542.413 462.886 569.648 437.382C591.952 416.495 653.046 427.583 663.776 400.169C674.491 372.795 642.546 335.372 622.525 302.292C602.267 268.82 580.583 235.997 546.691 206.709Z" stroke="#7C7783" stroke-opacity="0.39"/>
<path opacity="0.9175" fill-rule="evenodd" clip-rule="evenodd" d="M543.588 210.766C503.362 177.658 457.571 132.527 408.362 128.685C357.397 124.706 351.559 174.668 315.992 192.996C288.234 207.301 236.226 199.383 223.469 223.965C210.72 248.534 252.843 286.417 252.313 315.707C251.505 360.407 176.199 392.819 219.62 436.889C262.025 479.927 336.145 442.744 397.229 462.788C448.121 479.488 490.86 545.55 536.123 540.746C583.373 535.732 551.862 470.256 577.48 443.659C598.461 421.876 659.26 431.363 668.507 403.302C677.74 375.282 644.407 338.303 623.047 305.38C601.434 272.069 578.445 239.454 543.588 210.766Z" stroke="#7C7783" stroke-opacity="0.39"/>
<path opacity="0.87625" fill-rule="evenodd" clip-rule="evenodd" d="M540.726 214.962C499.435 182.587 452.069 138.198 403.346 135.71C352.883 133.132 349.562 183.883 315.375 203.452C288.694 218.726 237.011 212.19 225.628 237.441C214.25 262.679 257.645 299.835 258.551 329.505C259.934 374.784 187.238 409.745 232.215 453.127C276.138 495.494 347.432 455.737 408.658 474.291C459.668 489.75 505.045 555.418 549.455 549.265C595.814 542.843 561.541 477.449 585.512 449.791C605.143 427.139 665.574 435.013 673.325 406.34C681.066 377.708 646.385 341.217 623.712 308.493C600.77 275.381 576.505 243.016 540.726 214.962Z" stroke="#7C7783" stroke-opacity="0.39"/>
<path opacity="0.835" fill-rule="evenodd" clip-rule="evenodd" d="M538.107 219.292C495.802 187.69 446.919 144.097 398.741 142.965C348.843 141.792 348.041 193.269 315.276 214.056C289.704 230.279 238.41 225.134 228.413 251.024C218.423 276.9 263.036 313.283 265.376 343.296C268.949 389.1 198.952 426.566 245.429 469.208C290.818 510.852 359.198 468.57 420.491 485.612C471.558 499.81 519.517 565.004 563.019 557.511C608.432 549.688 571.438 484.455 593.732 455.77C611.991 432.278 671.979 438.529 678.226 409.277C684.465 380.069 648.479 344.111 624.519 311.625C600.276 278.754 574.765 246.676 538.107 219.292Z" stroke="#7C7783" stroke-opacity="0.39"/>
<path opacity="0.79375" fill-rule="evenodd" clip-rule="evenodd" d="M535.735 223.751C492.468 192.96 442.127 150.215 394.552 150.441C345.279 150.675 346.999 202.816 315.696 224.794C291.265 241.948 240.421 238.199 231.824 264.696C223.231 291.179 269.009 326.745 272.781 357.066C278.538 403.338 211.326 443.264 259.247 485.114C306.046 525.984 371.429 481.228 432.715 496.736C483.777 509.658 534.259 574.298 576.801 565.472C621.211 556.259 581.542 491.268 602.132 461.59C618.995 437.285 678.468 441.906 683.204 412.112C687.933 382.362 650.685 346.981 625.469 314.773C599.954 282.183 573.227 250.432 535.735 223.751Z" stroke="#7C7783" stroke-opacity="0.39"/>
<path opacity="0.7525" fill-rule="evenodd" clip-rule="evenodd" d="M533.613 228.332C489.436 198.39 437.699 156.547 390.785 158.13C342.198 159.769 346.437 212.511 316.634 235.655C293.373 253.717 243.041 251.369 235.854 278.441C228.671 305.499 275.557 340.204 280.756 370.795C288.691 417.48 224.344 459.817 273.651 500.824C321.804 540.87 384.11 493.695 445.315 507.652C496.308 519.28 549.252 583.288 590.782 573.141C634.136 562.548 591.839 497.877 610.701 467.243C626.148 442.156 685.033 445.141 688.251 414.841C691.464 384.585 653.001 349.824 626.559 317.933C599.804 285.664 571.894 254.278 533.613 228.332Z" stroke="#7C7783" stroke-opacity="0.39"/>
<path opacity="0.71125" fill-rule="evenodd" clip-rule="evenodd" d="M531.744 233.032C486.71 203.974 433.64 163.083 387.445 166.022C339.602 169.065 346.355 222.343 318.088 246.623C296.027 265.574 246.268 264.63 240.5 292.243C234.734 319.842 282.671 353.645 289.292 384.469C299.395 431.509 237.993 476.206 288.625 516.319C338.072 555.493 397.226 505.956 458.274 518.344C509.137 528.665 564.479 591.963 604.946 580.507C647.191 568.548 602.319 504.275 619.429 472.723C633.441 446.883 691.666 448.228 693.363 417.46C695.057 386.736 655.423 352.637 627.788 321.101C599.825 289.192 570.766 258.211 531.744 233.032Z" stroke="#7C7783" stroke-opacity="0.39"/>
<path opacity="0.67" fill-rule="evenodd" clip-rule="evenodd" d="M530.129 237.842C484.294 209.705 429.956 169.816 384.536 174.107C337.495 178.551 346.754 232.3 320.058 257.687C299.222 277.502 250.098 277.963 245.755 306.085C241.414 334.192 290.344 367.051 298.377 398.07C310.636 445.409 252.253 492.41 304.149 531.581C354.831 569.835 410.76 517.997 471.578 528.801C522.249 537.802 579.92 600.312 619.276 587.561C660.359 574.25 612.967 510.455 628.304 478.022C640.865 451.461 698.359 451.166 698.532 419.965C698.704 388.811 657.95 355.416 629.155 324.274C600.018 292.764 569.845 262.224 530.129 237.842Z" stroke="#7C7783" stroke-opacity="0.39"/>
<path opacity="0.62875" fill-rule="evenodd" clip-rule="evenodd" d="M528.771 242.759C482.19 215.577 426.65 176.738 382.06 182.375C335.879 188.214 347.633 242.369 322.54 268.833C302.955 289.488 254.525 291.353 251.613 319.949C248.702 348.53 298.566 380.405 308.002 411.581C322.401 459.161 267.109 508.41 320.206 546.591C372.06 583.879 424.696 529.802 485.21 539.009C535.626 546.679 595.558 608.325 633.754 594.295C673.626 579.649 623.77 516.408 637.316 483.135C648.41 455.886 705.104 453.949 703.753 422.355C702.404 390.808 660.578 358.157 630.657 327.448C600.383 296.375 569.133 266.313 528.771 242.759Z" stroke="#7C7783" stroke-opacity="0.39"/>
<path opacity="0.5875" fill-rule="evenodd" clip-rule="evenodd" d="M527.671 247.776C480.402 221.581 423.727 183.84 380.022 190.818C334.757 198.044 348.991 252.539 325.531 280.047C307.222 301.517 259.545 304.785 258.067 333.82C256.59 362.839 307.326 393.691 318.153 424.987C334.677 472.749 282.542 524.187 336.775 561.331C389.738 597.606 439.018 541.357 499.153 548.955C549.254 555.286 611.373 615.993 648.362 600.701C686.975 584.736 634.717 522.128 646.455 488.055C656.068 460.15 711.892 456.575 709.019 424.626C706.15 392.724 663.304 360.858 632.295 330.618C600.918 300.02 568.63 270.474 527.671 247.776Z" stroke="#7C7783" stroke-opacity="0.39"/>
<path opacity="0.54625" fill-rule="evenodd" clip-rule="evenodd" d="M526.831 252.886C478.931 227.711 421.19 191.114 378.423 199.423C334.129 208.028 350.826 262.796 329.029 291.316C312.017 313.574 265.152 318.24 265.11 347.679C265.068 377.102 316.615 406.893 328.82 438.271C347.447 486.157 298.534 539.72 353.836 575.783C407.844 611.002 453.707 552.649 513.39 558.629C563.115 563.612 627.345 623.307 663.082 606.77C700.389 589.508 645.792 527.607 655.708 492.776C663.829 464.25 718.716 459.041 714.324 426.776C709.938 394.558 666.124 363.515 634.064 333.781C601.625 303.695 568.337 274.701 526.831 252.886Z" stroke="#7C7783" stroke-opacity="0.39"/>
<path opacity="0.505" fill-rule="evenodd" clip-rule="evenodd" d="M526.251 258.084C477.779 233.96 419.043 198.551 377.266 208.181C333.997 218.155 353.137 273.13 333.028 302.625C317.334 325.645 271.337 331.703 272.732 361.51C274.125 391.301 326.421 419.995 339.989 451.416C360.696 499.369 315.064 554.991 371.369 589.929C426.356 624.048 468.746 563.663 527.905 568.018C577.193 571.647 643.455 630.256 677.898 612.496C713.853 593.956 656.984 532.84 665.065 497.292C671.684 468.179 725.566 461.342 719.661 428.8C713.764 396.306 669.035 366.124 635.963 336.933C602.5 307.397 568.254 278.989 526.251 258.084Z" stroke="#7C7783" stroke-opacity="0.39"/>
<path opacity="0.46375" fill-rule="evenodd" clip-rule="evenodd" d="M525.933 263.364C476.947 240.319 417.287 206.142 376.551 217.081C334.361 228.411 355.92 283.526 337.524 313.961C323.168 337.714 278.095 345.158 280.924 375.296C283.751 405.418 336.731 432.981 351.646 464.407C374.409 512.367 332.113 569.982 389.352 603.751C445.251 636.73 484.117 574.385 542.679 577.111C591.47 579.381 659.685 636.834 692.79 617.872C727.349 598.077 668.277 537.819 674.515 501.598C679.623 471.934 732.435 463.478 725.023 430.699C717.622 397.968 672.033 368.684 637.99 340.07C603.545 311.119 568.381 283.332 525.933 263.364Z" stroke="#7C7783" stroke-opacity="0.39"/>
<path opacity="0.4225" fill-rule="evenodd" clip-rule="evenodd" d="M525.877 268.718C476.437 246.781 415.926 213.877 376.28 226.113C335.22 238.785 359.172 293.972 342.512 325.31C329.51 349.768 285.417 358.589 289.677 389.021C293.934 419.438 347.534 445.836 363.778 477.229C388.568 525.138 349.66 584.674 407.763 617.234C464.506 649.032 499.8 584.804 557.694 585.896C605.929 586.805 676.013 643.031 707.741 622.89C740.862 601.865 679.659 542.538 684.045 505.688C687.637 475.51 739.315 465.444 730.406 432.468C721.509 399.54 675.116 371.189 640.143 343.189C604.756 314.858 568.718 287.727 525.877 268.718Z" stroke="#7C7783" stroke-opacity="0.39"/>
<path opacity="0.38125" fill-rule="evenodd" clip-rule="evenodd" d="M526.083 274.14C476.249 253.338 414.961 221.747 376.454 235.264C336.573 249.264 362.888 304.456 347.985 336.659C336.353 361.792 293.293 371.977 298.979 402.668C304.662 433.342 358.815 458.542 376.368 489.864C403.156 537.664 367.683 599.05 426.58 630.361C484.098 660.939 515.777 594.906 572.933 594.363C620.552 593.91 692.42 648.84 722.732 627.545C754.375 605.315 691.115 546.992 693.644 509.558C695.715 478.901 746.196 467.239 735.8 434.106C725.42 401.021 678.278 373.638 642.418 346.285C606.133 318.609 569.265 292.166 526.083 274.14Z" stroke="#7C7783" stroke-opacity="0.39"/>
<path opacity="0.34" fill-rule="evenodd" clip-rule="evenodd" d="M526.55 279.624C476.383 259.982 414.393 229.743 377.071 244.525C338.418 259.834 367.066 314.965 353.936 347.993C343.689 373.77 301.715 385.309 308.82 416.22C315.921 447.114 370.563 471.086 389.403 502.298C418.155 549.93 386.162 613.091 445.78 643.115C504.002 672.436 532.028 604.679 588.376 602.501C635.322 600.687 708.886 654.255 737.745 631.831C767.871 608.423 702.632 551.175 703.301 513.203C703.849 482.106 753.07 468.86 741.201 435.611C729.349 402.409 681.517 376.028 644.813 349.355C607.675 322.367 570.021 296.645 526.55 279.624Z" stroke="#7C7783" stroke-opacity="0.39"/>
<path opacity="0.29875" fill-rule="evenodd" clip-rule="evenodd" d="M527.279 285.163C476.84 266.705 414.222 237.854 378.132 253.883C340.754 270.484 371.698 325.485 360.359 359.299C351.509 385.689 310.671 398.566 319.186 429.66C327.697 460.737 382.761 483.452 402.866 514.516C433.548 561.923 405.072 626.781 465.339 655.482C524.195 683.51 548.533 614.11 604.005 610.301C650.221 607.127 725.391 659.268 752.761 635.743C781.334 611.186 714.196 555.082 713.004 516.619C712.027 485.118 759.93 470.306 746.601 436.98C733.293 403.703 684.827 378.355 647.325 352.395C609.378 326.129 570.985 301.158 527.279 285.163Z" stroke="#7C7783" stroke-opacity="0.39"/>
<path opacity="0.2575" fill-rule="evenodd" clip-rule="evenodd" d="M528.267 290.751C477.618 273.499 414.449 246.072 379.635 263.328C343.577 281.2 376.78 336.005 367.245 370.562C359.804 397.533 320.152 411.734 330.067 442.973C339.977 474.194 395.396 495.624 416.74 526.502C449.315 573.626 424.391 640.103 485.234 667.445C544.652 694.146 565.273 623.19 619.8 617.753C665.229 613.224 741.914 663.873 767.764 639.276C794.748 613.599 725.792 558.709 722.74 519.8C720.241 487.935 766.766 471.575 751.995 438.213C737.245 404.9 688.206 380.617 649.951 355.402C611.242 329.888 572.156 305.7 528.267 290.751Z" stroke="#7C7783" stroke-opacity="0.39"/>
<path opacity="0.21625" fill-rule="evenodd" clip-rule="evenodd" d="M529.515 296.38C478.716 280.355 415.074 254.385 381.577 272.847C346.884 291.969 382.306 346.511 374.587 381.77C368.562 409.289 330.145 424.796 341.448 456.141C352.745 487.47 408.451 507.588 431.01 538.243C465.437 585.026 444.096 653.041 505.44 678.991C565.348 704.333 582.227 631.905 635.743 624.848C680.33 618.969 758.437 668.066 782.733 642.426C808.096 615.661 737.406 562.051 732.499 522.744C728.48 490.553 773.571 472.664 757.375 439.308C741.202 406 691.65 382.811 652.687 358.371C613.264 333.642 573.533 310.265 529.515 296.38Z" stroke="#7C7783" stroke-opacity="0.39"/>
<path opacity="0.175" fill-rule="evenodd" clip-rule="evenodd" d="M531.02 302.043C480.134 287.265 416.096 262.784 383.957 282.43C350.671 302.778 388.269 356.991 382.374 392.909C377.774 420.942 340.639 437.736 353.316 469.15C365.986 500.547 421.911 519.329 445.657 549.724C481.894 596.109 464.162 665.579 525.933 690.105C586.258 714.057 599.374 640.247 651.814 631.578C695.505 624.356 774.937 671.84 797.651 645.189C821.362 617.369 749.024 565.103 742.267 525.447C736.733 492.97 780.336 473.574 762.734 440.263C745.158 407.001 695.153 384.934 655.531 361.299C615.441 337.385 575.113 314.848 531.02 302.043Z" stroke="#7C7783" stroke-opacity="0.39"/>
<path opacity="0.13375" fill-rule="evenodd" clip-rule="evenodd" d="M532.781 307.734C481.87 294.221 417.514 271.258 386.772 292.065C354.934 313.613 394.661 367.431 390.599 403.964C387.428 432.478 351.62 450.538 365.655 481.982C379.683 513.409 435.76 530.834 460.663 560.931C498.667 606.862 484.565 677.702 546.688 700.775C607.356 723.307 616.693 648.204 667.993 637.934C710.735 629.378 791.397 675.191 812.5 647.562C834.53 618.719 760.633 567.863 752.034 527.905C744.992 495.181 787.052 474.302 768.067 441.078C749.109 407.902 698.711 386.983 658.479 364.182C617.771 341.112 576.895 319.443 532.781 307.734Z" stroke="#7C7783" stroke-opacity="0.39"/>
<path opacity="0.0925" fill-rule="evenodd" clip-rule="evenodd" d="M534.795 313.446C483.921 301.214 419.325 279.798 390.019 301.739C359.666 324.463 401.475 377.819 399.25 414.923C397.513 443.882 363.075 463.187 378.452 494.623C393.821 526.042 449.981 542.087 476.011 571.85C515.735 617.271 505.281 689.395 567.679 710.986C628.617 732.071 634.163 655.767 684.261 643.908C726.001 634.028 807.794 678.116 827.262 649.541C847.584 619.712 772.217 570.326 761.787 530.116C753.246 497.185 793.712 474.848 773.367 441.75C753.05 408.701 702.321 388.957 661.527 367.018C620.25 344.819 578.877 324.045 534.795 313.446Z" stroke="#7C7783" stroke-opacity="0.39"/>
<path opacity="0.05125" fill-rule="evenodd" clip-rule="evenodd" d="M537.06 319.171C486.285 308.236 421.528 288.393 393.692 311.441C364.863 335.312 408.702 388.143 408.317 425.772C408.016 455.141 374.991 475.667 391.69 507.057C408.381 538.43 464.556 553.075 491.681 582.467C533.078 627.323 526.284 700.643 588.881 720.726C650.014 740.339 651.763 662.926 700.598 649.494C741.285 638.302 824.11 680.61 841.918 651.125C860.508 620.346 783.763 572.491 771.515 532.076C761.484 498.978 800.308 475.211 778.627 442.281C756.976 409.398 705.978 390.853 664.672 369.802C622.877 348.502 581.056 328.647 537.06 319.171Z" stroke="#7C7783" stroke-opacity="0.39"/>
<path opacity="0.01" fill-rule="evenodd" clip-rule="evenodd" d="M539.572 324.903C488.959 315.277 424.119 297.031 397.788 321.159C370.517 346.148 416.333 398.389 417.788 436.498C418.924 466.241 387.351 487.963 405.353 519.268C423.346 550.557 479.466 563.785 507.654 592.771C550.672 637.006 547.546 711.433 610.268 729.984C671.521 748.1 669.471 669.673 716.983 654.683C756.568 642.193 840.324 682.669 856.45 652.31C873.285 620.618 795.255 574.353 781.204 533.784C769.696 500.559 806.831 475.39 783.839 442.667C760.882 409.992 709.676 392.668 667.908 372.531C625.646 352.156 583.429 333.244 539.572 324.903Z" stroke="#7C7783" stroke-opacity="0.39"/>
</svg>
