<svg width="29" height="37" viewBox="0 0 29 37" fill="none" xmlns="http://www.w3.org/2000/svg">
<path fill-rule="evenodd" clip-rule="evenodd" d="M9.94285 6.59075C9.94285 6.59075 10.24 6.88407 10.4707 7.00274C11.0332 7.29211 11.3947 7.2553 12.0751 6.99252C12.6597 6.76675 12.6337 6.39243 12.7962 5.61315C13.0104 4.58572 12.6959 5.03638 12.3673 5.26459C11.7363 5.7028 9.94285 6.59075 9.94285 6.59075ZM2.7619 3.59761C2.74392 3.57875 2.37594 3.57796 2.56947 3.7324C2.66714 3.8103 2.81572 3.65406 2.7619 3.59761ZM3.31429 3.50107C3.06571 3.52275 3.06383 3.54635 2.85396 3.59761C2.95285 3.66342 2.85578 3.65272 3.04616 3.6857C3.12968 3.70018 3.22902 3.69416 3.31429 3.69416V3.50107ZM3.95872 3.4045C3.64964 3.25458 3.67532 3.32052 3.49842 3.59761L3.95872 3.4045ZM3.95872 3.4045H4.32699C4.24452 3.14367 4.37645 3.28026 4.18597 3.28989C3.79888 3.30943 4.06064 3.33024 3.95872 3.4045ZM4.78728 3.21141H4.41904C4.59117 3.32594 4.21348 3.31997 4.60318 3.29104C4.79963 3.27645 4.68544 3.27919 4.78728 3.21141ZM4.69523 3.11484C5.17574 3.11484 5.54951 2.96574 5.99152 2.92947L9.96861 2.46597C10.8623 2.34443 11.8744 2.35448 12.7194 2.26125L15.4667 1.95621C15.1752 1.95621 15.0271 1.89468 14.834 1.9001C10.8541 2.01137 9.30637 2.10769 5.32988 2.91143L4.8842 3.02336C4.67874 3.10132 4.79856 3.04608 4.69523 3.11484ZM21.9111 1.28032C22.0488 1.48808 21.9246 1.40747 22.1873 1.47343C22.0459 1.26004 22.1722 1.35343 21.9111 1.28032ZM19.9778 2.72861C19.776 2.4126 19.4374 2.26839 19.3333 1.85964C20.5663 1.23918 20.2957 1.98407 21.0825 2.05275C21.0661 2.03775 21.0393 1.99283 21.032 2.00926L20.4381 1.37689C20.8945 1.14718 21.2557 1.04612 21.8191 1.18377C21.7288 0.954692 21.6123 1.03183 21.9757 0.876077C21.9757 0.876077 24.7222 0.609 24.097 0.609C23.4718 0.609 22.9889 0.541306 22.2837 0.609C20.6808 0.76287 19.3434 1.3309 18.346 1.88632L18.2286 1.95621C19.2361 2.20237 19.5741 2.61559 19.9778 2.72861ZM23.2921 8.42527C23.2921 8.42527 23.9125 9.07115 24.278 9.51536C25.0537 10.458 26.0249 12.1248 26.0249 12.1248C27.3224 14.4077 28.7871 17.4247 29 20.1082C28.6547 19.6545 28.4475 19.401 28.0243 18.8142L26.5777 16.7588C26.5777 16.7588 26.2598 16.3176 26.0954 16.0095C25.8451 15.3091 25.8248 14.7247 25.5016 14.2184C25.0812 14.5137 25.23 14.6976 24.9492 14.7012C24.5427 14.7063 24.6548 14.1095 24.5136 13.7097C24.4644 13.5703 24.3968 13.3494 24.3968 13.3494C24.3968 13.3494 24.2399 13.4669 24.0286 13.9288C23.5965 13.689 22.0395 12.3012 21.089 11.7013C20.7279 11.4734 20.3293 11.2791 19.9778 11.0322C19.9778 8.46893 19.4254 7.94247 19.4254 7.94247C19.4254 7.94247 19.401 7.97398 19.3973 8.00953L19.3066 8.3007C19.1728 8.89734 18.9786 10.5701 18.3206 11.0322C18.3206 10.6145 18.3737 10.5004 18.3569 10.2116C18.3232 9.63194 18.2227 9.0584 17.9569 8.61365C17.8211 8.38654 17.7016 8.18622 17.4921 8.03904C17.4801 8.60065 17.0009 11.1322 16.2463 11.2902C15.4278 11.4617 17.025 9.82337 15.9534 8.10783C15.8447 7.93363 15.9141 8.03798 15.8349 7.94247C15.7561 8.29736 15.5653 8.6906 15.4538 9.08766C15.3532 9.44633 15.2783 9.96108 15.1905 10.3563C14.4236 10.3384 13.22 9.09738 12.7048 8.81145C12.7048 9.18974 12.6915 9.37741 12.7574 9.7269C12.8343 10.1344 12.9097 10.1969 12.7968 10.4529C12.3038 10.6664 11.332 9.5899 10.9049 9.25075C9.60431 8.21792 5.89161 7.55676 5.89161 7.55676C5.89161 7.55676 4.15818 7.36315 2.94604 7.36315C3.23249 7.81179 4.6108 9.39438 5.18007 9.32351C5.65532 9.26433 5.90314 9.11416 6.44143 9.09738C7.48165 9.06492 7.73023 9.10733 8.66293 9.40654C9.06398 9.53519 9.54935 9.79064 9.90594 10.0221C10.2521 10.2468 10.6794 10.646 10.6794 10.646C10.6794 10.646 8.31765 10.0221 6.58161 10.6933C5.332 11.0483 5.80913 11.5035 3.70962 9.65203C3.70962 9.65203 1.46314 7.23828 1.06423 6.53671C0.665318 5.83515 0.0660324 4.91247 0 4.08036C2.41472 2.74036 7.38447 1.72146 10.1244 1.47075C11.866 1.31139 14.4436 1.29795 16.2278 1.54428C17.9339 1.77987 19.2776 0.312827 21.3002 0.100074C22.655 -0.0424323 23.4306 -0.0565974 24.7672 0.21604C26.0184 0.471285 27.8032 1.47343 27.8032 1.47343C27.8032 1.47343 27.035 1.95442 26.5692 2.30341C25.2036 3.3264 23.9876 4.41839 23.4762 5.43212L24.8699 7.06016C26.4567 9.14132 27.026 10.9696 27.619 13.6391L27.101 12.8104C27.101 12.8104 26.2859 11.5687 25.6859 10.8389C24.8391 9.8088 23.2921 8.42527 23.2921 8.42527Z" fill="#D2B5F8"/>
<path d="M15.0984 13.446C16.9813 13.4323 18.1951 13.5 19.84 14.3629C21.7024 15.34 23.2921 18.853 23.2921 18.853C23.2921 18.853 22.8726 18.2375 22.5712 17.8711C21.6535 16.7556 19.7936 15.4736 19.7936 15.4736C19.7936 15.4736 20.0684 15.775 20.2323 15.9792C20.7854 16.6684 21.0562 17.1051 21.4173 17.9225C21.5331 18.1846 21.5937 18.3343 21.6859 18.6064C22.0338 19.6332 22.1997 21.0806 22.0953 21.3634C21.9908 21.6462 21.8728 21.605 21.8191 21.3634C21.7654 21.1218 21.777 21.1806 21.7278 21.0728C21.672 20.9503 21.6345 20.8946 21.5429 20.7841C21.5084 21.2181 21.3701 21.7978 21.2845 22.1545C21.1608 22.6707 21.1064 23.0393 20.948 23.5395C20.2839 25.6364 19.5025 26.3998 18.4655 27.7912C17.6544 28.8795 17.0972 29.4284 16.4689 30.8146C16.3036 31.1792 16.125 31.4681 15.8833 31.8593L15.8536 31.9072C15.0355 33.2314 13.35 34.9782 13.35 34.9782C13.3077 35.0156 13.2871 35.0363 13.2005 35.1111C13.0111 35.2746 12.9161 35.3344 12.7335 35.4902C12.3956 35.7783 12.1348 35.9907 11.7856 36.2341C11.6 36.3634 11.4987 36.431 11.2616 36.5605C10.9718 36.7188 10.4584 37 10.4584 37L11.667 35.2407C12.018 34.7517 12.3205 34.1858 12.5744 33.5854C12.7162 33.2497 12.8477 33.0091 12.9629 32.7377C13.4349 31.6262 13.4896 32.1444 15.0201 30.8399L16.3183 29.5945C16.7606 29.1305 17.1422 28.7818 17.5185 28.2464C18.7534 26.4899 18.6203 26.8106 19.5175 25.0324C19.1441 24.9412 18.5968 24.4531 18.5968 24.4531C18.5968 24.4531 19.2757 24.0577 19.6813 23.6594C20.8565 22.5052 21.205 21.1402 20.8279 19.5088C20.5168 18.163 19.5968 16.8569 18.5447 16.1076C17.2114 15.158 15.9396 14.7763 14.2568 14.8798C13.662 14.9163 13.0404 14.8364 12.4537 14.9207C11.5881 15.0451 9.83906 14.9722 9.08445 14.6359C8.56217 14.4032 8.35968 14.2111 7.93485 13.9106C7.37569 13.5149 6.07619 11.9012 6.07619 11.9012C6.07619 11.9012 8.30391 13.5058 9.94886 13.736C10.9103 13.8706 11.4631 13.7073 12.431 13.6417C12.9312 13.6078 13.2105 13.5723 13.7105 13.5353C14.2522 13.4951 14.5554 13.45 15.0984 13.446Z" fill="#D2B5F8"/>
<path fill-rule="evenodd" clip-rule="evenodd" d="M16.6635 27.06C16.6635 28.1268 16.6775 28.585 15.8192 29.1677C15.3916 29.4581 14.7515 29.86 14.0857 29.86C14.1547 29.5497 14.1745 29.4282 14.2045 29.0181C14.2259 28.7256 14.1986 28.5998 14.2357 28.2857C14.3482 27.3343 14.4977 27.9532 15.0064 27.1566C14.5585 27.1566 14.5569 27.1228 14.2698 26.9634C14.3525 26.6388 14.6516 26.2652 14.8222 25.9979C14.4296 25.383 14.32 25.7879 14.2651 24.7477C14.2017 23.5456 14.0513 23.0506 13.992 22.2341L13.5333 19.8185C13.5333 19.8185 13.9297 20.1671 14.165 20.4113C16.0566 22.3742 16.6635 24.338 16.6635 27.06Z" fill="#D2B5F8"/>
<path fill-rule="evenodd" clip-rule="evenodd" d="M8.80042 15.378L7.6823 16.4246C7.37194 16.3016 7.54521 16.3322 7.3453 16.1844C7.17974 16.062 7.10827 16.0299 6.89473 15.9534C6.63464 16.2837 6.74357 16.2733 6.55546 16.5969C6.35258 16.4554 6.3328 16.4068 6.02427 16.3468C5.90469 17.5941 5.20627 17.5536 3.55159 18.5681C3.04428 18.8792 2.6043 19.0876 2.08755 19.3884C0.958694 20.0455 1.13943 19.7305 1.13943 19.7305C1.13943 19.7305 2.39832 17.7292 2.75498 17.2222C3.7868 15.7556 5.51604 13.8957 5.51604 13.8957L6.05658 13.3251C6.05658 13.3251 6.46651 13.927 7.21958 14.5287C7.54083 14.7853 8.31941 15.2845 8.80042 15.378Z" fill="#D2B5F8"/>
<path fill-rule="evenodd" clip-rule="evenodd" d="M25.9619 19.722C25.6401 20.1615 24.2739 22.7581 23.6603 22.8117C24.1691 21.8032 25.0984 19.6917 25.3733 18.5253L25.6401 17.3569C25.7755 16.923 25.8234 16.9024 25.8234 16.9024C25.8234 16.9024 25.818 16.6978 26.319 17.4146C27.024 18.4234 26.8987 18.4784 26.5484 19.6612C26.2618 20.6285 25.7404 21.7659 25.2714 22.6668C25.1326 22.9333 25.0348 23.0615 24.8859 23.3246C23.9989 24.892 24.4198 23.6772 24.0385 25.6221C23.8181 26.7457 23.6766 27.3079 23.0957 28.0557C22.903 28.3037 22.6476 28.5083 22.6476 28.5083C22.4971 27.8306 22.2802 27.1264 22.0032 26.5772C22.0032 26.5772 21.1718 27.112 20.5727 27.2115C20.3781 27.2438 20.0698 27.2531 20.0698 27.2531C20.0698 27.2531 22.2797 26.0444 23.3454 24.6055C23.8204 23.964 24.2236 23.5751 24.5973 22.8288C24.7654 22.4931 24.9478 22.2295 25.1084 21.82C25.2346 21.498 25.9368 20.0383 25.9619 19.722Z" fill="#D2B5F8"/>
</svg>
