<svg width="24" height="24" viewBox="0 0 24 24" fill="none" xmlns="http://www.w3.org/2000/svg">
<path d="M12.0039 6.53413C13.7862 6.53413 13.9973 6.54194 14.6982 6.5732C15.3497 6.60185 15.7014 6.71125 15.9359 6.80241C16.246 6.92223 16.4701 7.06809 16.702 7.2999C16.9365 7.53432 17.0798 7.75572 17.1997 8.06568C17.2909 8.3001 17.4003 8.65434 17.429 9.3029C17.4603 10.0062 17.4681 10.2171 17.4681 11.9961C17.4681 13.7777 17.4603 13.9887 17.429 14.6894C17.4003 15.3405 17.2909 15.6922 17.1997 15.9266C17.0798 16.2365 16.9339 16.4605 16.702 16.6924C16.4675 16.9268 16.246 17.07 15.9359 17.1899C15.7014 17.281 15.3471 17.3904 14.6982 17.4191C13.9947 17.4503 13.7836 17.4581 12.0039 17.4581C10.2217 17.4581 10.0106 17.4503 9.30966 17.4191C8.65824 17.3904 8.30647 17.281 8.07196 17.1899C7.76188 17.07 7.53779 16.9242 7.30588 16.6924C7.07137 16.4579 6.92806 16.2365 6.8082 15.9266C6.717 15.6922 6.60756 15.3379 6.5789 14.6894C6.54763 13.9861 6.53981 13.7751 6.53981 11.9961C6.53981 10.2145 6.54763 10.0036 6.5789 9.3029C6.60756 8.65173 6.717 8.3001 6.8082 8.06568C6.92806 7.75572 7.07398 7.53172 7.30588 7.2999C7.5404 7.06548 7.76188 6.92223 8.07196 6.80241C8.30647 6.71125 8.66084 6.60185 9.30966 6.5732C10.0106 6.54194 10.2217 6.53413 12.0039 6.53413ZM12.0039 5.33337C10.193 5.33337 9.9663 5.34119 9.25494 5.37244C8.54619 5.4037 8.05893 5.51831 7.63681 5.6824C7.19644 5.85431 6.82383 6.08092 6.45382 6.45338C6.08121 6.82325 5.85451 7.19572 5.68254 7.6333C5.51838 8.05786 5.40373 8.54233 5.37246 9.25081C5.34119 9.96449 5.33337 10.1911 5.33337 12.0013C5.33337 13.8116 5.34119 14.0382 5.37246 14.7493C5.40373 15.4577 5.51838 15.9448 5.68254 16.3668C5.85451 16.807 6.08121 17.1794 6.45382 17.5493C6.82383 17.9192 7.19644 18.1484 7.6342 18.3177C8.05893 18.4818 8.54359 18.5964 9.25234 18.6276C9.96369 18.6589 10.1904 18.6667 12.0013 18.6667C13.8123 18.6667 14.039 18.6589 14.7503 18.6276C15.4591 18.5964 15.9464 18.4818 16.3685 18.3177C16.8062 18.1484 17.1789 17.9192 17.5489 17.5493C17.9189 17.1794 18.1482 16.807 18.3175 16.3694C18.4817 15.9448 18.5964 15.4604 18.6276 14.7519C18.6589 14.0408 18.6667 13.8142 18.6667 12.0039C18.6667 10.1937 18.6589 9.96709 18.6276 9.25602C18.5964 8.54754 18.4817 8.06047 18.3175 7.63851C18.1534 7.19572 17.9267 6.82325 17.5541 6.45338C17.1841 6.08352 16.8115 5.85431 16.3737 5.68501C15.949 5.52091 15.4643 5.4063 14.7556 5.37505C14.0416 5.34119 13.8149 5.33337 12.0039 5.33337Z" fill="#7C7783"/>
<path d="M12.0039 8.57619C10.1122 8.57619 8.57746 10.1103 8.57746 12.0013C8.57746 13.8923 10.1122 15.4265 12.0039 15.4265C13.8957 15.4265 15.4304 13.8923 15.4304 12.0013C15.4304 10.1103 13.8957 8.57619 12.0039 8.57619ZM12.0039 14.2231C10.7767 14.2231 9.78129 13.2281 9.78129 12.0013C9.78129 10.7745 10.7767 9.77955 12.0039 9.77955C13.2312 9.77955 14.2266 10.7745 14.2266 12.0013C14.2266 13.2281 13.2312 14.2231 12.0039 14.2231Z" fill="#7C7783"/>
<path d="M16.3659 8.44073C16.3659 8.88352 16.0063 9.24036 15.5659 9.24036C15.123 9.24036 14.766 8.88092 14.766 8.44073C14.766 7.99793 15.1256 7.64109 15.5659 7.64109C16.0063 7.64109 16.3659 8.00054 16.3659 8.44073Z" fill="#7C7783"/>
<rect x="0.75" y="0.75" width="22.5" height="22.5" rx="5.25" stroke="#7C7783" stroke-width="1.5"/>
</svg>
