<svg width="102" height="127" viewBox="0 0 102 127" fill="none" xmlns="http://www.w3.org/2000/svg">
<path fill-rule="evenodd" clip-rule="evenodd" d="M34.9714 22.6223C34.9714 22.6223 36.0165 23.6291 36.8279 24.0364C38.8066 25.0297 40.078 24.9033 42.4712 24.0014C44.5271 23.2264 44.4358 21.9416 45.0073 19.2668C45.7607 15.7402 44.6544 17.287 43.4987 18.0704C41.2793 19.5745 34.9714 22.6223 34.9714 22.6223ZM9.71428 12.3486C9.65102 12.2838 8.35675 12.2811 9.03745 12.8112C9.38097 13.0786 9.90357 12.5423 9.71428 12.3486ZM11.6571 12.0172C10.7828 12.0916 10.7762 12.1726 10.0381 12.3486C10.3859 12.5744 10.0445 12.5377 10.7141 12.6509C11.0078 12.7006 11.3572 12.68 11.6571 12.68V12.0172ZM13.9238 11.6857C12.8367 11.1711 12.927 11.3975 12.3048 12.3486L13.9238 11.6857ZM13.9238 11.6857H15.2191C14.929 10.7904 15.393 11.2593 14.7231 11.2923C13.3616 11.3594 14.2823 11.4308 13.9238 11.6857ZM16.838 11.023H15.5428C16.1483 11.4161 14.8198 11.3956 16.1905 11.2963C16.8815 11.2462 16.4798 11.2556 16.838 11.023ZM16.5143 10.6915C18.2043 10.6915 19.519 10.1797 21.0736 10.0552L35.062 8.46427C38.2052 8.04711 41.7652 8.0816 44.7374 7.76159L54.4 6.71456C53.375 6.71456 52.8538 6.50335 52.1746 6.52195C38.1763 6.90388 32.7328 7.2345 18.7465 9.9933L17.1789 10.3775C16.4563 10.6451 16.8777 10.4555 16.5143 10.6915ZM77.0667 4.3946C77.5509 5.10772 77.114 4.83103 78.0381 5.05746C77.5408 4.32499 77.985 4.64556 77.0667 4.3946ZM70.2667 9.36579C69.557 8.28107 68.366 7.78611 68 6.38308C72.3368 4.25339 71.385 6.8102 74.1524 7.04594C74.0945 6.99445 74.0003 6.84026 73.9747 6.89664L71.8857 4.72609C73.4911 3.93762 74.7615 3.59073 76.7429 4.06323C76.4255 3.27691 76.0156 3.54168 77.2937 3.00707C77.2937 3.00707 86.954 2.09035 84.755 2.09035C82.556 2.09035 80.8575 1.85799 78.3771 2.09035C72.7392 2.6185 68.0353 4.56824 64.5274 6.47468L64.1143 6.71456C67.6579 7.5595 68.8469 8.97785 70.2667 9.36579ZM81.9238 28.9192C81.9238 28.9192 84.106 31.1361 85.3917 32.6608C88.12 35.8963 91.5358 41.6174 91.5358 41.6174C96.0996 49.4534 101.251 59.809 102 69.0199C100.786 67.4627 100.057 66.5926 98.5681 64.5783L93.4803 57.5236C93.4803 57.5236 92.3622 56.009 91.7838 54.9515C90.9034 52.5474 90.8322 50.5415 89.6952 48.8038C88.2167 49.8172 88.7399 50.4486 87.7524 50.4608C86.3227 50.4785 86.7169 48.4298 86.2204 47.0576C86.0473 46.5793 85.8095 45.8211 85.8095 45.8211C85.8095 45.8211 85.2576 46.2241 84.5143 47.8095C82.9945 46.9865 77.5183 42.2229 74.175 40.164C72.9049 39.3818 71.5032 38.7147 70.2667 37.8672C70.2667 29.069 68.3238 27.262 68.3238 27.262C68.3238 27.262 68.2382 27.3701 68.2249 27.4922L67.9061 28.4916C67.4354 30.5395 66.7524 36.281 64.4381 37.8672C64.4381 36.4337 64.6248 36.0419 64.5657 35.0505C64.4472 33.061 64.0935 31.0924 63.1587 29.5658C62.6812 28.7862 62.261 28.0987 61.5238 27.5935C61.4819 29.5211 59.7963 38.2106 57.1421 38.753C54.2634 39.3413 59.881 33.718 56.1121 27.8296C55.7295 27.2317 55.9736 27.5898 55.6953 27.262C55.418 28.4801 54.7469 29.8299 54.3549 31.1928C54.0008 32.4239 53.7374 34.1907 53.4286 35.5473C50.7312 35.4858 46.498 31.2261 44.6858 30.2447C44.6858 31.5431 44.639 32.1873 44.8708 33.3869C45.1412 34.7857 45.4066 35.0002 45.0096 35.8787C43.2755 36.6118 39.8575 32.9167 38.3553 31.7526C33.7807 28.2075 20.7222 25.9381 20.7222 25.9381C20.7222 25.9381 14.6253 25.2735 10.3619 25.2735C11.3694 26.8134 16.2173 32.2456 18.2196 32.0023C19.8911 31.7992 20.7628 31.2837 22.6561 31.2262C26.3148 31.1147 27.1891 31.2603 30.4696 32.2873C31.8802 32.7289 33.5873 33.6057 34.8416 34.4003C36.059 35.1716 37.5619 36.5416 37.5619 36.5416C37.5619 36.5416 29.2552 34.4003 23.1491 36.7039C18.7539 37.9224 20.4321 39.4849 13.0476 33.13C13.0476 33.13 5.14622 24.8449 3.74316 22.4368C2.34008 20.0288 0.232254 16.8617 0 14.0056C8.49316 9.40609 25.973 5.90879 35.6101 5.04825C41.7357 4.50124 50.8017 4.45512 57.0769 5.30063C63.078 6.1093 67.804 1.07376 74.918 0.343498C79.6832 -0.145646 82.4111 -0.194267 87.1121 0.741543C91.5132 1.61766 97.7905 5.05746 97.7905 5.05746C97.7905 5.05746 95.0887 6.70841 93.4502 7.90629C88.6471 11.4177 84.3703 15.1658 82.5714 18.6454L87.4733 24.2335C93.0547 31.377 95.0571 37.6524 97.1429 46.8153L95.3206 43.971C95.3206 43.971 92.4539 39.7089 90.3435 37.2037C87.3652 33.668 81.9238 28.9192 81.9238 28.9192Z" fill="white"/>
<path d="M53.1048 46.1526C59.7273 46.1056 63.9967 46.338 69.7822 49.2998C76.3326 52.6534 81.9238 64.7116 81.9238 64.7116C81.9238 64.7116 80.4485 62.5991 79.3882 61.3414C76.1604 57.5125 69.619 53.1122 69.619 53.1122C69.619 53.1122 70.5853 54.1465 71.1617 54.8474C73.1073 57.2131 74.0598 58.7123 75.3299 61.5179C75.7372 62.4175 75.9502 62.9311 76.2745 63.8653C77.4981 67.3895 78.0818 72.3578 77.7143 73.3284C77.3469 74.299 76.9317 74.1576 76.7429 73.3284C76.5541 72.4991 76.5949 72.701 76.4221 72.331C76.2255 71.9103 76.0938 71.7194 75.7715 71.3399C75.6503 72.8296 75.1638 74.8193 74.8628 76.044C74.4275 77.8157 74.2363 79.081 73.6791 80.7978C71.3434 87.9951 68.5951 90.6157 64.9476 95.3916C62.0949 99.1268 60.1351 101.011 57.925 105.769C57.3436 107.021 56.7156 108.012 55.8653 109.355L55.761 109.519C52.8835 114.065 46.9553 120.06 46.9553 120.06C46.8066 120.189 46.734 120.26 46.4294 120.516C45.7633 121.078 45.4292 121.283 44.7867 121.818C43.5982 122.807 42.6809 123.536 41.4528 124.371C40.8 124.815 40.4437 125.047 39.6096 125.492C38.5905 126.035 36.7847 127 36.7847 127L41.0356 120.961C42.2701 119.283 43.3343 117.34 44.2271 115.28C44.7261 114.127 45.1883 113.302 45.5937 112.37C47.2536 108.555 47.446 110.334 52.8292 105.856L57.3952 101.581C58.9511 99.9883 60.2931 98.7916 61.6169 96.9539C65.9601 90.9248 65.4921 92.0257 68.6476 85.922C67.3343 85.6089 65.4096 83.9335 65.4096 83.9335C65.4096 83.9335 67.7975 82.5765 69.2239 81.2092C73.3572 77.2474 74.5831 72.5624 73.2567 66.9627C72.1626 62.3434 68.9268 57.8601 65.2263 55.2883C60.5365 52.0289 56.0634 50.7185 50.1448 51.0738C48.0527 51.1993 45.8661 50.9249 43.8028 51.2143C40.7582 51.6414 34.6063 51.3911 31.9522 50.2369C30.1152 49.438 29.403 48.7788 27.9088 47.7471C25.9421 46.389 21.3714 40.85 21.3714 40.85C21.3714 40.85 29.2068 46.3578 34.9926 47.1479C38.3742 47.6098 40.3184 47.0494 43.7229 46.8243C45.4822 46.7079 46.4645 46.5861 48.223 46.4589C50.1283 46.3211 51.1948 46.1661 53.1048 46.1526Z" fill="white"/>
<path fill-rule="evenodd" clip-rule="evenodd" d="M58.6095 92.8817C58.6095 96.5432 58.6587 98.1161 55.6401 100.116C54.136 101.113 51.8845 102.493 49.5428 102.493C49.7854 101.427 49.855 101.01 49.9606 99.6028C50.036 98.5986 49.9399 98.1668 50.0704 97.0888C50.466 93.823 50.9918 95.9476 52.781 93.2131C51.2058 93.2131 51.2001 93.097 50.1905 92.5502C50.4812 91.436 51.5331 90.1535 52.1333 89.2361C50.7523 87.1253 50.3667 88.5153 50.1738 84.9449C49.9507 80.8187 49.4217 79.1197 49.2134 76.3169L47.6 68.0257C47.6 68.0257 48.9941 69.2222 49.8217 70.0602C56.475 76.798 58.6095 83.5385 58.6095 92.8817Z" fill="white"/>
<path fill-rule="evenodd" clip-rule="evenodd" d="M30.9532 52.784L27.0205 56.3763C25.9289 55.9543 26.5383 56.0591 25.8352 55.5519C25.2529 55.1317 25.0015 55.0214 24.2504 54.7589C23.3356 55.8927 23.7188 55.8571 23.0571 56.9677C22.3436 56.482 22.274 56.3151 21.1888 56.1093C20.7682 60.3905 18.3117 60.2515 12.4918 63.7339C10.7075 64.8015 9.15996 65.517 7.34244 66.5495C3.37196 68.8049 4.00767 67.7235 4.00767 67.7235C4.00767 67.7235 8.43548 60.8542 9.68995 59.1142C13.3191 54.0801 19.4012 47.6961 19.4012 47.6961L21.3024 45.7374C21.3024 45.7374 22.7443 47.8036 25.393 49.8687C26.5229 50.7496 29.2614 52.4631 30.9532 52.784Z" fill="white"/>
<path fill-rule="evenodd" clip-rule="evenodd" d="M91.3143 67.6944C90.1824 69.2029 85.3773 78.1157 83.219 78.2996C85.0086 74.8381 88.2772 67.5905 89.2438 63.5869L90.1824 59.5763C90.6587 58.0871 90.8272 58.0163 90.8272 58.0163C90.8272 58.0163 90.8081 57.3141 92.5701 59.7744C95.05 63.2371 94.6091 63.4259 93.377 67.4856C92.3692 70.8058 90.5353 74.71 88.8855 77.8022C88.3973 78.7171 88.0535 79.1572 87.5298 80.0603C84.4098 85.4403 85.8904 81.2702 84.5491 87.946C83.7741 91.8028 83.2763 93.7326 81.2331 96.2992C80.5554 97.1506 79.6572 97.8529 79.6572 97.8529C79.1277 95.5266 78.365 93.1096 77.3904 91.2246C77.3904 91.2246 74.4662 93.0602 72.3593 93.4015C71.6749 93.5124 70.5905 93.5444 70.5905 93.5444C70.5905 93.5444 78.3632 89.3956 82.1113 84.4568C83.7822 82.255 85.2004 80.92 86.5145 78.3583C87.1057 77.2059 87.7475 76.3013 88.3123 74.8957C88.7563 73.7905 91.2261 68.78 91.3143 67.6944Z" fill="white"/>
</svg>
