<svg width="43" height="9" viewBox="0 0 43 9" fill="none" xmlns="http://www.w3.org/2000/svg">
<path d="M5.85218 0.765817C5.80698 0.802046 5.7627 0.839374 5.71942 0.877769C4.97994 1.53332 4.51187 2.49839 4.51187 3.57546C4.51187 4.65257 4.97994 5.61764 5.71942 6.27319C5.7627 6.31158 5.80698 6.34894 5.85218 6.3852C5.89742 6.34894 5.94164 6.31158 5.98501 6.27319C6.72443 5.61764 7.1925 4.65257 7.1925 3.57546C7.1925 2.49839 6.72443 1.53332 5.98501 0.877769C5.94164 0.839374 5.89742 0.802046 5.85218 0.765817ZM8.02089 0C7.30248 0 6.63458 0.220099 6.07832 0.597577C6.10678 0.621373 6.1356 0.644729 6.1631 0.669116C6.9899 1.40199 7.46394 2.46129 7.46394 3.57546C7.46394 4.68967 6.98989 5.74897 6.16321 6.48184C6.13577 6.50612 6.10681 6.52963 6.07832 6.5534C6.63452 6.93082 7.30248 7.15098 8.02089 7.15098C9.95892 7.15098 11.5301 5.55016 11.5301 3.5755C11.5301 1.60077 9.95892 0 8.02089 0ZM5.54124 6.48184C5.56863 6.50612 5.59761 6.52958 5.62608 6.5534C5.06982 6.93085 4.40189 7.15101 3.68345 7.15101C1.74534 7.15101 0.174316 5.55016 0.174316 3.5755C0.174316 1.60083 1.74534 0 3.68345 0C4.40189 0 5.06979 0.220105 5.62605 0.597555C5.59762 0.621351 5.56876 0.644696 5.54124 0.669083C4.71453 1.40199 4.2404 2.46129 4.2404 3.57546C4.2404 4.68975 4.71453 5.74902 5.54124 6.48184ZM11.4201 5.7911V5.65232H11.3846L11.3437 5.74776L11.3027 5.65232H11.2672V5.7911H11.2923V5.68641L11.3306 5.77668H11.3566L11.395 5.68619V5.7911H11.4201ZM11.1949 5.7911V5.67597H11.2404V5.65255H11.1244V5.67597H11.17V5.7911H11.1949ZM11.3046 8.87795V8.90133H11.3256C11.3305 8.90133 11.3344 8.90032 11.3372 8.89846C11.3402 8.89655 11.3415 8.89357 11.3415 8.88949C11.3415 8.88558 11.3402 8.88271 11.3372 8.88083C11.3344 8.87897 11.3305 8.87795 11.3256 8.87795H11.3046ZM11.3259 8.86158C11.3369 8.86158 11.3454 8.86409 11.3515 8.86904C11.3574 8.87407 11.3605 8.88082 11.3605 8.88949C11.3605 8.89674 11.358 8.90279 11.3532 8.90749C11.3485 8.91213 11.3417 8.915 11.333 8.91607L11.3611 8.94917H11.3391L11.313 8.91626H11.3046V8.94917H11.2862V8.86158H11.3259ZM11.3205 8.97924C11.3304 8.97924 11.3398 8.97728 11.3484 8.97351C11.357 8.96963 11.3645 8.96437 11.3711 8.95773C11.3776 8.95118 11.3827 8.94333 11.3864 8.93438C11.3901 8.92544 11.3919 8.91587 11.3919 8.90566C11.3919 8.89554 11.3901 8.88602 11.3864 8.87705C11.3827 8.86813 11.3776 8.86032 11.3711 8.85362C11.3645 8.84707 11.357 8.84179 11.3484 8.83804C11.3398 8.83428 11.3304 8.83239 11.3205 8.83239C11.3103 8.83239 11.3008 8.83428 11.292 8.83804C11.2831 8.84179 11.2754 8.84707 11.2689 8.85362C11.2625 8.86032 11.2573 8.86813 11.2536 8.87705C11.2499 8.88602 11.248 8.89554 11.248 8.90566C11.248 8.91587 11.2499 8.92544 11.2536 8.93438C11.2573 8.94333 11.2625 8.95118 11.2689 8.95773C11.2754 8.96437 11.2831 8.96963 11.292 8.97351C11.3008 8.97728 11.3103 8.97924 11.3205 8.97924ZM11.3205 8.81129C11.3334 8.81129 11.3457 8.81377 11.3571 8.81875C11.3685 8.82362 11.3786 8.83039 11.3871 8.83906C11.3956 8.84758 11.4024 8.85759 11.4073 8.86904C11.4122 8.88054 11.4146 8.89278 11.4146 8.90566C11.4146 8.91871 11.4122 8.93081 11.4073 8.94223C11.4024 8.95365 11.3956 8.96366 11.3871 8.97221C11.3786 8.98079 11.3685 8.98752 11.3571 8.99255C11.3457 8.99753 11.3334 9 11.3205 9C11.3071 9 11.2947 8.99753 11.2832 8.99255C11.2715 8.98752 11.2615 8.98079 11.253 8.97221C11.2445 8.96366 11.2379 8.95365 11.2329 8.94223C11.2281 8.93081 11.2256 8.91871 11.2256 8.90566C11.2256 8.89278 11.2281 8.88054 11.2329 8.86904C11.2379 8.85759 11.2445 8.84758 11.253 8.83906C11.2615 8.83039 11.2715 8.82362 11.2832 8.81875C11.2947 8.81377 11.3071 8.81129 11.3205 8.81129ZM2.62799 8.47424C2.62799 8.30741 2.73523 8.17037 2.91064 8.17037C3.07829 8.17037 3.19135 8.30145 3.19135 8.47424C3.19135 8.64706 3.07829 8.77813 2.91064 8.77813C2.73523 8.77813 2.62799 8.64112 2.62799 8.47424ZM3.38238 7.99958H3.17964V8.11476C3.11529 8.02936 3.01787 7.97572 2.88533 7.97572C2.62412 7.97572 2.41948 8.18427 2.41948 8.47424C2.41948 8.76427 2.62412 8.97281 2.88533 8.97281C3.01787 8.97281 3.11529 8.91922 3.17964 8.83377V8.94897H3.38238V7.99958ZM10.2282 8.47424C10.2282 8.30741 10.3354 8.17037 10.5108 8.17037C10.6784 8.17037 10.7915 8.30145 10.7915 8.47424C10.7915 8.64706 10.6784 8.77813 10.5108 8.77813C10.3354 8.77813 10.2282 8.64112 10.2282 8.47424ZM10.9825 7.61825H10.7798V8.11476C10.7154 8.02936 10.618 7.97572 10.4855 7.97572C10.2243 7.97572 10.0196 8.18427 10.0196 8.47424C10.0196 8.76427 10.2243 8.97281 10.4855 8.97281C10.618 8.97281 10.7154 8.91922 10.7798 8.83377V8.94897H10.9825V7.61825ZM5.89692 8.16043C6.02752 8.16043 6.11134 8.24387 6.13276 8.39081H5.64935C5.6708 8.2538 5.75268 8.16043 5.89692 8.16043ZM5.90084 7.97572C5.6279 7.97572 5.4369 8.17836 5.4369 8.47424C5.4369 8.77616 5.63571 8.97281 5.91445 8.97281C6.05483 8.97281 6.18344 8.93696 6.29655 8.83973L6.19713 8.68677C6.11912 8.75034 6.01971 8.78608 5.92618 8.78608C5.79555 8.78608 5.67662 8.72452 5.64742 8.5537H6.33939C6.34135 8.52785 6.34328 8.50206 6.34328 8.47424C6.34135 8.17836 6.16199 7.97572 5.90084 7.97572ZM8.34712 8.47424C8.34712 8.30741 8.45429 8.17037 8.62972 8.17037C8.7974 8.17037 8.91047 8.30145 8.91047 8.47424C8.91047 8.64706 8.7974 8.77813 8.62972 8.77813C8.45429 8.77813 8.34712 8.64112 8.34712 8.47424ZM9.10153 7.99958H8.89876V8.11476C8.83444 8.02936 8.73697 7.97572 8.6044 7.97572C8.34322 7.97572 8.13855 8.18427 8.13855 8.47424C8.13855 8.76427 8.34322 8.97281 8.6044 8.97281C8.73697 8.97281 8.83444 8.91922 8.89876 8.83377V8.94897H9.10153V7.99958ZM7.20293 8.47424C7.20293 8.76227 7.39979 8.97281 7.70001 8.97281C7.84036 8.97281 7.93388 8.94104 8.03528 8.85961L7.93781 8.69273C7.86178 8.74834 7.78188 8.77813 7.69415 8.77813C7.53233 8.77616 7.41346 8.65696 7.41346 8.47424C7.41346 8.29155 7.53233 8.17234 7.69415 8.17037C7.78188 8.17037 7.86178 8.20012 7.93781 8.25576L8.03528 8.08896C7.93388 8.0075 7.84036 7.97572 7.70001 7.97572C7.39979 7.97572 7.20293 8.18626 7.20293 8.47424ZM9.81496 7.97572C9.69799 7.97572 9.62196 8.03139 9.56932 8.11476V7.99958H9.36851V8.94897H9.57125V8.41665C9.57125 8.25975 9.63756 8.17233 9.77012 8.17233C9.81106 8.17233 9.85397 8.17835 9.89684 8.19619L9.95922 8.00154C9.91431 7.98368 9.85581 7.97572 9.81496 7.97572ZM4.38428 8.07502C4.28683 8.00951 4.1523 7.97572 4.00422 7.97572C3.76833 7.97572 3.61629 8.09094 3.61629 8.27959C3.61629 8.43452 3.72933 8.52984 3.93792 8.55963L4.03344 8.57355C4.14452 8.58942 4.1972 8.61923 4.1972 8.6729C4.1972 8.74634 4.12307 8.78806 3.98471 8.78806C3.84436 8.78806 3.74299 8.7424 3.67478 8.68874L3.57929 8.84966C3.69032 8.93297 3.83073 8.97281 3.98275 8.97281C4.25175 8.97281 4.40766 8.8437 4.40766 8.66295C4.40766 8.49609 4.28487 8.4087 4.08216 8.37891L3.98665 8.36501C3.89892 8.35306 3.82876 8.33525 3.82876 8.27168C3.82876 8.20215 3.89501 8.16043 4.00615 8.16043C4.12503 8.16043 4.24004 8.20617 4.2966 8.2419L4.38428 8.07502ZM6.99827 7.97572C6.88133 7.97572 6.80529 8.03139 6.75265 8.11476V7.99958H6.55187V8.94897H6.75461V8.41665C6.75461 8.25975 6.82084 8.17233 6.95343 8.17233C6.99437 8.17233 7.03724 8.17835 7.08011 8.19619L7.14251 8.00154C7.09767 7.98368 7.03918 7.97572 6.99827 7.97572ZM5.26927 7.99958H4.93789V7.7116H4.73325V7.99958H4.54412V8.18829H4.73325V8.62123C4.73325 8.84172 4.81703 8.97281 5.05679 8.97281C5.14449 8.97281 5.24583 8.9449 5.31018 8.89933L5.25171 8.72254C5.19128 8.75824 5.12497 8.77616 5.07238 8.77616C4.97099 8.77616 4.93789 8.71262 4.93789 8.61724V8.18829H5.26927V7.99958ZM2.24013 8.94897V8.35306C2.24013 8.12868 2.09977 7.97772 1.87368 7.97572C1.75475 7.97375 1.63196 8.01147 1.54619 8.14455C1.48187 8.03929 1.38051 7.97572 1.23822 7.97572C1.13879 7.97572 1.04131 8.00554 0.965335 8.11678V7.99958H0.762539V8.94897H0.967266V8.42262C0.967266 8.25776 1.05693 8.17037 1.1953 8.17037C1.32982 8.17037 1.39806 8.25976 1.39806 8.4206V8.94897H1.60273V8.42262C1.60273 8.25776 1.69629 8.17037 1.83078 8.17037C1.96917 8.17037 2.03542 8.25976 2.03542 8.4206V8.94897H2.24013Z" fill="#7C7783"/>
<path fill-rule="evenodd" clip-rule="evenodd" d="M21.4222 6.39532H20.1829V2.86694H21.469C22.4335 2.86694 23.1993 3.52938 23.1993 4.4881C23.1993 5.11977 23.1403 5.52332 22.6793 5.96054C22.4109 6.21521 21.9368 6.39532 21.4222 6.39532ZM19.8088 6.77676H21.3754C22.0404 6.77676 22.6511 6.54141 22.9832 6.19884C23.3956 5.7734 23.6217 5.22943 23.6217 4.63112C23.6217 4.37628 23.5444 3.96281 23.44 3.71815C23.0998 2.92128 22.3372 2.4855 21.3754 2.4855H19.8088V6.77676ZM30.2842 2.36629V6.77873C30.2842 6.77873 30.4041 6.77676 30.6583 6.77676V5.10792C30.6583 4.82113 30.768 4.64654 30.8911 4.48711C31.2203 4.06072 32.4821 3.97437 32.4821 5.10792V6.77676H32.8329V4.86954C32.8329 4.31019 32.3122 3.84439 31.7339 3.84439C31.2048 3.84439 30.9874 3.95893 30.6583 4.34504V2.36629C30.4041 2.36629 30.2842 2.36629 30.2842 2.36629ZM39.8476 6.77676H40.1983V5.41315C40.415 5.41315 40.6501 5.41315 40.6501 5.41315C41.0318 5.88986 41.4926 6.30711 41.8613 6.77873C41.9569 6.78905 42.1984 6.77676 42.3028 6.77676L40.9466 5.25098L41.6071 4.56556C41.7791 4.39021 42.1885 4.03042 42.2794 3.89206C41.8326 3.89206 41.839 3.88821 41.839 3.88821C41.7179 4.01426 40.6437 5.11108 40.6437 5.11108H40.1983V2.36629H39.8476V6.77676ZM18.3123 6.77676H18.6865V2.4855H18.3123V6.77676ZM38.9412 4.55236L39.1913 4.2905C38.9263 4.0142 38.557 3.84233 38.1474 3.84233C37.3395 3.84233 36.6846 4.51223 36.6846 5.33854C36.6846 6.16483 37.3395 6.83473 38.1474 6.83473C38.5602 6.83473 38.933 6.65986 39.1989 6.37866L38.9566 6.10726C38.7557 6.34069 38.4648 6.48746 38.1411 6.48746C37.5351 6.48746 37.0439 5.97308 37.0439 5.33854C37.0439 4.70397 37.5351 4.1896 38.1411 4.1896C38.4608 4.1896 38.743 4.33049 38.9412 4.55236ZM36.1882 5.46192C36.1882 5.46192 36.1938 5.37168 36.1938 5.32577C36.1938 4.50258 35.5933 3.83528 34.8527 3.83528C34.8434 3.83528 34.8342 3.83548 34.8251 3.83567C34.8159 3.83548 34.8067 3.83528 34.7975 3.83528C34.0568 3.83528 33.4564 4.50258 33.4564 5.32577C33.4564 6.1839 34.019 6.77499 34.8527 6.81628C35.3542 6.84112 35.7566 6.63395 36.0454 6.33883L35.8489 6.09193C35.6139 6.33861 35.2609 6.49528 34.9001 6.49528C34.2721 6.49528 33.862 6.05477 33.807 5.46172L36.1882 5.46192ZM34.8227 4.16176C35.3875 4.16176 35.7682 4.57335 35.834 5.15926H33.8114C33.9009 4.57377 34.2579 4.16176 34.8227 4.16176ZM29.541 3.32228C28.3028 1.62653 25.6825 2.50715 25.6825 4.6374C25.6825 6.8255 28.3513 7.54288 29.539 5.94861L29.2263 5.72202C28.2085 7.06589 26.0732 6.46271 26.0783 4.56691C26.083 2.80807 28.2956 2.18926 29.2232 3.53707L29.541 3.32228ZM14.9453 8.99392H15.0855V0.00606859H14.9453C14.9453 0.784342 14.9453 8.99392 14.9453 8.99392Z" fill="#7C7783"/>
</svg>
