<svg width="13" height="9" viewBox="0 0 13 9" fill="none" xmlns="http://www.w3.org/2000/svg">
<path d="M6.3517 0.765817C6.3038 0.802046 6.25688 0.839374 6.21099 0.877769C5.42717 1.53332 4.93104 2.49839 4.93104 3.57546C4.93104 4.65257 5.42717 5.61764 6.21099 6.27319C6.25688 6.31158 6.3038 6.34894 6.3517 6.3852C6.39966 6.34894 6.44655 6.31158 6.49252 6.27319C7.27628 5.61764 7.77241 4.65257 7.77241 3.57546C7.77241 2.49839 7.27628 1.53332 6.49252 0.877769C6.44655 0.839374 6.39966 0.802046 6.3517 0.765817ZM8.65047 0C7.88898 0 7.18103 0.220099 6.59141 0.597577C6.62158 0.621373 6.65213 0.64473 6.68128 0.669116C7.55766 1.40199 8.06013 2.46129 8.06013 3.57546C8.06013 4.68967 7.55765 5.74897 6.68139 6.48184C6.65231 6.50612 6.62161 6.52964 6.59141 6.5534C7.18097 6.93083 7.88898 7.15098 8.65047 7.15098C10.7047 7.15098 12.3701 5.55017 12.3701 3.5755C12.3701 1.60077 10.7047 0 8.65047 0ZM6.02214 6.48184C6.05117 6.50612 6.08189 6.52958 6.11205 6.5534C5.52244 6.93085 4.81447 7.15101 4.05295 7.15101C1.99863 7.15101 0.333374 5.55017 0.333374 3.5755C0.333374 1.60083 1.99863 0 4.05295 0C4.81447 0 5.52242 0.220105 6.11203 0.597555C6.08189 0.621351 6.05132 0.644697 6.02214 0.669084C5.14585 1.40199 4.64329 2.46129 4.64329 3.57546C4.64329 4.68975 5.14585 5.74902 6.02214 6.48184ZM12.2535 5.7911V5.65232H12.2159L12.1725 5.74776L12.1291 5.65232H12.0914V5.7911H12.1181V5.68641L12.1587 5.77668H12.1863L12.2269 5.68619V5.7911H12.2535ZM12.0148 5.7911V5.67598H12.0631V5.65255H11.9401V5.67598H11.9884V5.7911H12.0148ZM12.1311 8.87795V8.90133H12.1534C12.1586 8.90133 12.1627 8.90032 12.1657 8.89847C12.1688 8.89655 12.1702 8.89357 12.1702 8.88949C12.1702 8.88558 12.1688 8.88271 12.1657 8.88083C12.1627 8.87897 12.1586 8.87795 12.1534 8.87795H12.1311ZM12.1537 8.86158C12.1653 8.86158 12.1744 8.86409 12.1808 8.86904C12.1871 8.87407 12.1903 8.88083 12.1903 8.88949C12.1903 8.89675 12.1877 8.90279 12.1826 8.90749C12.1776 8.91213 12.1705 8.915 12.1611 8.91607L12.191 8.94917H12.1676L12.14 8.91626H12.1311V8.94917H12.1115V8.86158H12.1537ZM12.1479 8.97925C12.1584 8.97925 12.1684 8.97728 12.1775 8.97351C12.1867 8.96963 12.1946 8.96437 12.2015 8.95773C12.2085 8.95118 12.2138 8.94333 12.2178 8.93438C12.2217 8.92544 12.2236 8.91587 12.2236 8.90566C12.2236 8.89554 12.2217 8.88602 12.2178 8.87705C12.2138 8.86813 12.2085 8.86032 12.2015 8.85363C12.1946 8.84707 12.1867 8.84179 12.1775 8.83805C12.1684 8.83428 12.1584 8.83239 12.1479 8.83239C12.1372 8.83239 12.127 8.83428 12.1177 8.83805C12.1083 8.84179 12.1002 8.84707 12.0933 8.85363C12.0864 8.86032 12.081 8.86813 12.077 8.87705C12.0731 8.88602 12.0711 8.89554 12.0711 8.90566C12.0711 8.91587 12.0731 8.92544 12.077 8.93438C12.081 8.94333 12.0864 8.95118 12.0933 8.95773C12.1002 8.96437 12.1083 8.96963 12.1177 8.97351C12.127 8.97728 12.1372 8.97925 12.1479 8.97925ZM12.1479 8.81129C12.1616 8.81129 12.1747 8.81377 12.1868 8.81875C12.1988 8.82362 12.2095 8.83039 12.2185 8.83906C12.2276 8.84758 12.2347 8.85759 12.24 8.86904C12.2452 8.88054 12.2477 8.89278 12.2477 8.90566C12.2477 8.91871 12.2452 8.93081 12.24 8.94223C12.2347 8.95365 12.2276 8.96366 12.2185 8.97221C12.2095 8.98079 12.1988 8.98752 12.1868 8.99255C12.1747 8.99753 12.1616 9 12.1479 9C12.1338 9 12.1206 8.99753 12.1083 8.99255C12.096 8.98752 12.0854 8.98079 12.0764 8.97221C12.0674 8.96366 12.0604 8.95365 12.0551 8.94223C12.05 8.93081 12.0474 8.91871 12.0474 8.90566C12.0474 8.89278 12.05 8.88054 12.0551 8.86904C12.0604 8.85759 12.0674 8.84758 12.0764 8.83906C12.0854 8.83039 12.096 8.82362 12.1083 8.81875C12.1206 8.81377 12.1338 8.81129 12.1479 8.81129ZM2.93418 8.47424C2.93418 8.30741 3.04786 8.17037 3.23379 8.17037C3.41149 8.17037 3.53132 8.30145 3.53132 8.47424C3.53132 8.64706 3.41149 8.77813 3.23379 8.77813C3.04786 8.77813 2.93418 8.64112 2.93418 8.47424ZM3.73382 8.47424V7.99958H3.51893V8.11476C3.45072 8.02936 3.34746 7.97572 3.20697 7.97572C2.9301 7.97572 2.71319 8.18427 2.71319 8.47424C2.71319 8.76427 2.9301 8.97281 3.20697 8.97281C3.34746 8.97281 3.45072 8.91922 3.51893 8.83377V8.94897H3.73382V8.47424ZM10.9901 8.47424C10.9901 8.30741 11.1038 8.17037 11.2897 8.17037C11.4673 8.17037 11.5872 8.30145 11.5872 8.47424C11.5872 8.64706 11.4673 8.77813 11.2897 8.77813C11.1038 8.77813 10.9901 8.64112 10.9901 8.47424ZM11.7897 8.47424V7.61825H11.5748V8.11476C11.5066 8.02936 11.4033 7.97572 11.2628 7.97572C10.986 7.97572 10.769 8.18427 10.769 8.47424C10.769 8.76427 10.986 8.97281 11.2628 8.97281C11.4033 8.97281 11.5066 8.91922 11.5748 8.83377V8.94897H11.7897V8.47424ZM6.39914 8.16043C6.53757 8.16043 6.62641 8.24387 6.64911 8.39081H6.13672C6.15946 8.2538 6.24624 8.16043 6.39914 8.16043ZM6.4033 7.97572C6.11399 7.97572 5.91152 8.17836 5.91152 8.47424C5.91152 8.77616 6.12227 8.97281 6.41772 8.97281C6.56651 8.97281 6.70286 8.93696 6.82274 8.83973L6.71735 8.68677C6.63466 8.75034 6.52929 8.78609 6.43016 8.78609C6.29169 8.78609 6.16564 8.72452 6.13469 8.5537H6.86814C6.87022 8.52785 6.87228 8.50206 6.87228 8.47424C6.87023 8.17836 6.68011 7.97572 6.4033 7.97572ZM8.99626 8.47424C8.99626 8.30741 9.10985 8.17037 9.2958 8.17037C9.47354 8.17037 9.5934 8.30145 9.5934 8.47424C9.5934 8.64706 9.47354 8.77813 9.2958 8.77813C9.10985 8.77813 8.99626 8.64112 8.99626 8.47424ZM9.79592 8.47424V7.99958H9.58099V8.11476C9.51281 8.02936 9.4095 7.97572 9.26899 7.97572C8.99215 7.97572 8.7752 8.18427 8.7752 8.47424C8.7752 8.76427 8.99215 8.97281 9.26899 8.97281C9.4095 8.97281 9.51281 8.91922 9.58099 8.83377V8.94897H9.79592V8.47424ZM7.78347 8.47424C7.78347 8.76227 7.99214 8.97281 8.31036 8.97281C8.45912 8.97281 8.55825 8.94104 8.66572 8.85961L8.56239 8.69273C8.48181 8.74834 8.39713 8.77813 8.30414 8.77813C8.13261 8.77616 8.00661 8.65696 8.00661 8.47424C8.00661 8.29155 8.13261 8.17234 8.30414 8.17037C8.39713 8.17037 8.48181 8.20012 8.56239 8.25576L8.66572 8.08896C8.55825 8.0075 8.45912 7.97572 8.31036 7.97572C7.99214 7.97572 7.78347 8.18626 7.78347 8.47424ZM10.5521 7.97572C10.4281 7.97572 10.3475 8.03139 10.2917 8.11476V7.99958H10.0789V8.94897H10.2938V8.41665C10.2938 8.25976 10.3641 8.17233 10.5046 8.17233C10.548 8.17233 10.5935 8.17836 10.6389 8.19619L10.705 8.00154C10.6574 7.98368 10.5954 7.97572 10.5521 7.97572ZM4.7958 8.07502C4.6925 8.00951 4.54991 7.97572 4.39295 7.97572C4.14291 7.97572 3.98174 8.09094 3.98174 8.27959C3.98174 8.43452 4.10158 8.52984 4.32268 8.55963L4.42393 8.57355C4.54167 8.58942 4.59748 8.61924 4.59748 8.6729C4.59748 8.74635 4.51892 8.78806 4.37226 8.78806C4.2235 8.78806 4.11606 8.7424 4.04376 8.68874L3.94253 8.84966C4.06022 8.93297 4.20904 8.97281 4.37018 8.97281C4.6553 8.97281 4.82058 8.8437 4.82058 8.66295C4.82058 8.49609 4.69043 8.4087 4.47557 8.37891L4.37432 8.36501C4.28133 8.35306 4.20698 8.33525 4.20698 8.27168C4.20698 8.20215 4.2772 8.16043 4.39501 8.16043C4.52101 8.16043 4.64291 8.20617 4.70287 8.2419L4.7958 8.07502ZM7.56653 7.97572C7.44257 7.97572 7.36199 8.03139 7.30619 8.11476V7.99958H7.09336V8.94897H7.30827V8.41665C7.30827 8.25976 7.37846 8.17233 7.519 8.17233C7.56239 8.17233 7.60784 8.17836 7.65328 8.19619L7.71942 8.00154C7.6719 7.98368 7.60989 7.97572 7.56653 7.97572ZM5.73385 7.99958H5.3826V7.7116H5.1657V7.99958H4.96522V8.18829H5.1657V8.62123C5.1657 8.84172 5.2545 8.97281 5.50863 8.97281C5.60159 8.97281 5.70901 8.9449 5.77722 8.89933L5.71524 8.72254C5.65119 8.75824 5.5809 8.77616 5.52516 8.77616C5.41768 8.77616 5.3826 8.71262 5.3826 8.61724V8.18829H5.73385V7.99958ZM2.52306 8.94897V8.35306C2.52306 8.12868 2.37431 7.97772 2.13466 7.97572C2.0086 7.97376 1.87844 8.01147 1.78753 8.14455C1.71935 8.03929 1.61189 7.97572 1.46108 7.97572C1.35568 7.97572 1.25238 8.00554 1.17185 8.11678V7.99958H0.956892V8.94897H1.17388V8.42262C1.17388 8.25776 1.26893 8.17037 1.41559 8.17037C1.55818 8.17037 1.63052 8.25976 1.63052 8.4206V8.94897H1.84747V8.42262C1.84747 8.25776 1.94663 8.17037 2.08919 8.17037C2.23588 8.17037 2.30609 8.25976 2.30609 8.4206V8.94897H2.52306Z" fill="#7C7783"/>
</svg>
