<svg width="24" height="24" viewBox="0 0 24 24" fill="none" xmlns="http://www.w3.org/2000/svg">
<path d="M11 6.5C11 4.01472 8.98528 2 6.5 2C4.01472 2 2 4.01472 2 6.5C2 8.98528 4.01472 11 6.5 11H11V6.5Z" fill="#D2B5F8"/>
<path d="M13 17.5C13 19.9853 15.0147 22 17.5 22C19.9853 22 22 19.9853 22 17.5C22 15.0147 19.9853 13 17.5 13H13V17.5Z" fill="#D2B5F8"/>
<path d="M11 18.5C11 21.5376 8.53757 24 5.5 24C2.46243 24 0 21.5376 0 18.5C0 15.4624 2.46243 13 5.5 13L11.0001 12.9999L11 18.5Z" fill="#D2B5F8"/>
<path d="M13 5.5C13 2.46243 15.4624 0 18.5 0C21.5376 0 24 2.46243 24 5.5C24 8.53757 21.5376 11 18.5 11L12.9999 11.0001L13 5.5Z" fill="#D2B5F8"/>
</svg>
