<svg width="56" height="56" viewBox="0 0 56 56" fill="none" xmlns="http://www.w3.org/2000/svg">
<g filter="url(#filter0_d_229_337)">
<path d="M16.5045 39V39.2H16.7045H22.6705C24.7386 39.2 26.5113 38.787 27.9797 37.9508C28.2681 37.7872 28.5431 37.6097 28.8046 37.4183C30.4231 38.7141 32.5509 39.4734 35.1152 39.4734C36.7364 39.4734 38.0271 39.2581 39.0599 38.934L39.2 38.89V38.7431V36.9816V36.6847L38.9248 36.7963C37.9617 37.1868 36.7081 37.4875 35.1152 37.4875C33.1325 37.4875 31.5339 36.9214 30.3167 35.9742C30.7092 35.4864 31.0509 34.9467 31.3414 34.3552C32.1136 32.7905 32.4955 30.926 32.4955 28.7685C32.4955 26.6312 32.1236 24.7867 31.3716 23.242C31.1789 22.8463 30.9643 22.4739 30.7277 22.1248C31.8865 21.3566 33.3484 20.907 35.1152 20.907C36.7081 20.907 37.9617 21.2077 38.9248 21.5982L39.2 21.7098V21.4129V19.6514V19.5045L39.0599 19.4606C38.0271 19.1364 36.7364 18.9211 35.1152 18.9211C32.8324 18.9211 30.8955 19.5229 29.3559 20.5692C28.9741 20.236 28.5591 19.9385 28.111 19.6768C26.6955 18.8467 24.9985 18.4364 23.0284 18.4364H16.7045H16.5045V18.6364V39ZM35.1152 39.0734C32.6765 39.0734 30.6651 38.3655 29.1309 37.1664C29.464 36.8955 29.773 36.6 30.058 36.2798C31.3502 37.2902 33.0411 37.8875 35.1152 37.8875C36.6145 37.8875 37.8312 37.6293 38.8 37.2733V38.5951C37.8333 38.8821 36.6268 39.0734 35.1152 39.0734ZM29.7498 36.0244C29.4636 36.3448 29.1521 36.639 28.8153 36.907C28.5615 36.6878 28.322 36.4544 28.0973 36.2078C28.0134 36.1158 27.9316 36.022 27.8518 35.9263C28.1984 35.652 28.5134 35.3461 28.7967 35.0089C28.872 35.1063 28.9497 35.2017 29.0297 35.2951C29.252 35.5547 29.4921 35.7983 29.7498 36.0244ZM30.9824 34.1789C30.7056 34.7423 30.381 35.2556 30.0084 35.7192C29.7667 35.5066 29.5417 35.278 29.3335 35.0349C29.2362 34.9213 29.1425 34.8044 29.0524 34.6845C29.3357 34.3011 29.5824 33.8815 29.7924 33.4261C30.3972 32.1146 30.6957 30.5601 30.6957 28.7685L30.6957 28.7677C30.689 26.9901 30.3939 25.4495 29.8029 24.1519C29.6717 23.8604 29.5259 23.5839 29.3656 23.3224C29.6744 22.967 30.0195 22.643 30.4011 22.3557C30.6251 22.687 30.8287 23.0408 31.0119 23.4171C31.7315 24.8951 32.0955 26.6766 32.0955 28.7685C32.0955 30.8797 31.7217 32.6808 30.9826 34.1785L30.9824 34.1789ZM29.4292 33.2586C29.25 33.6471 29.0431 34.0073 28.8084 34.3392C27.866 32.9196 27.3855 31.1265 27.3855 29.1973C27.3855 27.0803 27.964 25.1273 29.0966 23.6518C29.22 23.863 29.3339 24.0846 29.4384 24.3165L29.4387 24.3173C30.001 25.5516 30.2891 27.0335 30.2957 28.7687C30.2957 30.5168 30.0043 32.0114 29.4292 33.2586ZM30.1687 22.0299C29.7925 22.3123 29.4489 22.6289 29.1383 22.9755C28.885 22.6137 28.6008 22.284 28.2857 21.9866C28.6048 21.6587 28.9512 21.356 29.3244 21.0814C29.6298 21.3713 29.9112 21.6875 30.1687 22.0299ZM28.0137 22.2798C28.3327 22.5812 28.6182 22.9185 28.8704 23.2919C27.6132 24.8642 26.9855 26.9561 26.9855 29.1973C26.9855 31.2412 27.5076 33.161 28.5532 34.6757C28.2707 35.023 27.9539 35.3354 27.6027 35.6134C26.3031 33.9008 25.6082 31.6686 25.6082 29.1973C25.6082 26.4771 26.4502 24.0465 28.0137 22.2798ZM29.0209 20.8085C28.6505 21.0865 28.3053 21.3915 27.9859 21.7212C27.7343 21.5122 27.4651 21.3217 27.1784 21.1497C26.0198 20.4505 24.5965 20.1068 22.919 20.1068H18.5639H18.3639V20.3068V37.3295V37.5295H18.5639H22.5611C24.3368 37.5295 25.8389 37.1798 27.0569 36.4681C27.2202 36.3727 27.378 36.2718 27.5303 36.1654C27.6184 36.2714 27.7088 36.3754 27.8017 36.4773C28.018 36.7146 28.2472 36.9402 28.4888 37.153C28.2635 37.3136 28.028 37.4636 27.7821 37.603L27.7817 37.6032C26.3865 38.3977 24.6856 38.8 22.6705 38.8H16.9045V18.8364H23.0284C24.9427 18.8364 26.5666 19.2347 27.9088 20.0219L27.9091 20.0222C28.3071 20.2545 28.6777 20.5166 29.0209 20.8085ZM25.2082 29.1973C25.2082 31.7407 25.9234 34.0604 27.2812 35.8514C27.1439 35.9466 27.0018 36.037 26.8551 36.1228C25.7132 36.7899 24.2854 37.1295 22.5611 37.1295H18.7639V20.5068H22.919C24.5426 20.5068 25.89 20.8393 26.9719 21.4923L26.9724 21.4925C27.2351 21.6501 27.4822 21.8243 27.7138 22.0151C26.0757 23.8663 25.2082 26.3961 25.2082 29.1973ZM30.4954 21.7988C30.2394 21.4573 29.9605 21.1403 29.6587 20.8477C31.1163 19.8808 32.9468 19.3211 35.1152 19.3211C36.6268 19.3211 37.8333 19.5124 38.8 19.7994V21.1213C37.8312 20.7653 36.6145 20.507 35.1152 20.507C33.2675 20.507 31.7239 20.981 30.4954 21.7988ZM45.8 28C45.8 37.8307 37.8307 45.8 28 45.8C18.1693 45.8 10.2 37.8307 10.2 28C10.2 18.1693 18.1693 10.2 28 10.2C37.8307 10.2 45.8 18.1693 45.8 28Z" stroke="#D2B5F8" stroke-width="0.4" shape-rendering="crispEdges"/>
</g>
<defs>
<filter id="filter0_d_229_337" x="0" y="0" width="56" height="56" filterUnits="userSpaceOnUse" color-interpolation-filters="sRGB">
<feFlood flood-opacity="0" result="BackgroundImageFix"/>
<feColorMatrix in="SourceAlpha" type="matrix" values="0 0 0 0 0 0 0 0 0 0 0 0 0 0 0 0 0 0 127 0" result="hardAlpha"/>
<feOffset/>
<feGaussianBlur stdDeviation="5"/>
<feComposite in2="hardAlpha" operator="out"/>
<feColorMatrix type="matrix" values="0 0 0 0 0.79079 0 0 0 0 0.682938 0 0 0 0 0.929167 0 0 0 0.6 0"/>
<feBlend mode="normal" in2="BackgroundImageFix" result="effect1_dropShadow_229_337"/>
<feBlend mode="normal" in="SourceGraphic" in2="effect1_dropShadow_229_337" result="shape"/>
</filter>
</defs>
</svg>
