<svg width="58" height="52" viewBox="0 0 58 52" fill="none" xmlns="http://www.w3.org/2000/svg">
<g filter="url(#filter0_d_229_326)">
<path d="M39 31L42 33L29 40.5L16.5 33V26L11 23V20.5L29.5 11L47.5 20.5V31.5H44V24.5L29 32.5L20 27.5V31L29 36.5L39 31Z" stroke="#D2B5F8" shape-rendering="crispEdges"/>
</g>
<g filter="url(#filter1_d_229_326)">
<path d="M16.5 18V20V21V32.5L29 40L41 33L39 31.5L29 36.5L20.5 31V18.5L29 13.5L37.5 18L40.5 17L29.5 11.5L16.5 18Z" fill="#D2B5F8"/>
<path d="M16.5 18V20V21V32.5L29 40L41 33L39 31.5L29 36.5L20.5 31V18.5L29 13.5L37.5 18L40.5 17L29.5 11.5L16.5 18Z" stroke="#D2B5F8" stroke-width="0.5"/>
</g>
<defs>
<filter id="filter0_d_229_326" x="0.5" y="0.43631" width="57.5" height="50.6438" filterUnits="userSpaceOnUse" color-interpolation-filters="sRGB">
<feFlood flood-opacity="0" result="BackgroundImageFix"/>
<feColorMatrix in="SourceAlpha" type="matrix" values="0 0 0 0 0 0 0 0 0 0 0 0 0 0 0 0 0 0 127 0" result="hardAlpha"/>
<feOffset/>
<feGaussianBlur stdDeviation="5"/>
<feComposite in2="hardAlpha" operator="out"/>
<feColorMatrix type="matrix" values="0 0 0 0 0.79079 0 0 0 0 0.682938 0 0 0 0 0.929167 0 0 0 0.4 0"/>
<feBlend mode="normal" in2="BackgroundImageFix" result="effect1_dropShadow_229_326"/>
<feBlend mode="normal" in="SourceGraphic" in2="effect1_dropShadow_229_326" result="shape"/>
</filter>
<filter id="filter1_d_229_326" x="6.25" y="1.22049" width="45.2014" height="49.07" filterUnits="userSpaceOnUse" color-interpolation-filters="sRGB">
<feFlood flood-opacity="0" result="BackgroundImageFix"/>
<feColorMatrix in="SourceAlpha" type="matrix" values="0 0 0 0 0 0 0 0 0 0 0 0 0 0 0 0 0 0 127 0" result="hardAlpha"/>
<feOffset/>
<feGaussianBlur stdDeviation="5"/>
<feComposite in2="hardAlpha" operator="out"/>
<feColorMatrix type="matrix" values="0 0 0 0 0.79079 0 0 0 0 0.682938 0 0 0 0 0.929167 0 0 0 0.4 0"/>
<feBlend mode="normal" in2="BackgroundImageFix" result="effect1_dropShadow_229_326"/>
<feBlend mode="normal" in="SourceGraphic" in2="effect1_dropShadow_229_326" result="shape"/>
</filter>
</defs>
</svg>
