<svg width="56" height="56" viewBox="0 0 56 56" fill="none" xmlns="http://www.w3.org/2000/svg">
<g filter="url(#filter0_d_229_331)">
<path d="M27.5274 22.5L22.0274 32C22.0274 32 21.9657 32.3148 22.0274 32.5C22.1148 32.762 22.5274 33 22.5274 33H33.5274C33.5274 33 33.9401 32.762 34.0274 32.5C34.0892 32.3148 34.0274 32 34.0274 32L33.0274 30H32.5274H28.0274C28.0274 30 27.6509 29.747 27.5274 29.5C27.3528 29.1507 27.3528 28.8493 27.5274 28.5C27.6509 28.253 27.7805 28.1235 28.0274 28C28.3767 27.8254 28.6884 27.8062 29.0274 28C29.4065 28.2166 29.5274 29 29.5274 29H32.0274V28.5L28.5274 22.5C28.5274 22.5 28.3036 22 28.0274 22C27.7513 22 27.5274 22.5 27.5274 22.5Z" fill="#D2B5F8"/>
<path d="M27.5274 22.5L22.0274 32C22.0274 32 21.9657 32.3148 22.0274 32.5C22.1148 32.762 22.5274 33 22.5274 33H33.5274C33.5274 33 33.9401 32.762 34.0274 32.5C34.0892 32.3148 34.0274 32 34.0274 32L33.0274 30H32.5274H28.0274C28.0274 30 27.6509 29.747 27.5274 29.5C27.3528 29.1507 27.3528 28.8493 27.5274 28.5C27.6509 28.253 27.7805 28.1235 28.0274 28C28.3767 27.8254 28.6884 27.8062 29.0274 28C29.4065 28.2166 29.5274 29 29.5274 29H32.0274V28.5L28.5274 22.5C28.5274 22.5 28.3036 22 28.0274 22C27.7513 22 27.5274 22.5 27.5274 22.5Z" stroke="#D2B5F8" stroke-width="0.5"/>
</g>
<g filter="url(#filter1_d_229_331)">
<circle cx="28" cy="28" r="17.65" stroke="#D2B5F8" stroke-width="0.7" shape-rendering="crispEdges"/>
</g>
<defs>
<filter id="filter0_d_229_331" x="11.75" y="11.75" width="32.5549" height="31.5" filterUnits="userSpaceOnUse" color-interpolation-filters="sRGB">
<feFlood flood-opacity="0" result="BackgroundImageFix"/>
<feColorMatrix in="SourceAlpha" type="matrix" values="0 0 0 0 0 0 0 0 0 0 0 0 0 0 0 0 0 0 127 0" result="hardAlpha"/>
<feOffset/>
<feGaussianBlur stdDeviation="5"/>
<feComposite in2="hardAlpha" operator="out"/>
<feColorMatrix type="matrix" values="0 0 0 0 0.79079 0 0 0 0 0.682938 0 0 0 0 0.929167 0 0 0 0.5 0"/>
<feBlend mode="normal" in2="BackgroundImageFix" result="effect1_dropShadow_229_331"/>
<feBlend mode="normal" in="SourceGraphic" in2="effect1_dropShadow_229_331" result="shape"/>
</filter>
<filter id="filter1_d_229_331" x="0" y="0" width="56" height="56" filterUnits="userSpaceOnUse" color-interpolation-filters="sRGB">
<feFlood flood-opacity="0" result="BackgroundImageFix"/>
<feColorMatrix in="SourceAlpha" type="matrix" values="0 0 0 0 0 0 0 0 0 0 0 0 0 0 0 0 0 0 127 0" result="hardAlpha"/>
<feOffset/>
<feGaussianBlur stdDeviation="5"/>
<feComposite in2="hardAlpha" operator="out"/>
<feColorMatrix type="matrix" values="0 0 0 0 0.79079 0 0 0 0 0.682938 0 0 0 0 0.929167 0 0 0 0.91 0"/>
<feBlend mode="normal" in2="BackgroundImageFix" result="effect1_dropShadow_229_331"/>
<feBlend mode="normal" in="SourceGraphic" in2="effect1_dropShadow_229_331" result="shape"/>
</filter>
</defs>
</svg>
