<svg width="47" height="57" viewBox="0 0 47 57" fill="none" xmlns="http://www.w3.org/2000/svg">
<g filter="url(#filter0_d_229_317)">
<path d="M15 48.4199V45.9199L35 43.4199V45.9199L15 48.4199Z" fill="#D2B5F8" stroke="#D2B5F8" stroke-width="0.5"/>
<path d="M15.5 28C13.9372 28.9945 11 29.5 11 29.5V38L13.5 37.5V38.5L11 39V41.5L16 40.5V41.5L13.5 42V44.5L33.5 42V39.5L25 40.5L26 39.5L31 39V36.5L29 37L30 35.5C30 35.5 31.1095 33.781 31.5 33C31.5 33 32.1523 31.9924 32.5 31C32.9701 29.6585 33.3395 28.9124 33.5 27.5C33.6102 26.5299 33.5 25 33.5 25H35.5L24.5 13L18.5 20H20.5C20.5 20 20.2594 21.2379 20 22C19.5779 23.24 19.2456 23.923 18.5 25C17.5569 26.3623 16.8978 27.1105 15.5 28Z" fill="white"/>
<path d="M15.5 28C13.9372 28.9945 11 29.5 11 29.5V38L13.5 37.5V38.5L11 39V41.5L16 40.5V41.5L13.5 42V44.5L33.5 42V39.5L25 40.5L26 39.5L31 39V36.5L29 37L30 35.5C30 35.5 31.1095 33.781 31.5 33C31.5 33 32.1523 31.9924 32.5 31C32.9701 29.6585 33.3395 28.9124 33.5 27.5C33.6102 26.5299 33.5 25 33.5 25H35.5L24.5 13L18.5 20H20.5C20.5 20 20.2594 21.2379 20 22C19.5779 23.24 19.2456 23.923 18.5 25C17.5569 26.3623 16.8978 27.1105 15.5 28Z" stroke="#D2B5F8" stroke-width="0.5"/>
<path d="M16 40.4192C15.4349 40.5733 13.5 40.9199 13.5 40.9199V32.9199C13.5 32.9199 15.0637 32.7585 16 32.4199C17.8363 31.756 18.7406 30.9121 20 29.4199C21.0154 28.2169 21.5022 27.4134 22 25.9199C22.3149 24.9754 22.5 23.4199 22.5 23.4199H21L27.5 16.4192L29.8 18.9192L23 25.9199H25C25 25.9199 24.5571 29.1768 23.5 30.9199C22.4977 32.5727 21.6417 33.3994 20 34.4199C18.5831 35.3007 16 35.9199 16 35.9199V40.4192Z" stroke="#D2B5F8" stroke-width="0.5"/>
<path d="M15.8991 47.2473L15.5299 47.2955L15.541 47.022L15.8173 46.9884C15.8632 46.9816 15.9024 46.9674 15.9349 46.946C15.9682 46.9244 15.9936 46.896 16.0112 46.8609C16.0288 46.8258 16.0378 46.7844 16.0381 46.7368C16.0387 46.6973 16.0346 46.6629 16.0259 46.6337C16.0171 46.6037 16.0005 46.5808 15.9763 46.5651C15.9529 46.5493 15.9198 46.5437 15.8769 46.5485L15.6964 46.5708L15.6338 48.0538L15.2598 48.1026L15.3337 46.3005L15.8495 46.2345C15.9247 46.2263 15.9951 46.2278 16.0606 46.239C16.1268 46.25 16.1856 46.2723 16.2367 46.3058C16.2878 46.3386 16.3288 46.3829 16.3599 46.4387C16.3918 46.4945 16.4102 46.5627 16.4149 46.6433C16.4204 46.7353 16.4061 46.8147 16.3721 46.8815C16.339 46.9482 16.2899 47.0027 16.2248 47.0448C16.1605 47.0868 16.0851 47.1155 15.9984 47.131L15.8991 47.2473ZM15.8589 48.0244L15.3917 48.0854L15.5425 47.7506L15.8344 47.7137C15.8787 47.7071 15.9153 47.6921 15.9442 47.6686C15.9739 47.6442 15.9958 47.6139 16.0099 47.5776C16.0241 47.5412 16.0316 47.5013 16.0324 47.4577C16.034 47.4255 16.0322 47.3929 16.0271 47.3599C16.0219 47.3269 16.0102 47.2997 15.9918 47.2783C15.9733 47.2561 15.9437 47.246 15.9029 47.2481L15.5844 47.2884L15.5991 47.0144L15.9419 46.9709L16.0222 47.0675C16.0991 47.06 16.1649 47.0698 16.2193 47.0972C16.2745 47.1237 16.3175 47.1644 16.3485 47.2195C16.3802 47.2736 16.3977 47.3386 16.401 47.4145C16.4092 47.5333 16.3913 47.6357 16.3476 47.7219C16.3038 47.808 16.2398 47.8767 16.1553 47.9279C16.0709 47.9791 15.9721 48.0113 15.8589 48.0244Z" fill="#0B0B0F"/>
<path d="M17.5535 46.011L17.9276 45.9622L17.8801 47.1932C17.8797 47.3156 17.8578 47.4247 17.8145 47.5206C17.7711 47.6158 17.7069 47.6931 17.6219 47.7526C17.5369 47.8113 17.432 47.8475 17.3074 47.8613C17.1893 47.8743 17.0879 47.8616 17.0033 47.8234C16.9188 47.7852 16.8538 47.7248 16.8086 47.642C16.7633 47.5593 16.7392 47.4594 16.7362 47.3425L16.7837 46.1114L17.1589 46.0624L17.1153 47.2942C17.1156 47.341 17.1188 47.3845 17.1249 47.4247C17.1318 47.4648 17.1478 47.4964 17.173 47.5194C17.1989 47.5423 17.2394 47.5509 17.2945 47.5454C17.3531 47.541 17.3973 47.525 17.4274 47.4973C17.4581 47.4686 17.4788 47.4323 17.4895 47.3882C17.5008 47.3433 17.5068 47.2949 17.5075 47.2431L17.5535 46.011Z" fill="#0B0B0F"/>
<path d="M18.9402 47.1387C18.9406 47.1041 18.9363 47.0743 18.9273 47.0492C18.9183 47.0241 18.9045 47.003 18.8858 46.9857C18.8678 46.9675 18.8457 46.952 18.8194 46.939C18.7939 46.9259 18.766 46.9139 18.7359 46.9031C18.6733 46.8825 18.6144 46.8586 18.5591 46.8314C18.5038 46.8033 18.4539 46.77 18.4094 46.7315C18.365 46.693 18.3295 46.6471 18.3029 46.594C18.2762 46.5408 18.2603 46.4785 18.2551 46.4069C18.2504 46.3271 18.2613 46.2535 18.2878 46.186C18.315 46.1176 18.3544 46.0579 18.406 46.0068C18.4584 45.9557 18.5183 45.9146 18.5857 45.8837C18.6537 45.8518 18.7258 45.8318 18.8019 45.8235C18.9095 45.8119 19.0028 45.8256 19.0818 45.8645C19.1607 45.9035 19.2233 45.9618 19.2695 46.0395C19.3165 46.1162 19.3449 46.2052 19.3549 46.3065L18.9832 46.355C18.9793 46.3186 18.9726 46.2825 18.963 46.2469C18.9541 46.2103 18.9376 46.1812 18.9135 46.1598C18.89 46.1374 18.8552 46.1288 18.8091 46.134C18.7703 46.1382 18.7372 46.1516 18.7097 46.174C18.6831 46.1964 18.6625 46.2241 18.6479 46.2572C18.6333 46.2895 18.6255 46.3241 18.6246 46.3612C18.6244 46.3916 18.6308 46.4182 18.6436 46.4412C18.6572 46.4632 18.6745 46.4827 18.6956 46.4996C18.7166 46.5158 18.7398 46.53 18.7652 46.5423C18.7906 46.5546 18.8156 46.5644 18.8404 46.5718C18.9064 46.5936 18.9672 46.6189 19.0227 46.6478C19.0781 46.6767 19.1266 46.7114 19.168 46.7519C19.2101 46.7916 19.2433 46.8389 19.2678 46.894C19.2922 46.9491 19.3068 47.0137 19.3115 47.0878C19.3157 47.1701 19.3053 47.2449 19.2805 47.3122C19.2564 47.3793 19.2202 47.4382 19.1718 47.4888C19.1241 47.5386 19.067 47.5788 19.0004 47.6097C18.9347 47.6404 18.8622 47.6601 18.7829 47.6688C18.6962 47.6777 18.6171 47.672 18.5455 47.6518C18.4746 47.6307 18.4128 47.5969 18.3599 47.5504C18.3078 47.5031 18.2654 47.4454 18.2327 47.3774C18.2009 47.3094 18.1814 47.2327 18.1744 47.1475L18.5498 47.0997C18.5522 47.1372 18.5565 47.1731 18.5627 47.2076C18.5695 47.2412 18.5807 47.2705 18.5963 47.2955C18.6118 47.3198 18.6334 47.3379 18.6612 47.3499C18.6891 47.3618 18.7252 47.3649 18.7695 47.3591C18.8091 47.354 18.8411 47.3412 18.8655 47.3207C18.8906 47.2994 18.9089 47.2732 18.9205 47.2422C18.9327 47.2102 18.9393 47.1757 18.9402 47.1387Z" fill="#0B0B0F"/>
<path d="M20.0759 45.6819L19.9996 47.4843L19.6256 47.533L19.7019 45.7307L20.0759 45.6819Z" fill="#0B0B0F"/>
<path d="M21.6603 45.4752L21.5852 47.2774L21.2196 47.3251L20.7946 46.2184L20.7439 47.3871L20.3699 47.4359L20.4438 45.6339L20.8118 45.5859L21.2368 46.6925L21.2863 45.524L21.6603 45.4752Z" fill="#0B0B0F"/>
<path d="M22.9486 46.7832L22.9347 47.1013L22.1879 47.1988L22.2018 46.8806L22.9486 46.7832ZM22.3877 45.3803L22.3126 47.1825L21.9385 47.2313L22.0124 45.4293L22.3877 45.3803ZM22.8818 46.0348L22.8689 46.3418L22.2201 46.4264L22.2342 46.1193L22.8818 46.0348ZM23.011 45.299L22.9973 45.6184L22.2493 45.716L22.263 45.3966L23.011 45.299Z" fill="#0B0B0F"/>
<path d="M23.9559 46.4843C23.9563 46.4498 23.952 46.42 23.943 46.3949C23.934 46.3698 23.9202 46.3486 23.9015 46.3314C23.8835 46.3132 23.8614 46.2976 23.8351 46.2846C23.8096 46.2716 23.7817 46.2596 23.7516 46.2488C23.689 46.2282 23.6301 46.2043 23.5748 46.177C23.5195 46.149 23.4696 46.1157 23.4252 46.0771C23.3807 46.0386 23.3452 45.9928 23.3186 45.9396C23.2919 45.8865 23.276 45.8241 23.2708 45.7526C23.2661 45.6728 23.277 45.5991 23.3035 45.5317C23.3307 45.4633 23.3701 45.4036 23.4217 45.3525C23.4741 45.3014 23.534 45.2603 23.6014 45.2294C23.6695 45.1975 23.7415 45.1774 23.8176 45.1691C23.9252 45.1576 24.0185 45.1712 24.0975 45.2102C24.1764 45.2491 24.239 45.3074 24.2852 45.3851C24.3322 45.4619 24.3606 45.5509 24.3706 45.6522L23.9989 45.7007C23.995 45.6643 23.9883 45.6282 23.9787 45.5925C23.9698 45.5559 23.9533 45.5269 23.9292 45.5054C23.9057 45.483 23.871 45.4745 23.8249 45.4796C23.786 45.4839 23.7529 45.4972 23.7254 45.5197C23.6988 45.5421 23.6782 45.5698 23.6637 45.6029C23.649 45.6351 23.6412 45.6698 23.6403 45.7068C23.6401 45.7372 23.6465 45.7639 23.6593 45.7868C23.6729 45.8089 23.6902 45.8284 23.7113 45.8453C23.7323 45.8615 23.7555 45.8757 23.7809 45.8879C23.8063 45.9002 23.8313 45.9101 23.8561 45.9175C23.9222 45.9393 23.9829 45.9646 24.0384 45.9935C24.0938 46.0223 24.1423 46.057 24.1837 46.0976C24.2258 46.1372 24.259 46.1846 24.2835 46.2397C24.3079 46.2948 24.3225 46.3594 24.3272 46.4334C24.3314 46.5158 24.321 46.5906 24.2962 46.6578C24.2721 46.725 24.2359 46.7839 24.1875 46.8345C24.1398 46.8842 24.0827 46.9245 24.0161 46.9553C23.9504 46.9861 23.8779 47.0058 23.7986 47.0145C23.7119 47.0233 23.6328 47.0177 23.5612 46.9975C23.4903 46.9763 23.4285 46.9425 23.3756 46.8961C23.3235 46.8487 23.2811 46.7911 23.2484 46.7231C23.2166 46.655 23.1971 46.5784 23.1901 46.4931L23.5655 46.4454C23.5679 46.4828 23.5722 46.5188 23.5784 46.5533C23.5852 46.5868 23.5964 46.6162 23.612 46.6412C23.6275 46.6655 23.6491 46.6836 23.6769 46.6955C23.7048 46.7075 23.7409 46.7106 23.7852 46.7048C23.8248 46.6996 23.8568 46.6868 23.8812 46.6664C23.9063 46.6451 23.9246 46.6189 23.9362 46.5878C23.9484 46.5559 23.955 46.5214 23.9559 46.4843Z" fill="#0B0B0F"/>
<path d="M25.3672 46.3002C25.3676 46.2657 25.3633 46.2359 25.3543 46.2108C25.3453 46.1857 25.3314 46.1645 25.3128 46.1473C25.2948 46.1291 25.2727 46.1135 25.2464 46.1005C25.2209 46.0875 25.193 46.0755 25.1629 46.0646C25.1003 46.0441 25.0414 46.0202 24.9861 45.9929C24.9307 45.9649 24.8809 45.9316 24.8364 45.893C24.792 45.8545 24.7565 45.8087 24.7299 45.7555C24.7032 45.7024 24.6873 45.64 24.6821 45.5685C24.6774 45.4887 24.6883 45.415 24.7148 45.3475C24.742 45.2792 24.7814 45.2194 24.833 45.1684C24.8854 45.1172 24.9453 45.0762 25.0127 45.0452C25.0807 45.0134 25.1528 44.9933 25.2289 44.985C25.3365 44.9734 25.4298 44.9871 25.5087 45.0261C25.5877 45.065 25.6503 45.1233 25.6965 45.201C25.7435 45.2778 25.7719 45.3668 25.7818 45.4681L25.4102 45.5166C25.4063 45.4802 25.3995 45.4441 25.39 45.4084C25.3811 45.3718 25.3646 45.3428 25.3404 45.3213C25.317 45.2989 25.2822 45.2903 25.2361 45.2955C25.1973 45.2998 25.1642 45.3131 25.1367 45.3356C25.1101 45.3579 25.0895 45.3857 25.0749 45.4187C25.0603 45.451 25.0525 45.4857 25.0516 45.5227C25.0514 45.5531 25.0578 45.5798 25.0706 45.6027C25.0842 45.6248 25.1015 45.6443 25.1226 45.6612C25.1436 45.6773 25.1667 45.6915 25.1921 45.7038C25.2175 45.7161 25.2426 45.726 25.2674 45.7334C25.3334 45.7552 25.3942 45.7805 25.4497 45.8093C25.5051 45.8382 25.5536 45.8729 25.595 45.9135C25.6371 45.9531 25.6703 46.0005 25.6948 46.0556C25.7192 46.1107 25.7338 46.1752 25.7385 46.2493C25.7427 46.3317 25.7323 46.4065 25.7074 46.4737C25.6834 46.5409 25.6472 46.5998 25.5988 46.6504C25.5511 46.7001 25.494 46.7404 25.4274 46.7712C25.3617 46.802 25.2891 46.8217 25.2099 46.8304C25.1232 46.8392 25.0441 46.8335 24.9725 46.8133C24.9016 46.7922 24.8398 46.7584 24.7869 46.712C24.7348 46.6646 24.6924 46.607 24.6597 46.539C24.6279 46.4709 24.6084 46.3943 24.6014 46.309L24.9768 46.2613C24.9792 46.2987 24.9835 46.3347 24.9896 46.3692C24.9965 46.4027 25.0077 46.432 25.0233 46.4571C25.0387 46.4813 25.0604 46.4994 25.0882 46.5114C25.116 46.5234 25.1521 46.5265 25.1965 46.5207C25.2361 46.5155 25.2681 46.5027 25.2925 46.4823C25.3176 46.461 25.3359 46.4348 25.3475 46.4037C25.3597 46.3718 25.3663 46.3373 25.3672 46.3002Z" fill="#0B0B0F"/>
<path d="M27.1516 44.7588L27.0765 46.561L26.7025 46.6098L26.7764 44.8078L27.1516 44.7588ZM27.6513 45.447L27.6373 45.764L27.0078 45.8461L27.0219 45.5291L27.6513 45.447ZM27.7399 44.6821L27.7261 45.0015L27.0386 45.0912L27.0523 44.7718L27.7399 44.6821Z" fill="#0B0B0F"/>
<path d="M28.7808 44.5463L29.1548 44.4975L29.1073 45.7286C29.1069 45.8509 29.085 45.96 29.0417 46.056C28.9983 46.1511 28.9341 46.2284 28.8492 46.2879C28.7641 46.3466 28.6592 46.3829 28.5347 46.3966C28.4165 46.4096 28.3152 46.397 28.2306 46.3588C28.146 46.3206 28.0811 46.2601 28.0358 46.1774C27.9905 46.0946 27.9664 45.9948 27.9635 45.8778L28.0109 44.6467L28.3862 44.5978L28.3425 45.8296C28.3429 45.8763 28.3461 45.9198 28.3521 45.96C28.359 46.0002 28.375 46.0317 28.4002 46.0547C28.4261 46.0776 28.4667 46.0863 28.5218 46.0807C28.5803 46.0764 28.6246 46.0603 28.6546 46.0326C28.6853 46.004 28.706 45.9676 28.7167 45.9236C28.7281 45.8786 28.7341 45.8302 28.7347 45.7784L28.7808 44.5463Z" fill="#0B0B0F"/>
<path d="M30.2163 44.359L30.1399 46.1614L29.7659 46.2102L29.8422 44.4078L30.2163 44.359ZM30.6363 44.3042L30.6225 44.6236L29.4182 44.7807L29.4319 44.4613L30.6363 44.3042Z" fill="#0B0B0F"/>
<path d="M31.6808 44.168L32.0548 44.1192L32.0074 45.3502C32.0069 45.4726 31.9851 45.5817 31.9418 45.6776C31.8984 45.7728 31.8342 45.8501 31.7492 45.9096C31.6641 45.9683 31.5593 46.0045 31.4347 46.0183C31.3166 46.0313 31.2152 46.0186 31.1306 45.9804C31.046 45.9422 30.9811 45.8818 30.9358 45.799C30.8906 45.7163 30.8665 45.6164 30.8635 45.4995L30.911 44.2684L31.2862 44.2194L31.2425 45.4512C31.2429 45.498 31.2461 45.5415 31.2522 45.5817C31.259 45.6219 31.2751 45.6534 31.3002 45.6764C31.3262 45.6993 31.3667 45.7079 31.4218 45.7024C31.4803 45.698 31.5246 45.682 31.5546 45.6543C31.5854 45.6257 31.6061 45.5893 31.6167 45.5452C31.6281 45.5003 31.6341 45.4519 31.6347 45.4001L31.6808 44.168Z" fill="#0B0B0F"/>
<path d="M32.4009 44.074L32.9494 44.0037C33.0547 43.9932 33.1468 44.0042 33.2258 44.0366C33.3055 44.0688 33.3685 44.1214 33.415 44.1941C33.4621 44.2659 33.4881 44.3557 33.4932 44.4633C33.4982 44.5521 33.4905 44.6319 33.4702 44.7027C33.4498 44.7726 33.4162 44.8357 33.3693 44.8919C33.3233 44.9479 33.2632 44.9997 33.1889 45.0471L33.0674 45.1344L32.5965 45.1958L32.6092 44.8778L32.9085 44.8412C32.96 44.8337 33.0012 44.8156 33.0319 44.7869C33.0634 44.7582 33.0859 44.7229 33.0993 44.6809C33.1135 44.6388 33.1203 44.5936 33.1198 44.5453C33.1203 44.5116 33.1177 44.4762 33.1121 44.4392C33.1072 44.4021 33.0943 44.3717 33.0731 44.3482C33.0528 44.3246 33.0203 44.3145 32.9756 44.3179L32.7636 44.3443L32.701 45.8273L32.327 45.8761L32.4009 44.074ZM33.1017 45.775L32.8264 45.0144L33.2051 44.9638L33.4998 45.7034L33.5011 45.7229L33.1017 45.775Z" fill="#0B0B0F"/>
<path d="M34.7811 45.2395L34.7672 45.5577L34.0203 45.6551L34.0342 45.337L34.7811 45.2395ZM34.2201 43.8367L34.145 45.6389L33.771 45.6877L33.8449 43.8856L34.2201 43.8367ZM34.7142 44.4912L34.7013 44.7981L34.0525 44.8828L34.0666 44.5756L34.7142 44.4912ZM34.8435 43.7554L34.8298 44.0748L34.0817 44.1723L34.0954 43.8529L34.8435 43.7554Z" fill="#0B0B0F"/>
</g>
<defs>
<filter id="filter0_d_229_317" x="0.75" y="0.623184" width="45.3184" height="56.0799" filterUnits="userSpaceOnUse" color-interpolation-filters="sRGB">
<feFlood flood-opacity="0" result="BackgroundImageFix"/>
<feColorMatrix in="SourceAlpha" type="matrix" values="0 0 0 0 0 0 0 0 0 0 0 0 0 0 0 0 0 0 127 0" result="hardAlpha"/>
<feOffset dy="-2"/>
<feGaussianBlur stdDeviation="5"/>
<feComposite in2="hardAlpha" operator="out"/>
<feColorMatrix type="matrix" values="0 0 0 0 0.79079 0 0 0 0 0.682938 0 0 0 0 0.929167 0 0 0 0.91 0"/>
<feBlend mode="normal" in2="BackgroundImageFix" result="effect1_dropShadow_229_317"/>
<feBlend mode="normal" in="SourceGraphic" in2="effect1_dropShadow_229_317" result="shape"/>
</filter>
</defs>
</svg>
