<?xml version="1.0" encoding="UTF-8"?> <svg xmlns="http://www.w3.org/2000/svg" width="33" height="33" viewBox="0 0 33 33" fill="none"> <path d="M14.4045 0.0870413C11.4266 0.473892 8.70012 1.6151 6.31525 3.45909C5.56111 4.04581 4.27844 5.30952 3.65322 6.08322C1.87424 8.28827 0.694692 10.8931 0.191935 13.73C0.0114588 14.7358 -0.0594427 17.1536 0.056578 18.2561C0.585117 23.1949 3.3116 27.6372 7.50768 30.3774C9.59606 31.7378 11.9487 32.5954 14.5012 32.9113C15.4809 33.0338 17.5435 33.0273 18.5619 32.9048C26.0388 31.9764 31.9752 26.0382 32.9033 18.5591C33.0322 17.5146 33.0322 15.4772 32.9033 14.4327C32.3103 9.63579 29.6225 5.33531 25.5553 2.6596C23.4347 1.26693 21.0757 0.402969 18.5619 0.0870413C17.5821 -0.0290138 15.3326 -0.0290138 14.4045 0.0870413ZM18.0785 5.95427C21.746 6.72152 24.4338 9.82277 24.6014 13.4785C24.653 14.6391 24.4983 15.3676 23.8859 16.7925C22.8546 19.1781 20.5342 22.5308 17.4532 26.0834C16.9569 26.6637 16.5251 27.1343 16.4993 27.1343C16.4735 27.1343 16.0416 26.6637 15.5453 26.0898C11.7038 21.6475 9.22866 17.7983 8.53253 15.1742C8.33916 14.4585 8.37139 12.8595 8.5841 12.0472C9.00951 10.4482 9.6734 9.28118 10.782 8.17221C12.0196 6.93429 13.4956 6.18638 15.3068 5.88335C15.9707 5.77374 17.3888 5.80598 18.0785 5.95427Z" fill="url(#paint0_linear_66_46)"></path> <path d="M16.0481 10.6932C14.5269 10.906 13.4054 12.1826 13.3925 13.7235C13.3796 14.8647 13.8953 15.8318 14.8299 16.4379C15.7838 17.0504 17.2147 17.0504 18.1687 16.4379C19.0904 15.8447 19.619 14.8712 19.6061 13.7558C19.5932 11.8537 17.9367 10.4353 16.0481 10.6932Z" fill="url(#paint1_linear_66_46)"></path> <defs> <linearGradient id="paint0_linear_66_46" x1="16.5" y1="0" x2="16.5" y2="33" gradientUnits="userSpaceOnUse"> <stop stop-color="#FF7965"></stop> <stop offset="1" stop-color="#FF2C0C"></stop> </linearGradient> <linearGradient id="paint1_linear_66_46" x1="16.5" y1="0" x2="16.5" y2="33" gradientUnits="userSpaceOnUse"> <stop stop-color="#FF7965"></stop> <stop offset="1" stop-color="#FF2C0C"></stop> </linearGradient> </defs> </svg> 