<svg width="25" height="11" viewBox="0 0 25 11" fill="none" xmlns="http://www.w3.org/2000/svg">
<path d="M20.7098 2.85365L20.6639 0.111645H21.5163V3.57145H20.2908L19.442 0.731137H19.42L19.4686 3.57145H18.6234V0.111645H19.8994L20.6913 2.85365H20.7098ZM5.22742 0.433649L4.75739 3.60306H3.82824L4.46524 0.111535H5.99748L6.63344 3.60306H5.70727L5.24799 0.433649H5.22742ZM9.23941 2.78261L9.66502 0.111645H11.067L11.1439 3.60306H10.2826L10.2586 0.463454H10.2419L9.66647 3.60306H8.79556L8.21806 0.463454H8.19883L8.17742 3.60306H7.31709L7.39536 0.111645H8.79863L9.22213 2.78261H9.23941ZM16.4539 3.0794C16.6958 3.0794 16.7677 2.91309 16.7853 2.82882C16.7924 2.79142 16.7924 2.74017 16.7924 2.69514V0.111645H17.666V2.61498C17.666 2.68013 17.6589 2.81092 17.6562 2.84577C17.5972 3.49822 17.087 3.70773 16.4539 3.70773C15.8219 3.70773 15.314 3.49822 15.2558 2.84577C15.2513 2.81092 15.2451 2.68013 15.2472 2.61498V0.111645H16.1179V2.69514C16.1149 2.74017 16.1192 2.79142 16.1247 2.82882C16.1411 2.91309 16.2159 3.0794 16.4539 3.0794ZM2.37996 2.61763C2.4123 2.7024 2.40292 2.81093 2.38675 2.8762C2.35907 2.99269 2.28169 3.11238 2.0498 3.11238C1.83542 3.11238 1.70652 2.98593 1.70652 2.7948L1.70382 2.45599H0.782837V2.72553C0.782837 3.50571 1.38505 3.73956 2.03032 3.73956C2.65557 3.73956 3.16726 3.52465 3.2478 2.94281C3.29029 2.63989 3.25981 2.44254 3.24564 2.36889C3.10082 1.63566 1.79412 1.4208 1.69661 1.01118C1.67989 0.938705 1.68269 0.867165 1.69263 0.828072C1.71747 0.713748 1.79245 0.592106 2.00659 0.592106C2.21018 0.592106 2.32799 0.720533 2.32799 0.90702V1.12576H3.18678V0.880557C3.18678 0.118791 2.51252 0 2.02459 0C1.41406 0 0.91347 0.206442 0.822222 0.776795C0.798718 0.931057 0.795414 1.07031 0.829078 1.24557C0.979653 1.96132 2.20226 2.16616 2.37996 2.61763ZM13.5661 2.61332C13.6006 2.69606 13.5862 2.80279 13.573 2.86817C13.5467 2.98269 13.4676 3.09919 13.2418 3.09919C13.0279 3.09919 12.8992 2.97506 12.8992 2.78559V2.44961H11.9847V2.71844C11.9847 3.49133 12.5828 3.72068 13.224 3.72068C13.8375 3.72068 14.3449 3.50844 14.4263 2.93128C14.4676 2.63311 14.4375 2.43753 14.4218 2.36185C14.2784 1.63918 12.9861 1.42511 12.8908 1.01769C12.8749 0.94997 12.8793 0.876623 12.8867 0.838769C12.9096 0.728132 12.9844 0.606849 13.1977 0.606849C13.3991 0.606849 13.5155 0.73097 13.5155 0.916585V1.13207H14.3641V0.889792C14.3641 0.137173 13.6976 0.0192506 13.2174 0.0192506C12.6109 0.0192506 12.1143 0.219864 12.0264 0.787009C11.9988 0.938709 11.9953 1.07628 12.0331 1.25246C12.1808 1.96132 13.3909 2.16424 13.5661 2.61332ZM23.6309 3.04422C23.8786 3.04422 23.9662 2.88666 23.9821 2.79142C23.9876 2.75207 23.9901 2.70229 23.9897 2.65813V2.15282H23.6382V1.6407H24.8562V2.57887C24.8562 2.64428 24.8537 2.69241 24.844 2.80972C24.7868 3.4419 24.2431 3.67199 23.6322 3.67199C23.0237 3.67199 22.4825 3.4419 22.4267 2.80972C22.4132 2.69241 22.4132 2.64428 22.4132 2.57887V1.10991C22.4132 1.04701 22.4202 0.936882 22.4291 0.88048C22.5038 0.223919 23.0237 0.0168539 23.6322 0.0168539C24.2431 0.0168539 24.7798 0.221808 24.8408 0.88048C24.8536 0.988275 24.8475 1.10991 24.8475 1.10991L24.8494 1.22356H23.9821V1.02857C23.9821 1.02857 23.9821 0.944447 23.9701 0.894827C23.9555 0.820047 23.8884 0.642965 23.6254 0.642965C23.3786 0.642965 23.3037 0.810703 23.2841 0.894827C23.2735 0.941576 23.2713 1.0042 23.2713 1.06097V2.65813C23.2713 2.70229 23.2734 2.75207 23.2774 2.79142C23.2944 2.88666 23.3809 3.04422 23.6309 3.04422Z" fill="#7C7783"/>
<path fill-rule="evenodd" clip-rule="evenodd" d="M5.1126 7.20361C5.60242 7.20361 5.99956 7.61284 5.99956 8.1177C5.99956 8.62256 5.60242 9.03178 5.1126 9.03178C4.62276 9.03178 4.22567 8.62256 4.22567 8.1177C4.22567 7.61284 4.62276 7.20361 5.1126 7.20361ZM5.97304 9.60788L5.97769 9.24017C5.45906 9.82232 4.65034 9.74055 4.19108 9.42629C3.96274 9.27011 3.73091 8.94319 3.6393 8.69487C3.27689 7.71256 3.95847 6.4913 5.09757 6.54567C5.46594 6.56326 5.75015 6.68487 5.96309 6.96686V6.61283H6.64627V9.60788H5.97304ZM7.50191 11L8.12491 9.45922L6.91675 6.6086H7.65117L8.45775 8.6191L9.23722 6.6086H9.97591L8.22293 11H7.50191Z" fill="#7C7783"/>
<path fill-rule="evenodd" clip-rule="evenodd" d="M2.07966 8.53963L1.47428 8.54551L1.47895 9.61765H0.785528V5.87465C1.21699 5.87465 1.6482 5.87516 2.07966 5.87649C2.65513 5.87649 3.33875 6.20215 3.37801 7.20199C3.41727 8.20184 2.46013 8.58123 2.07966 8.53963ZM1.47895 7.89348L1.47883 6.51703H1.62276C1.77148 6.51653 1.98212 6.51574 1.98212 6.51574C2.29307 6.51574 2.66246 6.68502 2.6837 7.20489C2.70493 7.72475 2.21887 7.90364 1.98212 7.9004L1.47895 7.89348Z" fill="#7C7783"/>
</svg>
