<svg width="24" height="24" viewBox="0 0 24 24" fill="none" xmlns="http://www.w3.org/2000/svg">
<path d="M14.7735 5.33337H12.5265V14.4155C12.5265 15.4976 11.6622 16.3865 10.5867 16.3865C9.5112 16.3865 8.64695 15.4976 8.64695 14.4155C8.64695 13.3527 9.492 12.4831 10.5291 12.4445V10.1643C8.24364 10.2029 6.3999 12.0773 6.3999 14.4155C6.3999 16.773 8.28205 18.6667 10.6059 18.6667C12.9298 18.6667 14.8119 16.7537 14.8119 14.4155V9.75848C15.657 10.3769 16.6941 10.744 17.7888 10.7633V8.48313C16.0987 8.42516 14.7735 7.03386 14.7735 5.33337Z" fill="#7C7783"/>
<rect x="0.75" y="0.75" width="22.5" height="22.5" rx="5.25" stroke="#7C7783" stroke-width="1.5"/>
</svg>
