<svg width="17" height="15" viewBox="0 0 17 15" fill="none" xmlns="http://www.w3.org/2000/svg">
<path fill-rule="evenodd" clip-rule="evenodd" d="M0.0948486 0H16.1438V15H0.0948486V0ZM0.54254 7.35139H15.6961V14.6003H0.54254V7.35139ZM5.53221 2.10287L4.57256 4.39213L4.15512 2.34485C4.08761 2.16558 3.93085 2.10995 3.74021 2.10298L5.53221 2.10287ZM6.53512 2.10273L3.74021 2.10298H2.16982L2.13595 2.19402C2.18597 2.20721 2.23917 2.22071 2.29417 2.23466C2.70994 2.34014 3.22826 2.47164 3.25444 2.69508L4.03685 5.47107H5.01185L6.53512 2.10273ZM6.92099 2.10298L6.1496 5.47107H7.10147L7.87331 2.10298H6.92099ZM10.5596 2.20001C10.3774 2.13123 10.0538 2.03351 9.69747 2.03351C8.78927 2.03351 8.11118 2.4859 8.10574 3.14575C8.1006 3.63353 8.60082 3.91362 8.94943 4.07598C9.30717 4.24237 9.42743 4.34845 9.42574 4.49705C9.42346 4.72459 9.14004 4.82857 8.87589 4.82857C8.50802 4.82857 8.31256 4.77713 8.01074 4.65034L7.89232 4.59641L7.7206 5.3523C7.9353 5.44706 8.37497 5.53319 8.78712 5.53743C9.75323 5.53743 10.3804 5.0823 10.3875 4.37769C10.391 3.99153 10.1461 3.69763 9.6159 3.45538C9.29464 3.29838 9.09789 3.19356 9.09999 3.03456C9.09999 2.89347 9.26652 2.74256 9.62627 2.74256C9.92686 2.73786 10.1446 2.80384 10.3142 2.87259L10.3966 2.91179L10.5596 2.20001ZM12.2062 2.10306H12.9328V2.10298L13.6938 5.47107H12.8213C12.8213 5.47107 12.7351 5.08405 12.707 4.96605C12.6343 4.96605 12.3367 4.96564 12.057 4.96526C11.8087 4.96492 11.5745 4.9646 11.5238 4.9646C11.4873 5.05575 11.3258 5.47107 11.3258 5.47107H10.3427L11.7138 2.38256C11.8127 2.16309 11.9812 2.10306 12.2062 2.10306ZM11.78 4.27929C11.8578 4.08512 12.1547 3.33721 12.1547 3.33721C12.152 3.3415 12.1694 3.29731 12.1936 3.23618C12.22 3.16914 12.2545 3.08174 12.2793 3.01557L12.3429 3.30614C12.3429 3.30614 12.5229 4.11061 12.5605 4.27929H11.78Z" fill="#7C7783"/>
<path d="M7.82889 11.6583C7.65066 11.7696 7.42192 11.8205 7.19725 11.8111C7.02469 11.8039 6.83574 11.7588 6.70184 11.6737C6.4337 11.5032 6.32085 11.1767 6.32085 10.924C6.32085 10.6007 6.48431 10.2331 6.90539 10.0967C7.27382 9.97642 7.62213 10.0594 7.81245 10.1935L7.83447 10.4995C7.59094 10.2687 7.09043 10.1876 6.83075 10.4433C6.58457 10.6857 6.58135 11.1698 6.83401 11.4094C7.09901 11.6607 7.591 11.5926 7.84559 11.3631L7.82889 11.6583ZM3.46613 11.6589L3.45635 11.3707C3.63931 11.518 4.09503 11.6764 4.34816 11.513C4.48261 11.4262 4.48121 11.2702 4.35844 11.168C4.23716 11.067 3.76569 11.0216 3.58227 10.8591C3.42609 10.7207 3.41143 10.451 3.5295 10.2703C3.71441 9.98753 4.3415 9.96031 4.61487 10.1613L4.63179 10.4511C4.36975 10.2775 4.07663 10.239 3.90348 10.3002C3.73994 10.3581 3.71184 10.5221 3.81224 10.6263C3.96696 10.787 4.40446 10.763 4.60877 10.9396C4.83507 11.135 4.80411 11.4907 4.57168 11.6694C4.44967 11.7632 4.29172 11.8101 4.09737 11.8101C3.88891 11.8101 3.62707 11.7656 3.46613 11.6589ZM4.9895 11.7788V10.0798H6.17878V10.3194H5.30051V10.7835H5.98346V11.0196H5.30051V11.5218H6.17878V11.7788H4.9895ZM11.5979 11.7788V10.0798H12.7872V10.3194H11.9089V10.7835H12.5919V11.0196H11.9089V11.5218H12.7872V11.7788H11.5979ZM10.2496 10.8969H10.519C10.6484 10.8969 10.7775 10.8755 10.857 10.8094C10.9687 10.7167 10.966 10.4826 10.8533 10.3923C10.7813 10.3346 10.6649 10.3149 10.519 10.3149H10.2496V10.8969ZM10.7075 10.0798C11.069 10.0798 11.2789 10.3448 11.2789 10.5778C11.2789 10.758 11.1957 11.0407 10.8905 11.0641L11.3505 11.7788H10.9896L10.565 11.104H10.2496V11.7788H9.91653V10.0798H10.7075ZM8.07864 10.0798H8.4013V11.1565C8.4013 11.6821 9.33967 11.7028 9.33967 11.155V10.0783L9.61474 10.0798V11.159C9.61474 11.2766 9.60524 11.3533 9.5853 11.413C9.38443 12.0139 8.15614 11.9381 8.09399 11.326C8.08967 11.2836 8.07864 11.2309 8.07864 11.159V10.0798Z" fill="#7C7783"/>
</svg>
