<svg width="23" height="7" viewBox="0 0 23 7" fill="none" xmlns="http://www.w3.org/2000/svg">
<path d="M20.6142 0.13895H19.227C18.7973 0.13895 18.4757 0.25889 18.2869 0.697333L15.669 6.86747H17.5461C17.5461 6.86747 17.8543 6.03775 17.9241 5.85566C18.1301 5.85566 19.9212 5.85854 20.1831 5.85854C20.2367 6.09427 20.4014 6.86747 20.4014 6.86747H22.0673L20.6142 0.138755V0.13895ZM18.4133 4.48655C18.5617 4.09863 19.1285 2.60449 19.1285 2.60449C19.1179 2.62245 19.2759 2.21466 19.3666 1.96194L19.4879 2.54244C19.4879 2.54244 19.8316 4.14955 19.9035 4.48655H18.4133ZM16.0831 0.332622C15.7354 0.195229 15.1174 0 14.4371 0C12.7031 0 11.4084 0.903792 11.398 2.22198C11.3882 3.19645 12.3433 3.75602 13.0088 4.08039C13.6919 4.41279 13.9215 4.62472 13.9183 4.92158C13.9139 5.37615 13.3728 5.58386 12.8685 5.58386C12.1661 5.58386 11.7929 5.48109 11.2166 5.22785L10.9905 5.12008L10.6627 6.63018C11.0726 6.81952 11.912 6.99153 12.6989 7C14.5435 7 15.741 6.09077 15.7546 4.68313C15.7612 3.91165 15.2938 3.32455 14.2813 2.84055C13.668 2.5269 13.2923 2.31752 13.2963 1.99987C13.2963 1.718 13.6143 1.4165 14.3012 1.4165C14.8751 1.40714 15.2907 1.53895 15.6146 1.67632L15.7719 1.75462L16.0831 0.332622ZM6.48444 0.138538L4.6522 4.71198L3.85518 0.621986C3.72629 0.26383 3.42699 0.152692 3.063 0.138755L6.48444 0.138538ZM3.06285 0.138755H0.0646889L0 0.32065C0.817676 0.546271 2.07893 0.816228 2.13551 1.32166L3.62939 6.86747H5.49087L8.39928 0.138256L6.48444 0.138289L3.06285 0.138755ZM7.66321 6.86747L9.13601 0.138755H10.9543L9.4806 6.86747H7.66321Z" fill="#7C7783"/>
</svg>
