<svg width="24" height="11" viewBox="0 0 24 11" fill="none" xmlns="http://www.w3.org/2000/svg">
<path fill-rule="evenodd" clip-rule="evenodd" d="M11.1039 3.56271V5.23691H11.7573C11.9555 5.24199 12.1267 5.21187 12.2709 5.15678C12.4105 5.1016 12.5231 5.01138 12.5953 4.8861C12.6673 4.76078 12.7079 4.5953 12.7079 4.3898C12.7079 4.10909 12.6358 3.90364 12.4871 3.76827C12.3429 3.63296 12.1086 3.56271 11.7977 3.56271H11.1039ZM11.1039 7.65795V5.99886H11.7527C12.1492 5.99886 12.4915 5.94368 12.7664 5.83851C13.0413 5.73316 13.2575 5.56271 13.4107 5.32722C13.564 5.09151 13.6406 4.78088 13.6406 4.3898C13.6406 3.86348 13.4873 3.46744 13.1765 3.20691C12.8656 2.94121 12.3925 2.81094 11.7573 2.81094H11.1039H10.6354H10.1893V7.65795H11.1039ZM17.1621 7.22616V7.22695C17.1666 7.36727 17.1802 7.51256 17.1937 7.65783V7.65795H16.315C16.3061 7.62298 16.2925 7.56777 16.279 7.50265C16.261 7.43748 16.2521 7.37226 16.243 7.30714H16.2114C16.1349 7.37226 16.0538 7.43747 15.9591 7.49767C15.8645 7.56279 15.7475 7.61289 15.6077 7.64802C15.468 7.68813 15.2969 7.70819 15.0986 7.70819C14.7472 7.70819 14.4679 7.6129 14.2561 7.42246C14.0444 7.23194 13.9407 6.96125 13.9407 6.61533C13.9407 6.33969 14.0128 6.11921 14.1525 5.94878C14.2921 5.77828 14.5129 5.64795 14.8057 5.5729C15.0986 5.49757 15.4861 5.4525 15.9546 5.4525H16.243V5.31209C16.243 5.19185 16.2161 5.09163 16.1573 5.01138C16.0989 4.93125 16.0178 4.87604 15.905 4.84599C15.7924 4.81597 15.6618 4.80084 15.4996 4.80084C15.3329 4.80084 15.1662 4.81597 14.995 4.84599C14.8238 4.87604 14.6706 4.91624 14.5355 4.96635C14.4003 5.01649 14.2877 5.06657 14.202 5.11671V4.3898C14.3416 4.3097 14.5355 4.23945 14.7833 4.18439C15.031 4.12425 15.3149 4.09915 15.6393 4.09915C15.9816 4.09915 16.2655 4.13413 16.4863 4.21441C16.7071 4.28956 16.8738 4.42 16.9865 4.60037C17.0991 4.78087 17.1531 5.02145 17.1531 5.3172V6.80081C17.1531 6.94596 17.1576 7.08608 17.1621 7.22616ZM16.2475 6.04395H15.9772C15.7069 6.04395 15.4906 6.05908 15.3284 6.09417C15.1662 6.12912 15.0491 6.1844 14.9769 6.25954C14.9049 6.3397 14.8689 6.44502 14.8689 6.58039C14.8689 6.6806 14.8914 6.77082 14.9319 6.84101C14.9725 6.91115 15.0401 6.96633 15.1257 7.00641C15.2112 7.04646 15.3239 7.07149 15.4591 7.07149C15.6393 7.07149 15.7924 7.03646 15.9276 6.97129C16.0582 6.9062 16.1664 6.81591 16.2521 6.70057V6.04395H16.2475ZM17.9841 7.91876V8.64551C18.1509 8.71069 18.3265 8.74078 18.5113 8.73577C18.7005 8.73577 18.8716 8.71069 19.0114 8.6656C19.1556 8.62041 19.2816 8.54524 19.3943 8.44001C19.5069 8.33469 19.6061 8.20941 19.7007 8.05404C19.7908 7.89861 19.8763 7.71812 19.9575 7.50265L21.2325 4.14933H20.3675L19.4454 6.77646L18.4617 4.14933H17.5155L18.9615 7.73775C18.9412 7.77417 18.9204 7.80776 18.8988 7.83848C18.8491 7.90868 18.7861 7.96377 18.714 7.99887C18.6419 8.03399 18.5518 8.04897 18.4436 8.04897C18.34 8.04897 18.2544 8.03897 18.1824 8.0139C18.1058 7.9939 18.0427 7.95881 17.9841 7.91876ZM5.81915 2.11185C7.4783 2.11185 8.82364 3.60869 8.82364 5.45438V5.45451C8.82364 7.29995 7.4783 8.7968 5.81926 8.7968L5.81915 8.797C4.16033 8.79679 2.81492 7.29995 2.81492 5.45451L2.81481 5.45438C2.81492 3.60869 4.16033 2.11185 5.81926 2.11185H5.81915ZM6.24253 7.46334H6.87029V3.45219H5.95724C5.0391 3.45219 4.55663 3.97746 4.55663 4.75082C4.55663 5.36831 4.82118 5.73186 5.2933 6.10709L4.47365 7.46334H5.15318L6.06623 5.9454L5.7497 5.70883C5.36587 5.42034 5.1791 5.19526 5.1791 4.71043C5.1791 4.28337 5.44894 3.99478 5.96244 3.99478H6.24253V7.46334ZM5.54606 0H18.7291C21.4593 0 23.6728 2.46238 23.6728 5.5C23.6728 8.53752 21.4593 11 18.7291 11H5.54606C2.81572 11 0.602417 8.53752 0.602417 5.5C0.602417 2.46238 2.81572 0 5.54606 0ZM5.54606 0.486179C3.05717 0.486179 1.03943 2.73101 1.03943 5.5C1.03943 8.26912 3.05708 10.5138 5.54606 10.5138H18.7291C21.2181 10.5138 23.2358 8.26912 23.2358 5.5C23.2358 2.73101 21.2181 0.486179 18.7291 0.486179H5.54606Z" fill="#7C7783"/>
</svg>
